{"glyphs":{"0":{"ha":956,"x_min":92,"x_max":864,"o":"m 479 1044 q 677 983 590 1044 q 814 801 764 921 q 864 513 864 681 q 814 227 864 346 q 677 48 764 108 q 478 -12 590 -12 q 278 48 365 -12 q 141 226 190 108 q 92 511 92 344 q 142 800 92 679 q 280 983 192 921 q 479 1044 368 1044 m 479 89 q 728 513 728 89 q 662 838 728 733 q 478 943 596 943 q 294 838 360 943 q 228 513 228 732 q 294 192 228 296 q 479 89 361 89 z "},"1":{"ha":646,"x_min":68,"x_max":588,"o":"m 572 106 q 588 92 588 106 l 588 14 q 583 4 588 8 q 572 0 579 0 l 85 0 q 69 14 69 0 l 69 92 q 85 106 69 106 l 260 106 q 271 113 271 106 l 271 876 q 258 888 271 892 l 86 824 q 83 823 85 824 q 81 824 82 822 q 68 840 68 824 l 68 896 q 71 909 68 906 q 82 917 74 913 l 288 1019 q 329 1031 311 1031 l 389 1031 q 404 1014 404 1031 l 404 115 q 413 106 404 106 l 572 106 z "},"2":{"ha":832,"x_min":68,"x_max":753,"o":"m 401 432 q 567 615 521 544 q 613 760 613 685 q 551 892 613 844 q 407 940 490 940 q 278 907 342 940 q 169 803 214 874 q 156 796 165 796 q 142 800 150 796 l 81 836 q 69 853 69 843 q 75 867 69 860 q 226 1000 136 956 q 418 1044 315 1044 q 581 1012 507 1044 q 698 914 654 979 q 742 756 742 849 q 692 588 742 665 q 518 392 643 510 l 239 129 q 232 119 232 125 q 247 113 232 113 l 735 113 q 749 109 744 113 q 753 97 753 106 l 753 17 q 735 0 753 0 l 90 0 q 73 5 78 0 q 68 22 68 10 l 68 79 q 75 106 68 94 q 106 138 82 117 l 401 432 z "},"3":{"ha":890,"x_min":58,"x_max":807,"o":"m 107 886 q 103 896 103 890 q 107 907 103 901 q 428 1044 235 1044 q 611 1010 532 1044 q 733 917 690 976 q 775 783 775 858 q 728 648 775 708 q 599 558 682 588 q 583 549 583 554 q 599 539 583 546 q 748 447 689 514 q 807 285 807 379 q 762 130 807 197 q 628 24 717 63 q 410 -14 539 -14 q 63 133 197 -14 q 58 144 58 140 q 67 157 58 151 l 126 204 q 139 211 136 211 q 149 204 144 211 q 273 114 210 140 q 419 88 336 88 q 607 140 539 88 q 675 281 675 193 q 638 392 675 344 q 542 463 601 439 q 414 486 482 486 l 290 488 q 274 501 274 488 l 274 574 q 290 588 274 585 l 390 589 q 519 614 461 589 q 611 682 578 639 q 644 778 644 725 q 617 862 644 824 q 540 922 589 900 q 429 944 490 944 q 181 838 292 944 q 168 831 174 831 q 156 838 165 831 l 107 886 z "},"4":{"ha":901,"x_min":63,"x_max":842,"o":"m 536 1017 q 551 1028 544 1025 q 571 1031 558 1031 l 664 1031 q 681 1014 681 1031 l 681 389 q 692 376 681 376 l 822 376 q 842 363 842 376 l 842 294 q 822 276 842 276 l 693 276 q 681 263 681 276 l 681 21 q 658 0 681 0 l 564 0 q 546 18 546 0 l 546 267 q 533 276 546 276 l 83 276 q 63 294 63 276 l 63 365 q 69 385 63 374 q 85 411 75 397 l 536 1017 m 531 376 q 540 379 536 376 q 543 386 543 382 l 543 850 q 538 867 543 867 q 524 856 535 867 l 185 394 q 181 385 181 389 q 194 376 181 376 l 531 376 z "},"5":{"ha":908,"x_min":69,"x_max":831,"o":"m 756 1031 q 774 1026 769 1031 q 776 1011 778 1022 l 771 935 q 767 922 769 925 q 751 919 764 919 l 279 919 q 263 904 263 919 l 238 603 l 238 600 q 242 587 238 590 q 254 586 247 583 q 369 637 321 621 q 485 653 418 653 q 659 618 581 653 q 784 513 738 583 q 831 338 831 442 q 780 149 831 229 q 640 28 729 69 q 435 -14 550 -14 q 234 24 328 -14 q 76 131 140 61 q 69 144 69 140 q 79 158 69 153 l 139 207 q 147 211 143 211 q 163 203 154 211 q 282 114 228 142 q 418 86 336 86 q 624 154 549 86 q 700 333 700 222 q 633 495 700 439 q 464 551 567 551 q 344 530 399 551 q 225 469 290 508 q 213 464 215 464 q 200 471 211 464 l 132 510 q 123 515 126 513 q 119 522 119 518 l 122 540 l 160 1011 q 165 1027 161 1024 q 190 1031 169 1031 l 756 1031 z "},"6":{"ha":918,"x_min":92,"x_max":843,"o":"m 513 1043 q 676 1005 608 1043 q 783 908 744 967 q 788 897 788 900 q 779 886 788 890 l 700 854 q 693 853 697 853 q 679 863 685 853 q 608 923 646 903 q 514 943 569 943 q 297 841 369 943 q 224 572 224 739 q 226 547 224 554 q 235 540 228 540 q 249 544 240 540 q 376 597 319 579 q 506 615 432 615 q 686 576 610 615 q 803 469 763 538 q 843 314 843 400 q 796 144 843 218 q 667 28 749 69 q 485 -12 585 -12 q 275 48 364 -12 q 139 224 186 108 q 92 500 92 340 q 142 790 92 668 q 288 978 193 913 q 513 1043 383 1043 m 490 518 q 365 499 433 518 q 254 454 297 481 q 232 431 238 443 q 226 394 226 419 q 256 252 226 324 q 343 133 285 181 q 485 85 401 85 q 600 115 549 85 q 681 196 651 144 q 711 308 711 247 q 651 458 711 399 q 490 518 590 518 z "},"7":{"ha":832,"x_min":57,"x_max":772,"o":"m 750 1031 q 767 1026 761 1031 q 771 1014 772 1021 l 769 964 q 750 914 769 943 q 581 612 663 783 q 444 281 500 440 q 375 26 389 122 q 354 0 374 0 l 244 0 q 229 6 233 0 q 228 24 225 13 q 371 434 272 204 q 621 900 469 664 q 625 913 625 907 q 611 919 625 919 l 74 919 q 58 936 57 919 l 67 1017 q 72 1028 68 1025 q 88 1031 76 1031 l 750 1031 z "},"8":{"ha":928,"x_min":85,"x_max":849,"o":"m 463 1044 q 640 1009 563 1044 q 760 909 717 974 q 803 761 803 844 q 769 644 803 696 q 663 542 736 593 q 651 529 651 533 q 661 519 651 524 q 849 274 849 446 q 800 122 849 186 q 663 22 751 57 q 458 -14 575 -14 q 185 57 285 -14 q 85 256 85 128 q 122 388 85 329 q 243 500 158 447 q 261 517 261 511 q 244 531 261 522 q 113 746 113 604 q 157 897 113 829 q 281 1005 201 965 q 463 1044 361 1044 m 464 947 q 349 922 401 947 q 268 854 297 897 q 239 757 239 811 q 382 599 239 631 l 525 565 q 590 587 551 558 q 656 665 628 615 q 685 763 685 714 q 625 896 685 844 q 464 947 565 947 m 465 83 q 649 133 581 83 q 717 268 717 183 q 682 373 717 333 q 569 432 647 413 l 389 475 q 376 476 385 476 q 304 449 346 476 q 233 374 263 421 q 203 271 203 326 q 270 133 203 182 q 465 83 338 83 z "},"9":{"ha":914,"x_min":76,"x_max":822,"o":"m 406 -12 q 237 26 307 -12 q 126 122 167 64 q 122 133 122 131 q 131 144 122 140 l 210 176 l 215 178 q 231 168 224 178 q 305 108 264 129 q 406 88 346 88 q 617 190 546 88 q 689 458 689 292 q 687 483 689 476 q 679 490 685 490 q 665 486 674 490 q 540 433 596 451 q 411 415 485 415 q 233 454 308 415 q 117 562 157 493 q 76 718 76 631 q 124 887 76 813 q 253 1002 171 961 q 435 1043 335 1043 q 641 982 554 1043 q 775 806 728 921 q 822 531 822 690 q 772 240 822 363 q 628 53 722 118 q 406 -12 533 -12 m 426 513 q 552 533 485 513 q 661 583 619 553 q 683 606 678 594 q 689 643 689 618 q 660 783 689 713 q 574 899 632 853 q 435 946 517 946 q 319 917 371 946 q 238 836 268 888 q 208 722 208 785 q 235 616 208 664 q 312 540 263 568 q 426 513 361 513 z "},"\r":{"ha":297,"x_min":0,"x_max":0,"o":""}," ":{"ha":299,"x_min":0,"x_max":0,"o":""},"A":{"ha":1010,"x_min":60,"x_max":949,"o":"m 76 0 q 64 6 68 0 q 64 24 60 13 l 424 1011 q 433 1026 428 1022 q 451 1031 439 1031 l 560 1031 q 592 1010 586 1031 l 947 24 l 949 17 q 933 0 949 0 l 835 0 q 813 14 818 0 l 717 283 q 711 292 714 289 q 700 294 708 294 l 296 294 q 279 283 283 294 l 181 13 q 160 0 176 0 l 76 0 m 664 400 q 675 418 679 400 l 508 875 q 499 888 504 888 q 489 875 493 888 l 319 415 l 317 407 q 328 400 317 400 l 664 400 z "},"Á":{"ha":1010,"x_min":63,"x_max":949,"o":"m 76 0 q 64 6 68 0 q 64 24 60 13 l 424 1011 q 433 1026 428 1022 q 451 1031 439 1031 l 560 1031 q 592 1010 586 1031 l 947 24 l 949 17 q 933 0 949 0 l 835 0 q 813 14 818 0 l 717 283 q 711 292 714 289 q 700 294 708 294 l 296 294 q 279 283 283 294 l 181 13 q 160 0 176 0 l 76 0 m 664 400 q 675 418 679 400 l 508 875 q 499 888 504 888 q 489 875 493 888 l 319 415 l 317 407 q 328 400 317 400 l 664 400 m 685 1267 q 686 1258 686 1264 q 671 1243 686 1247 l 353 1143 q 344 1142 350 1142 q 331 1154 335 1142 l 319 1185 q 318 1192 318 1188 q 326 1204 318 1203 l 647 1338 q 653 1339 649 1339 q 664 1331 661 1339 l 685 1267 z "},"Ă":{"ha":1010,"x_min":63,"x_max":949,"o":"m 76 0 q 64 6 68 0 q 64 24 60 13 l 424 1011 q 433 1026 428 1022 q 451 1031 439 1031 l 560 1031 q 592 1010 586 1031 l 947 24 l 949 17 q 933 0 949 0 l 835 0 q 813 14 818 0 l 717 283 q 711 292 714 289 q 700 294 708 294 l 296 294 q 279 283 283 294 l 181 13 q 160 0 176 0 l 76 0 m 664 400 q 675 418 679 400 l 508 875 q 499 888 504 888 q 489 875 493 888 l 319 415 l 317 407 q 328 400 317 400 l 664 400 m 696 1325 q 708 1322 706 1325 q 708 1310 711 1318 q 637 1215 692 1254 q 501 1175 582 1175 q 369 1214 422 1175 q 299 1311 315 1253 l 299 1317 q 307 1325 299 1325 l 371 1325 q 383 1322 379 1325 q 393 1313 388 1319 q 435 1269 411 1286 q 501 1251 460 1251 q 569 1269 540 1251 q 614 1314 599 1288 q 631 1325 621 1325 l 696 1325 z "},"Â":{"ha":1010,"x_min":63,"x_max":949,"o":"m 76 0 q 64 6 68 0 q 64 24 60 13 l 424 1011 q 433 1026 428 1022 q 451 1031 439 1031 l 560 1031 q 592 1010 586 1031 l 947 24 l 949 17 q 933 0 949 0 l 835 0 q 813 14 818 0 l 717 283 q 711 292 714 289 q 700 294 708 294 l 296 294 q 279 283 283 294 l 181 13 q 160 0 176 0 l 76 0 m 664 400 q 675 418 679 400 l 508 875 q 499 888 504 888 q 489 875 493 888 l 319 415 l 317 407 q 328 400 317 400 l 664 400 m 518 1249 q 510 1256 515 1251 q 503 1261 506 1261 q 486 1249 499 1261 l 406 1179 q 394 1172 399 1174 q 381 1171 389 1171 l 306 1171 q 296 1176 296 1171 q 303 1188 296 1181 l 444 1314 q 479 1329 460 1329 l 533 1329 q 549 1325 543 1329 q 561 1317 556 1321 l 701 1188 q 710 1175 710 1179 q 700 1171 710 1171 l 618 1171 q 593 1179 603 1171 l 518 1249 z "},"Ȁ":{"ha":1010,"x_min":63,"x_max":949,"o":"m 76 0 q 64 6 68 0 q 64 24 60 13 l 424 1011 q 433 1026 428 1022 q 451 1031 439 1031 l 560 1031 q 592 1010 586 1031 l 947 24 l 949 17 q 933 0 949 0 l 835 0 q 813 14 818 0 l 717 283 q 711 292 714 289 q 700 294 708 294 l 296 294 q 279 283 283 294 l 181 13 q 160 0 176 0 l 76 0 m 664 400 q 675 418 679 400 l 508 875 q 499 888 504 888 q 489 875 493 888 l 319 415 l 317 407 q 328 400 317 400 l 664 400 m 258 1335 q 276 1335 267 1344 l 449 1151 q 451 1143 451 1149 q 447 1132 451 1139 l 425 1106 q 415 1099 418 1099 q 401 1104 413 1099 l 221 1256 q 211 1271 211 1264 q 217 1283 211 1275 l 258 1335 m 483 1335 q 492 1339 486 1339 q 501 1335 497 1339 l 672 1151 q 676 1143 676 1150 q 671 1132 676 1138 l 650 1106 q 639 1099 643 1099 q 625 1104 636 1099 l 446 1256 q 435 1271 435 1264 q 442 1283 435 1276 l 483 1335 z "},"Ä":{"ha":1010,"x_min":63,"x_max":949,"o":"m 76 0 q 64 6 68 0 q 64 24 60 13 l 424 1011 q 433 1026 428 1022 q 451 1031 439 1031 l 560 1031 q 592 1010 586 1031 l 947 24 l 949 17 q 933 0 949 0 l 835 0 q 813 14 818 0 l 717 283 q 711 292 714 289 q 700 294 708 294 l 296 294 q 279 283 283 294 l 181 13 q 160 0 176 0 l 76 0 m 664 400 q 675 418 679 400 l 508 875 q 499 888 504 888 q 489 875 493 888 l 319 415 l 317 407 q 328 400 317 400 l 664 400 m 458 1193 q 453 1176 458 1181 q 436 1172 449 1172 l 363 1172 q 347 1176 351 1172 q 343 1190 343 1179 l 343 1307 q 347 1321 343 1317 q 358 1325 350 1325 l 443 1325 q 455 1322 451 1325 q 458 1308 458 1318 l 458 1193 m 663 1193 q 658 1176 663 1181 q 639 1172 653 1172 l 567 1172 q 550 1176 554 1172 q 546 1190 546 1179 l 546 1307 q 561 1325 546 1325 l 647 1325 q 659 1322 656 1325 q 663 1308 663 1318 l 663 1193 z "},"À":{"ha":1010,"x_min":63,"x_max":949,"o":"m 76 0 q 64 6 68 0 q 64 24 60 13 l 424 1011 q 433 1026 428 1022 q 451 1031 439 1031 l 560 1031 q 592 1010 586 1031 l 947 24 l 949 17 q 933 0 949 0 l 835 0 q 813 14 818 0 l 717 283 q 711 292 714 289 q 700 294 708 294 l 296 294 q 279 283 283 294 l 181 13 q 160 0 176 0 l 76 0 m 664 400 q 675 418 679 400 l 508 875 q 499 888 504 888 q 489 875 493 888 l 319 415 l 317 407 q 328 400 317 400 l 664 400 m 324 1331 q 329 1338 325 1336 q 339 1338 333 1340 l 661 1204 q 667 1185 672 1199 l 656 1154 q 648 1142 653 1144 q 633 1143 643 1140 l 317 1243 q 301 1267 294 1249 l 324 1331 z "},"Ȃ":{"ha":1010,"x_min":63,"x_max":949,"o":"m 76 0 q 64 6 68 0 q 64 24 60 13 l 424 1011 q 433 1026 428 1022 q 451 1031 439 1031 l 560 1031 q 592 1010 586 1031 l 947 24 l 949 17 q 933 0 949 0 l 835 0 q 813 14 818 0 l 717 283 q 711 292 714 289 q 700 294 708 294 l 296 294 q 279 283 283 294 l 181 13 q 160 0 176 0 l 76 0 m 664 400 q 675 418 679 400 l 508 875 q 499 888 504 888 q 489 875 493 888 l 319 415 l 317 407 q 328 400 317 400 l 664 400 m 629 1183 q 613 1194 619 1183 q 568 1239 597 1221 q 500 1257 539 1257 q 434 1240 458 1257 q 392 1196 410 1222 q 382 1186 386 1189 q 369 1183 378 1183 l 306 1183 q 297 1197 293 1183 q 367 1294 314 1256 q 500 1333 421 1333 q 635 1294 581 1333 q 707 1199 690 1254 q 708 1192 708 1196 q 694 1183 708 1183 l 629 1183 z "},"Ā":{"ha":1010,"x_min":63,"x_max":949,"o":"m 76 0 q 64 6 68 0 q 64 24 60 13 l 424 1011 q 433 1026 428 1022 q 451 1031 439 1031 l 560 1031 q 592 1010 586 1031 l 947 24 l 949 17 q 933 0 949 0 l 835 0 q 813 14 818 0 l 717 283 q 711 292 714 289 q 700 294 708 294 l 296 294 q 279 283 283 294 l 181 13 q 160 0 176 0 l 76 0 m 664 400 q 675 418 679 400 l 508 875 q 499 888 504 888 q 489 875 493 888 l 319 415 l 317 407 q 328 400 317 400 l 664 400 m 708 1238 q 688 1219 708 1219 l 313 1219 q 301 1224 304 1219 q 297 1236 297 1228 l 297 1290 q 300 1301 297 1297 q 308 1306 303 1306 l 697 1306 q 706 1301 703 1306 q 708 1292 708 1297 l 708 1238 z "},"Ą":{"ha":1010,"x_min":60,"x_max":975,"o":"m 960 -151 q 969 -149 968 -149 q 975 -158 975 -149 l 975 -199 q 967 -214 975 -208 q 915 -231 949 -224 q 846 -237 881 -237 q 742 -208 778 -237 q 707 -125 707 -178 q 733 -52 707 -83 q 824 3 760 -21 q 813 14 817 4 l 717 283 q 711 292 714 289 q 700 294 708 294 l 296 294 q 279 283 283 294 l 181 13 q 160 0 176 0 l 76 0 q 64 6 68 0 q 64 24 60 13 l 424 1011 q 433 1026 428 1022 q 451 1031 439 1031 l 560 1031 q 592 1010 586 1031 l 947 24 l 949 17 q 933 0 949 0 q 834 -56 864 -29 q 804 -117 804 -83 q 821 -157 804 -144 q 874 -169 838 -169 q 923 -164 900 -169 q 960 -151 946 -158 m 664 400 q 675 418 679 400 l 508 875 q 499 888 504 888 q 489 875 493 888 l 319 415 l 317 407 q 328 400 317 400 l 664 400 z "},"Å":{"ha":1010,"x_min":63,"x_max":949,"o":"m 76 0 q 64 6 68 0 q 64 24 60 13 l 424 1011 q 433 1026 428 1022 q 451 1031 439 1031 l 560 1031 q 592 1010 586 1031 l 947 24 l 949 17 q 933 0 949 0 l 835 0 q 813 14 818 0 l 717 283 q 711 292 714 289 q 700 294 708 294 l 296 294 q 279 283 283 294 l 181 13 q 160 0 176 0 l 76 0 m 664 400 q 675 418 679 400 l 508 875 q 499 888 504 888 q 489 875 493 888 l 319 415 l 317 407 q 328 400 317 400 l 664 400 m 647 1194 q 606 1090 647 1132 q 503 1049 564 1049 q 399 1091 442 1049 q 357 1197 357 1133 q 399 1297 357 1256 q 503 1338 442 1338 q 605 1296 563 1338 q 647 1194 647 1254 m 578 1193 q 556 1249 578 1228 q 501 1271 533 1271 q 446 1249 469 1271 q 422 1193 422 1226 q 446 1139 422 1163 q 501 1115 469 1115 q 556 1138 533 1115 q 578 1193 578 1161 z "},"Ǻ":{"ha":913,"x_min":35,"x_max":878,"o":"m 876 24 q 878 15 878 21 q 864 0 878 0 l 761 0 q 740 14 746 0 l 650 283 q 635 294 646 294 l 260 294 q 244 283 249 294 l 151 13 q 132 0 147 0 l 51 0 q 39 7 43 0 q 39 24 35 14 l 372 999 q 331 1048 346 1018 q 315 1114 315 1078 q 349 1202 315 1164 q 435 1249 383 1240 l 450 1314 q 460 1333 453 1328 q 483 1339 468 1339 l 524 1339 q 542 1324 542 1339 q 539 1311 542 1319 l 508 1242 q 576 1191 550 1226 q 601 1111 601 1156 q 587 1048 601 1076 q 546 1000 572 1019 l 876 24 m 457 1188 q 402 1165 425 1188 q 379 1110 379 1143 q 403 1056 379 1079 q 457 1032 426 1032 q 511 1056 489 1032 q 533 1110 533 1079 q 512 1166 533 1144 q 457 1188 490 1188 m 600 400 q 611 418 615 400 l 457 875 q 447 888 453 888 q 438 875 442 888 l 282 415 l 279 407 q 290 400 279 400 l 600 400 z "},"Ã":{"ha":1010,"x_min":63,"x_max":949,"o":"m 76 0 q 64 6 68 0 q 64 24 60 13 l 424 1011 q 433 1026 428 1022 q 451 1031 439 1031 l 560 1031 q 592 1010 586 1031 l 947 24 l 949 17 q 933 0 949 0 l 835 0 q 813 14 818 0 l 717 283 q 711 292 714 289 q 700 294 708 294 l 296 294 q 279 283 283 294 l 181 13 q 160 0 176 0 l 76 0 m 664 400 q 675 418 679 400 l 508 875 q 499 888 504 888 q 489 875 493 888 l 319 415 l 317 407 q 328 400 317 400 l 664 400 m 699 1235 q 652 1213 676 1221 q 593 1204 628 1204 q 497 1224 553 1204 q 417 1240 447 1240 q 378 1234 393 1240 q 350 1221 363 1228 q 333 1211 338 1214 q 324 1207 326 1207 q 314 1218 318 1207 l 300 1256 q 299 1264 299 1258 q 306 1275 299 1269 q 356 1306 333 1296 q 411 1317 378 1317 q 456 1312 435 1317 q 507 1297 476 1307 q 551 1284 529 1290 q 594 1278 574 1278 q 635 1285 618 1278 q 674 1306 651 1292 q 685 1310 681 1310 q 696 1299 692 1310 l 710 1256 q 711 1249 711 1253 q 699 1235 711 1242 z "},"Æ":{"ha":1401,"x_min":63,"x_max":1336,"o":"m 1319 103 q 1332 100 1328 103 q 1336 89 1336 97 l 1336 15 q 1319 0 1336 0 l 713 0 q 693 19 693 0 l 693 285 q 683 294 693 294 l 351 294 q 332 283 338 294 l 181 13 q 158 0 172 0 l 75 0 q 63 11 63 0 q 67 24 63 15 l 617 1011 q 630 1026 624 1022 q 649 1031 636 1031 l 1304 1031 q 1318 1015 1318 1031 l 1317 944 q 1299 928 1317 928 l 844 928 q 831 924 835 928 q 826 911 826 921 l 826 586 q 843 571 826 571 l 1182 571 q 1197 556 1197 571 l 1197 482 q 1182 469 1197 469 l 842 469 q 826 454 826 469 l 826 117 q 829 106 826 108 q 840 103 832 103 l 1319 103 m 678 400 q 693 417 693 400 l 693 888 q 683 906 693 906 q 663 888 672 906 l 394 415 q 390 403 389 407 q 400 400 392 400 l 678 400 z "},"Ǽ":{"ha":1401,"x_min":63,"x_max":1336,"o":"m 1319 103 q 1332 100 1328 103 q 1336 89 1336 97 l 1336 15 q 1319 0 1336 0 l 713 0 q 693 19 693 0 l 693 285 q 683 294 693 294 l 351 294 q 332 283 338 294 l 181 13 q 158 0 172 0 l 75 0 q 63 11 63 0 q 67 24 63 15 l 617 1011 q 630 1026 624 1022 q 649 1031 636 1031 l 1304 1031 q 1318 1015 1318 1031 l 1317 944 q 1299 928 1317 928 l 844 928 q 831 924 835 928 q 826 911 826 921 l 826 586 q 843 571 826 571 l 1182 571 q 1197 556 1197 571 l 1197 482 q 1182 469 1197 469 l 842 469 q 826 454 826 469 l 826 117 q 829 106 826 108 q 840 103 832 103 l 1319 103 m 678 400 q 693 417 693 400 l 693 888 q 683 906 693 906 q 663 888 672 906 l 394 415 q 390 403 389 407 q 400 400 392 400 l 678 400 m 1144 1267 q 1146 1258 1146 1264 q 1131 1243 1146 1247 l 813 1143 q 804 1142 810 1142 q 790 1154 794 1142 l 779 1185 q 778 1192 778 1188 q 786 1204 778 1203 l 1107 1338 q 1113 1339 1108 1339 q 1124 1331 1121 1339 l 1144 1267 z "},"B":{"ha":971,"x_min":135,"x_max":885,"o":"m 151 0 q 140 5 144 0 q 135 17 135 10 l 135 1011 q 153 1031 135 1031 l 474 1031 q 759 962 658 1031 q 860 764 860 893 q 815 622 860 679 q 678 532 771 565 q 672 526 672 531 q 678 521 672 522 q 885 275 885 468 q 782 69 885 138 q 483 0 679 0 l 151 0 m 492 571 q 657 613 589 571 q 725 749 725 654 q 658 887 725 840 q 474 933 592 933 l 286 933 q 268 917 268 933 l 268 589 q 281 571 268 571 l 492 571 m 476 97 q 679 142 613 97 q 746 279 746 186 q 676 424 746 376 q 492 471 607 471 l 288 471 q 272 467 276 471 q 268 454 268 464 l 268 117 q 271 101 268 106 q 281 97 274 97 l 476 97 z "},"C":{"ha":982,"x_min":90,"x_max":915,"o":"m 525 1044 q 699 1006 617 1044 q 836 901 782 967 q 901 760 890 836 l 903 750 q 899 742 903 744 q 892 739 896 739 l 788 731 l 785 731 q 778 734 781 731 q 774 744 775 738 q 688 889 753 835 q 529 943 622 943 q 306 835 383 943 q 229 514 229 728 q 306 198 229 304 q 536 92 383 92 q 701 140 635 92 q 807 290 767 188 q 824 296 810 300 l 906 276 q 913 257 915 274 q 840 126 892 188 q 710 25 789 64 q 531 -14 631 -14 q 294 50 393 -14 q 143 233 196 114 q 90 517 90 353 q 142 799 90 681 q 292 981 194 918 q 525 1044 390 1044 z "},"Ć":{"ha":982,"x_min":90,"x_max":914,"o":"m 525 1044 q 699 1006 617 1044 q 836 901 782 967 q 901 760 890 836 l 903 750 q 899 742 903 744 q 892 739 896 739 l 788 731 l 785 731 q 778 734 781 731 q 774 744 775 738 q 688 889 753 835 q 529 943 622 943 q 306 835 383 943 q 229 514 229 728 q 306 198 229 304 q 536 92 383 92 q 701 140 635 92 q 807 290 767 188 q 824 296 810 300 l 906 276 q 913 257 915 274 q 840 126 892 188 q 710 25 789 64 q 531 -14 631 -14 q 294 50 393 -14 q 143 233 196 114 q 90 517 90 353 q 142 799 90 681 q 292 981 194 918 q 525 1044 390 1044 m 707 1267 q 708 1258 708 1264 q 693 1243 708 1247 l 375 1143 q 367 1142 372 1142 q 353 1154 357 1142 l 342 1185 q 340 1192 340 1188 q 349 1204 340 1203 l 669 1338 q 675 1339 671 1339 q 686 1331 683 1339 l 707 1267 z "},"Č":{"ha":982,"x_min":90,"x_max":914,"o":"m 525 1044 q 699 1006 617 1044 q 836 901 782 967 q 901 760 890 836 l 903 750 q 899 742 903 744 q 892 739 896 739 l 788 731 l 785 731 q 778 734 781 731 q 774 744 775 738 q 688 889 753 835 q 529 943 622 943 q 306 835 383 943 q 229 514 229 728 q 306 198 229 304 q 536 92 383 92 q 701 140 635 92 q 807 290 767 188 q 824 296 810 300 l 906 276 q 913 257 915 274 q 840 126 892 188 q 710 25 789 64 q 531 -14 631 -14 q 294 50 393 -14 q 143 233 196 114 q 90 517 90 353 q 142 799 90 681 q 292 981 194 918 q 525 1044 390 1044 m 615 1315 q 640 1325 625 1325 l 722 1325 q 732 1321 732 1325 q 724 1308 732 1317 l 583 1179 q 572 1171 578 1175 q 556 1167 565 1167 l 501 1167 q 467 1181 483 1167 l 325 1308 q 319 1320 318 1315 q 328 1325 319 1325 l 403 1325 q 417 1324 413 1325 q 428 1315 421 1322 l 508 1247 q 525 1235 521 1235 q 533 1240 528 1235 q 540 1247 538 1244 l 615 1315 z "},"Ç":{"ha":982,"x_min":90,"x_max":915,"o":"m 906 276 q 913 257 915 274 q 845 131 893 190 q 724 32 797 71 q 558 -12 651 -7 l 535 -72 q 535 -77 533 -75 q 540 -79 536 -79 q 629 -112 601 -83 q 657 -182 657 -142 q 613 -262 657 -233 q 506 -292 569 -292 q 383 -261 436 -292 q 378 -249 376 -256 l 393 -212 q 406 -210 397 -206 q 492 -236 444 -236 q 571 -183 571 -236 q 544 -137 571 -153 q 458 -119 517 -122 q 450 -118 451 -119 q 450 -111 449 -117 l 493 -12 q 197 141 303 1 q 90 517 90 281 q 142 799 90 681 q 292 981 194 918 q 525 1044 390 1044 q 699 1006 617 1044 q 836 901 782 967 q 901 760 890 836 l 903 750 q 899 742 903 744 q 892 739 896 739 l 788 731 l 785 731 q 778 734 781 731 q 774 744 775 738 q 688 889 753 835 q 529 943 622 943 q 306 835 383 943 q 229 514 229 728 q 306 198 229 304 q 536 92 383 92 q 701 140 635 92 q 807 290 767 188 q 824 296 810 300 l 906 276 z "},"Ĉ":{"ha":982,"x_min":90,"x_max":914,"o":"m 525 1044 q 699 1006 617 1044 q 836 901 782 967 q 901 760 890 836 l 903 750 q 899 742 903 744 q 892 739 896 739 l 788 731 l 785 731 q 778 734 781 731 q 774 744 775 738 q 688 889 753 835 q 529 943 622 943 q 306 835 383 943 q 229 514 229 728 q 306 198 229 304 q 536 92 383 92 q 701 140 635 92 q 807 290 767 188 q 824 296 810 300 l 906 276 q 913 257 915 274 q 840 126 892 188 q 710 25 789 64 q 531 -14 631 -14 q 294 50 393 -14 q 143 233 196 114 q 90 517 90 353 q 142 799 90 681 q 292 981 194 918 q 525 1044 390 1044 m 540 1249 q 533 1256 538 1251 q 525 1261 528 1261 q 508 1249 521 1261 l 428 1179 q 416 1172 421 1174 q 403 1171 411 1171 l 328 1171 q 318 1176 318 1171 q 325 1188 318 1181 l 467 1314 q 501 1329 482 1329 l 556 1329 q 572 1325 565 1329 q 583 1317 578 1321 l 724 1188 q 732 1175 732 1179 q 722 1171 732 1171 l 640 1171 q 615 1179 625 1171 l 540 1249 z "},"Ċ":{"ha":982,"x_min":90,"x_max":914,"o":"m 525 1044 q 699 1006 617 1044 q 836 901 782 967 q 901 760 890 836 l 903 750 q 899 742 903 744 q 892 739 896 739 l 788 731 l 785 731 q 778 734 781 731 q 774 744 775 738 q 688 889 753 835 q 529 943 622 943 q 306 835 383 943 q 229 514 229 728 q 306 198 229 304 q 536 92 383 92 q 701 140 635 92 q 807 290 767 188 q 824 296 810 300 l 906 276 q 913 257 915 274 q 840 126 892 188 q 710 25 789 64 q 531 -14 631 -14 q 294 50 393 -14 q 143 233 196 114 q 90 517 90 353 q 142 799 90 681 q 292 981 194 918 q 525 1044 390 1044 m 588 1185 q 582 1167 588 1172 q 563 1163 576 1163 l 482 1163 q 465 1167 469 1163 q 461 1182 461 1171 l 461 1306 q 465 1321 461 1317 q 478 1325 468 1325 l 572 1325 q 588 1307 588 1325 l 588 1185 z "},"D":{"ha":1003,"x_min":135,"x_max":913,"o":"m 154 1031 q 372 1029 292 1031 q 783 899 653 1025 q 913 521 913 772 q 358 0 913 0 l 154 0 q 135 22 135 0 l 135 1013 q 139 1026 135 1022 q 154 1031 143 1031 m 279 929 q 268 910 268 929 l 268 115 q 272 103 268 107 q 285 100 275 100 l 338 100 q 588 141 493 100 q 728 274 683 182 q 774 518 774 365 q 731 759 774 671 q 599 885 688 847 q 365 928 511 924 q 279 929 338 929 z "},"Ǳ":{"ha":1804,"x_min":135,"x_max":1736,"o":"m 154 1031 q 372 1029 292 1031 q 783 899 653 1025 q 913 521 913 772 q 358 0 913 0 l 154 0 q 135 22 135 0 l 135 1013 q 139 1026 135 1022 q 154 1031 143 1031 m 279 929 q 268 910 268 929 l 268 115 q 272 103 268 107 q 285 100 275 100 l 338 100 q 588 141 493 100 q 728 274 683 182 q 774 518 774 365 q 731 759 774 671 q 599 885 688 847 q 365 928 511 924 q 279 929 338 929 m 1011 0 q 997 3 1001 0 q 993 17 993 7 l 993 49 q 996 65 993 58 q 1008 86 999 72 l 1549 914 q 1551 922 1551 919 q 1542 928 1551 928 l 1031 928 q 1015 943 1015 928 l 1015 1017 q 1029 1031 1015 1031 l 1724 1031 q 1736 1017 1736 1031 l 1736 981 q 1725 953 1736 968 l 1176 117 q 1174 108 1172 111 q 1182 104 1176 104 l 1719 104 q 1735 92 1735 104 l 1735 15 q 1718 0 1735 0 l 1011 0 z "},"Ǆ":{"ha":1850,"x_min":135,"x_max":1782,"o":"m 154 1031 q 372 1029 292 1031 q 783 899 653 1025 q 913 521 913 772 q 358 0 913 0 l 154 0 q 135 22 135 0 l 135 1013 q 139 1026 135 1022 q 154 1031 143 1031 m 279 929 q 268 910 268 929 l 268 115 q 272 103 268 107 q 285 100 275 100 l 338 100 q 588 141 493 100 q 728 274 683 182 q 774 518 774 365 q 731 759 774 671 q 599 885 688 847 q 365 928 511 924 q 279 929 338 929 m 1057 0 q 1043 3 1047 0 q 1039 17 1039 7 l 1039 49 q 1042 65 1039 58 q 1054 86 1044 72 l 1594 914 q 1597 922 1597 919 q 1588 928 1597 928 l 1076 928 q 1061 943 1061 928 l 1061 1017 q 1075 1031 1061 1031 l 1769 1031 q 1782 1017 1782 1031 l 1782 981 q 1771 953 1782 968 l 1222 117 q 1220 108 1218 111 q 1228 104 1222 104 l 1765 104 q 1781 92 1781 104 l 1781 15 q 1764 0 1781 0 l 1057 0 m 1513 1315 q 1538 1325 1522 1325 l 1619 1325 q 1629 1321 1629 1325 q 1621 1308 1629 1317 l 1481 1179 q 1469 1171 1475 1175 q 1453 1167 1463 1167 l 1399 1167 q 1364 1181 1381 1167 l 1222 1308 q 1216 1320 1215 1315 q 1225 1325 1217 1325 l 1300 1325 q 1314 1324 1310 1325 q 1325 1315 1318 1322 l 1406 1247 q 1422 1235 1418 1235 q 1430 1240 1425 1235 q 1438 1247 1435 1244 l 1513 1315 z "},"Ð":{"ha":1010,"x_min":44,"x_max":921,"o":"m 381 1029 q 791 899 661 1025 q 921 521 921 772 q 367 0 921 0 l 163 0 q 143 22 143 0 l 143 468 l 64 468 q 49 472 53 468 q 44 488 44 476 l 44 546 q 58 564 44 564 l 143 564 l 143 1013 q 147 1026 143 1022 q 163 1031 151 1031 q 381 1029 300 1031 m 346 100 q 597 141 501 100 q 737 274 692 182 q 782 518 782 365 q 739 759 782 671 q 608 885 696 847 q 374 928 519 924 q 288 929 346 929 q 276 910 276 929 l 276 564 l 496 564 q 506 559 501 564 q 510 547 510 554 l 510 489 q 483 468 510 468 l 276 468 l 276 115 q 280 103 276 107 q 293 100 283 100 l 346 100 z "},"Ď":{"ha":1003,"x_min":135,"x_max":913,"o":"m 154 1031 q 372 1029 292 1031 q 783 899 653 1025 q 913 521 913 772 q 358 0 913 0 l 154 0 q 135 22 135 0 l 135 1013 q 139 1026 135 1022 q 154 1031 143 1031 m 279 929 q 268 910 268 929 l 268 115 q 272 103 268 107 q 285 100 275 100 l 338 100 q 588 141 493 100 q 728 274 683 182 q 774 518 774 365 q 731 759 774 671 q 599 885 688 847 q 365 928 511 924 q 279 929 338 929 m 578 1315 q 603 1325 588 1325 l 685 1325 q 694 1321 694 1325 q 686 1308 694 1317 l 546 1179 q 534 1171 540 1175 q 518 1167 528 1167 l 464 1167 q 429 1181 446 1167 l 288 1308 q 281 1320 281 1315 q 290 1325 282 1325 l 365 1325 q 379 1324 375 1325 q 390 1315 383 1322 l 471 1247 q 488 1235 483 1235 q 495 1240 490 1235 q 503 1247 500 1244 l 578 1315 z "},"Đ":{"ha":1010,"x_min":44,"x_max":921,"o":"m 381 1029 q 791 899 661 1025 q 921 521 921 772 q 367 0 921 0 l 163 0 q 143 22 143 0 l 143 468 l 64 468 q 49 472 53 468 q 44 488 44 476 l 44 546 q 58 564 44 564 l 143 564 l 143 1013 q 147 1026 143 1022 q 163 1031 151 1031 q 381 1029 300 1031 m 346 100 q 597 141 501 100 q 737 274 692 182 q 782 518 782 365 q 739 759 782 671 q 608 885 696 847 q 374 928 519 924 q 288 929 346 929 q 276 910 276 929 l 276 564 l 496 564 q 506 559 501 564 q 510 547 510 554 l 510 489 q 483 468 510 468 l 276 468 l 276 115 q 280 103 276 107 q 293 100 283 100 l 346 100 z "},"Ḍ":{"ha":1003,"x_min":135,"x_max":913,"o":"m 154 1031 q 372 1029 292 1031 q 783 899 653 1025 q 913 521 913 772 q 358 0 913 0 l 154 0 q 135 22 135 0 l 135 1013 q 139 1026 135 1022 q 154 1031 143 1031 m 279 929 q 268 910 268 929 l 268 115 q 272 103 268 107 q 285 100 275 100 l 338 100 q 588 141 493 100 q 728 274 683 182 q 774 518 774 365 q 731 759 774 671 q 599 885 688 847 q 365 928 511 924 q 279 929 338 929 m 526 -208 q 522 -225 526 -221 q 506 -229 518 -229 l 436 -229 q 422 -226 426 -229 q 418 -212 418 -222 l 418 -94 q 432 -78 418 -78 l 513 -78 q 524 -81 521 -78 q 526 -93 526 -85 l 526 -208 z "},"ǲ":{"ha":1611,"x_min":135,"x_max":1564,"o":"m 154 1031 q 372 1029 292 1031 q 783 899 653 1025 q 913 521 913 772 q 358 0 913 0 l 154 0 q 135 22 135 0 l 135 1013 q 139 1026 135 1022 q 154 1031 143 1031 m 279 929 q 268 910 268 929 l 268 115 q 272 103 268 107 q 285 100 275 100 l 338 100 q 588 141 493 100 q 728 274 683 182 q 774 518 774 365 q 731 759 774 671 q 599 885 688 847 q 365 928 511 924 q 279 929 338 929 m 1001 0 q 988 3 992 0 q 985 17 985 7 l 985 57 q 988 76 985 68 q 1001 97 992 83 l 1406 640 l 1410 649 q 1399 654 1410 654 l 1031 654 q 1019 657 1022 654 q 1015 669 1015 660 l 1015 721 q 1029 736 1015 736 l 1543 736 q 1556 722 1556 736 l 1556 678 q 1542 642 1556 660 l 1136 97 q 1132 86 1131 90 q 1140 82 1133 82 l 1549 82 q 1564 69 1564 82 l 1564 17 q 1546 0 1564 0 l 1001 0 z "},"ǅ":{"ha":1672,"x_min":135,"x_max":1625,"o":"m 154 1031 q 372 1029 292 1031 q 783 899 653 1025 q 913 521 913 772 q 358 0 913 0 l 154 0 q 135 22 135 0 l 135 1013 q 139 1026 135 1022 q 154 1031 143 1031 m 279 929 q 268 910 268 929 l 268 115 q 272 103 268 107 q 285 100 275 100 l 338 100 q 588 141 493 100 q 728 274 683 182 q 774 518 774 365 q 731 759 774 671 q 599 885 688 847 q 365 928 511 924 q 279 929 338 929 m 1063 0 q 1049 3 1053 0 q 1046 17 1046 7 l 1046 57 q 1049 76 1046 68 q 1063 97 1053 83 l 1467 640 l 1471 649 q 1460 654 1471 654 l 1092 654 q 1080 657 1083 654 q 1076 669 1076 660 l 1076 721 q 1090 736 1076 736 l 1604 736 q 1617 722 1617 736 l 1617 678 q 1603 642 1617 660 l 1197 97 q 1193 86 1192 90 q 1201 82 1194 82 l 1610 82 q 1625 69 1625 82 l 1625 17 q 1607 0 1625 0 l 1063 0 m 1444 1021 q 1469 1031 1454 1031 l 1551 1031 q 1561 1026 1561 1031 q 1553 1014 1561 1022 l 1413 885 q 1401 876 1407 881 q 1385 872 1394 872 l 1331 872 q 1296 886 1313 872 l 1154 1014 q 1148 1026 1147 1021 q 1157 1031 1149 1031 l 1232 1031 q 1246 1029 1242 1031 q 1257 1021 1250 1028 l 1338 953 q 1354 940 1350 940 q 1362 945 1357 940 q 1369 953 1367 950 l 1444 1021 z "},"E":{"ha":872,"x_min":135,"x_max":807,"o":"m 135 1011 q 138 1026 135 1022 q 151 1031 142 1031 l 775 1031 q 789 1015 789 1031 l 789 944 q 771 928 789 928 l 286 928 q 272 924 275 928 q 268 911 268 921 l 268 586 q 283 571 268 571 l 643 571 q 658 556 658 571 l 658 482 q 643 469 658 469 l 283 469 q 268 454 268 469 l 268 117 q 271 106 268 108 q 282 103 274 103 l 792 103 q 803 100 800 103 q 807 89 807 97 l 807 15 q 792 0 807 0 l 154 0 q 139 4 143 0 q 135 19 135 8 l 135 1011 z "},"É":{"ha":872,"x_min":135,"x_max":807,"o":"m 135 1011 q 138 1026 135 1022 q 151 1031 142 1031 l 775 1031 q 789 1015 789 1031 l 789 944 q 771 928 789 928 l 286 928 q 272 924 275 928 q 268 911 268 921 l 268 586 q 283 571 268 571 l 643 571 q 658 556 658 571 l 658 482 q 643 469 658 469 l 283 469 q 268 454 268 469 l 268 117 q 271 106 268 108 q 282 103 274 103 l 792 103 q 803 100 800 103 q 807 89 807 97 l 807 15 q 792 0 807 0 l 154 0 q 139 4 143 0 q 135 19 135 8 l 135 1011 m 658 1267 q 660 1258 660 1264 q 644 1243 660 1247 l 326 1143 q 318 1142 324 1142 q 304 1154 308 1142 l 293 1185 q 292 1192 292 1188 q 300 1204 292 1203 l 621 1338 q 626 1339 622 1339 q 638 1331 635 1339 l 658 1267 z "},"Ĕ":{"ha":872,"x_min":135,"x_max":807,"o":"m 135 1011 q 138 1026 135 1022 q 151 1031 142 1031 l 775 1031 q 789 1015 789 1031 l 789 944 q 771 928 789 928 l 286 928 q 272 924 275 928 q 268 911 268 921 l 268 586 q 283 571 268 571 l 643 571 q 658 556 658 571 l 658 482 q 643 469 658 469 l 283 469 q 268 454 268 469 l 268 117 q 271 106 268 108 q 282 103 274 103 l 792 103 q 803 100 800 103 q 807 89 807 97 l 807 15 q 792 0 807 0 l 154 0 q 139 4 143 0 q 135 19 135 8 l 135 1011 m 669 1325 q 682 1322 679 1325 q 682 1310 685 1318 q 610 1215 665 1254 q 475 1175 556 1175 q 342 1214 396 1175 q 272 1311 289 1253 l 272 1317 q 281 1325 272 1325 l 344 1325 q 357 1322 353 1325 q 367 1313 361 1319 q 409 1269 385 1286 q 475 1251 433 1251 q 543 1269 514 1251 q 588 1314 572 1288 q 604 1325 594 1325 l 669 1325 z "},"Ě":{"ha":872,"x_min":135,"x_max":807,"o":"m 135 1011 q 138 1026 135 1022 q 151 1031 142 1031 l 775 1031 q 789 1015 789 1031 l 789 944 q 771 928 789 928 l 286 928 q 272 924 275 928 q 268 911 268 921 l 268 586 q 283 571 268 571 l 643 571 q 658 556 658 571 l 658 482 q 643 469 658 469 l 283 469 q 268 454 268 469 l 268 117 q 271 106 268 108 q 282 103 274 103 l 792 103 q 803 100 800 103 q 807 89 807 97 l 807 15 q 792 0 807 0 l 154 0 q 139 4 143 0 q 135 19 135 8 l 135 1011 m 567 1315 q 592 1325 576 1325 l 674 1325 q 683 1321 683 1325 q 675 1308 683 1317 l 535 1179 q 523 1171 529 1175 q 507 1167 517 1167 l 453 1167 q 418 1181 435 1167 l 276 1308 q 270 1320 269 1315 q 279 1325 271 1325 l 354 1325 q 368 1324 364 1325 q 379 1315 372 1322 l 460 1247 q 476 1235 472 1235 q 484 1240 479 1235 q 492 1247 489 1244 l 567 1315 z "},"Ê":{"ha":872,"x_min":135,"x_max":807,"o":"m 135 1011 q 138 1026 135 1022 q 151 1031 142 1031 l 775 1031 q 789 1015 789 1031 l 789 944 q 771 928 789 928 l 286 928 q 272 924 275 928 q 268 911 268 921 l 268 586 q 283 571 268 571 l 643 571 q 658 556 658 571 l 658 482 q 643 469 658 469 l 283 469 q 268 454 268 469 l 268 117 q 271 106 268 108 q 282 103 274 103 l 792 103 q 803 100 800 103 q 807 89 807 97 l 807 15 q 792 0 807 0 l 154 0 q 139 4 143 0 q 135 19 135 8 l 135 1011 m 492 1249 q 484 1256 489 1251 q 476 1261 479 1261 q 460 1249 472 1261 l 379 1179 q 367 1172 372 1174 q 354 1171 363 1171 l 279 1171 q 269 1176 269 1171 q 276 1188 269 1181 l 418 1314 q 453 1329 433 1329 l 507 1329 q 523 1325 517 1329 q 535 1317 529 1321 l 675 1188 q 683 1175 683 1179 q 674 1171 683 1171 l 592 1171 q 567 1179 576 1171 l 492 1249 z "},"Ȅ":{"ha":872,"x_min":135,"x_max":807,"o":"m 135 1011 q 138 1026 135 1022 q 151 1031 142 1031 l 775 1031 q 789 1015 789 1031 l 789 944 q 771 928 789 928 l 286 928 q 272 924 275 928 q 268 911 268 921 l 268 586 q 283 571 268 571 l 643 571 q 658 556 658 571 l 658 482 q 643 469 658 469 l 283 469 q 268 454 268 469 l 268 117 q 271 106 268 108 q 282 103 274 103 l 792 103 q 803 100 800 103 q 807 89 807 97 l 807 15 q 792 0 807 0 l 154 0 q 139 4 143 0 q 135 19 135 8 l 135 1011 m 232 1335 q 250 1335 240 1344 l 422 1151 q 425 1143 425 1149 q 421 1132 425 1139 l 399 1106 q 389 1099 392 1099 q 375 1104 386 1099 l 194 1256 q 185 1271 185 1264 q 190 1283 185 1275 l 232 1335 m 457 1335 q 465 1339 460 1339 q 475 1335 471 1339 l 646 1151 q 650 1143 650 1150 q 644 1132 650 1138 l 624 1106 q 613 1099 617 1099 q 599 1104 610 1099 l 419 1256 q 408 1271 408 1264 q 415 1283 408 1276 l 457 1335 z "},"Ë":{"ha":872,"x_min":135,"x_max":807,"o":"m 135 1011 q 138 1026 135 1022 q 151 1031 142 1031 l 775 1031 q 789 1015 789 1031 l 789 944 q 771 928 789 928 l 286 928 q 272 924 275 928 q 268 911 268 921 l 268 586 q 283 571 268 571 l 643 571 q 658 556 658 571 l 658 482 q 643 469 658 469 l 283 469 q 268 454 268 469 l 268 117 q 271 106 268 108 q 282 103 274 103 l 792 103 q 803 100 800 103 q 807 89 807 97 l 807 15 q 792 0 807 0 l 154 0 q 139 4 143 0 q 135 19 135 8 l 135 1011 m 432 1193 q 427 1176 432 1181 q 410 1172 422 1172 l 336 1172 q 321 1176 325 1172 q 317 1190 317 1179 l 317 1307 q 320 1321 317 1317 q 332 1325 324 1325 l 417 1325 q 428 1322 425 1325 q 432 1308 432 1318 l 432 1193 m 636 1193 q 631 1176 636 1181 q 613 1172 626 1172 l 540 1172 q 524 1176 528 1172 q 519 1190 519 1179 l 519 1307 q 535 1325 519 1325 l 621 1325 q 633 1322 629 1325 q 636 1308 636 1318 l 636 1193 z "},"Ė":{"ha":872,"x_min":135,"x_max":807,"o":"m 135 1011 q 138 1026 135 1022 q 151 1031 142 1031 l 775 1031 q 789 1015 789 1031 l 789 944 q 771 928 789 928 l 286 928 q 272 924 275 928 q 268 911 268 921 l 268 586 q 283 571 268 571 l 643 571 q 658 556 658 571 l 658 482 q 643 469 658 469 l 283 469 q 268 454 268 469 l 268 117 q 271 106 268 108 q 282 103 274 103 l 792 103 q 803 100 800 103 q 807 89 807 97 l 807 15 q 792 0 807 0 l 154 0 q 139 4 143 0 q 135 19 135 8 l 135 1011 m 539 1185 q 533 1167 539 1172 q 514 1163 528 1163 l 433 1163 q 417 1167 421 1163 q 413 1182 413 1171 l 413 1306 q 416 1321 413 1317 q 429 1325 419 1325 l 524 1325 q 539 1307 539 1325 l 539 1185 z "},"Ẹ":{"ha":872,"x_min":135,"x_max":807,"o":"m 135 1011 q 138 1026 135 1022 q 151 1031 142 1031 l 775 1031 q 789 1015 789 1031 l 789 944 q 771 928 789 928 l 286 928 q 272 924 275 928 q 268 911 268 921 l 268 586 q 283 571 268 571 l 643 571 q 658 556 658 571 l 658 482 q 643 469 658 469 l 283 469 q 268 454 268 469 l 268 117 q 271 106 268 108 q 282 103 274 103 l 792 103 q 803 100 800 103 q 807 89 807 97 l 807 15 q 792 0 807 0 l 154 0 q 139 4 143 0 q 135 19 135 8 l 135 1011 m 538 -208 q 533 -225 538 -221 q 517 -229 529 -229 l 447 -229 q 433 -226 438 -229 q 429 -212 429 -222 l 429 -94 q 443 -78 429 -78 l 524 -78 q 535 -81 532 -78 q 538 -93 538 -85 l 538 -208 z "},"È":{"ha":872,"x_min":135,"x_max":807,"o":"m 135 1011 q 138 1026 135 1022 q 151 1031 142 1031 l 775 1031 q 789 1015 789 1031 l 789 944 q 771 928 789 928 l 286 928 q 272 924 275 928 q 268 911 268 921 l 268 586 q 283 571 268 571 l 643 571 q 658 556 658 571 l 658 482 q 643 469 658 469 l 283 469 q 268 454 268 469 l 268 117 q 271 106 268 108 q 282 103 274 103 l 792 103 q 803 100 800 103 q 807 89 807 97 l 807 15 q 792 0 807 0 l 154 0 q 139 4 143 0 q 135 19 135 8 l 135 1011 m 297 1331 q 303 1338 299 1336 q 313 1338 307 1340 l 635 1204 q 640 1185 646 1199 l 629 1154 q 622 1142 626 1144 q 607 1143 617 1140 l 290 1243 q 275 1267 268 1249 l 297 1331 z "},"Ȇ":{"ha":872,"x_min":135,"x_max":807,"o":"m 135 1011 q 138 1026 135 1022 q 151 1031 142 1031 l 775 1031 q 789 1015 789 1031 l 789 944 q 771 928 789 928 l 286 928 q 272 924 275 928 q 268 911 268 921 l 268 586 q 283 571 268 571 l 643 571 q 658 556 658 571 l 658 482 q 643 469 658 469 l 283 469 q 268 454 268 469 l 268 117 q 271 106 268 108 q 282 103 274 103 l 792 103 q 803 100 800 103 q 807 89 807 97 l 807 15 q 792 0 807 0 l 154 0 q 139 4 143 0 q 135 19 135 8 l 135 1011 m 603 1183 q 586 1194 593 1183 q 542 1239 571 1221 q 474 1257 513 1257 q 408 1240 432 1257 q 365 1196 383 1222 q 356 1186 360 1189 q 343 1183 351 1183 l 279 1183 q 271 1197 267 1183 q 341 1294 288 1256 q 474 1333 394 1333 q 609 1294 554 1333 q 681 1199 664 1254 q 682 1192 682 1196 q 668 1183 682 1183 l 603 1183 z "},"Ē":{"ha":872,"x_min":135,"x_max":807,"o":"m 135 1011 q 138 1026 135 1022 q 151 1031 142 1031 l 775 1031 q 789 1015 789 1031 l 789 944 q 771 928 789 928 l 286 928 q 272 924 275 928 q 268 911 268 921 l 268 586 q 283 571 268 571 l 643 571 q 658 556 658 571 l 658 482 q 643 469 658 469 l 283 469 q 268 454 268 469 l 268 117 q 271 106 268 108 q 282 103 274 103 l 792 103 q 803 100 800 103 q 807 89 807 97 l 807 15 q 792 0 807 0 l 154 0 q 139 4 143 0 q 135 19 135 8 l 135 1011 m 682 1238 q 661 1219 682 1219 l 286 1219 q 274 1224 278 1219 q 271 1236 271 1228 l 271 1290 q 274 1301 271 1297 q 282 1306 276 1306 l 671 1306 q 679 1301 676 1306 q 682 1292 682 1297 l 682 1238 z "},"Ę":{"ha":872,"x_min":135,"x_max":833,"o":"m 818 -151 q 828 -149 826 -149 q 833 -158 833 -149 l 833 -199 q 825 -214 833 -208 q 773 -231 807 -224 q 704 -237 739 -237 q 601 -208 636 -237 q 565 -125 565 -178 q 590 -54 565 -85 q 676 0 615 -24 l 154 0 q 139 4 143 0 q 135 19 135 8 l 135 1011 q 138 1026 135 1022 q 151 1031 142 1031 l 775 1031 q 789 1015 789 1031 l 789 944 q 771 928 789 928 l 286 928 q 272 924 275 928 q 268 911 268 921 l 268 586 q 283 571 268 571 l 643 571 q 658 556 658 571 l 658 482 q 643 469 658 469 l 283 469 q 268 454 268 469 l 268 117 q 271 106 268 108 q 282 103 274 103 l 792 103 q 803 100 800 103 q 807 89 807 97 l 807 15 q 792 0 807 0 q 692 -56 722 -29 q 663 -117 663 -83 q 679 -157 663 -144 q 732 -169 696 -169 q 781 -164 758 -169 q 818 -151 804 -158 z "},"Ẽ":{"ha":872,"x_min":135,"x_max":807,"o":"m 135 1011 q 138 1026 135 1022 q 151 1031 142 1031 l 775 1031 q 789 1015 789 1031 l 789 944 q 771 928 789 928 l 286 928 q 272 924 275 928 q 268 911 268 921 l 268 586 q 283 571 268 571 l 643 571 q 658 556 658 571 l 658 482 q 643 469 658 469 l 283 469 q 268 454 268 469 l 268 117 q 271 106 268 108 q 282 103 274 103 l 792 103 q 803 100 800 103 q 807 89 807 97 l 807 15 q 792 0 807 0 l 154 0 q 139 4 143 0 q 135 19 135 8 l 135 1011 m 672 1235 q 626 1213 650 1221 q 567 1204 601 1204 q 471 1224 526 1204 q 390 1240 421 1240 q 351 1234 367 1240 q 324 1221 336 1228 q 307 1211 311 1214 q 297 1207 300 1207 q 288 1218 292 1207 l 274 1256 q 272 1264 272 1258 q 279 1275 272 1269 q 329 1306 307 1296 q 385 1317 351 1317 q 429 1312 408 1317 q 481 1297 450 1307 q 525 1284 503 1290 q 568 1278 547 1278 q 608 1285 592 1278 q 647 1306 625 1292 q 658 1310 654 1310 q 669 1299 665 1310 l 683 1256 q 685 1249 685 1253 q 672 1235 685 1242 z "},"F":{"ha":835,"x_min":135,"x_max":776,"o":"m 135 1011 q 151 1031 135 1031 l 763 1031 q 776 1015 776 1031 l 776 944 q 758 928 776 928 l 286 928 q 272 924 275 928 q 268 911 268 921 l 268 569 q 283 554 268 554 l 654 554 q 669 540 669 554 l 669 467 q 666 457 669 460 q 654 454 663 454 l 283 454 q 268 439 268 454 l 268 18 q 249 0 268 0 l 154 0 q 139 4 143 0 q 135 19 135 8 l 135 1011 z "},"G":{"ha":1026,"x_min":90,"x_max":925,"o":"m 521 -14 q 292 49 389 -14 q 142 231 194 113 q 90 511 90 349 q 144 797 90 676 q 296 981 197 918 q 526 1044 394 1044 q 703 1006 621 1044 q 840 903 786 967 q 904 767 893 839 l 904 758 q 902 750 904 753 q 893 744 900 747 l 793 729 l 790 729 q 778 743 782 729 q 693 885 763 828 q 525 943 624 943 q 306 835 382 943 q 229 519 229 726 q 306 195 229 303 q 528 88 382 88 q 674 125 613 88 q 766 221 735 163 q 801 339 797 279 l 801 422 l 801 425 q 788 438 801 438 l 561 438 q 546 451 546 438 l 546 511 q 560 524 546 524 l 904 522 q 925 506 925 522 l 925 18 q 908 0 925 0 l 876 0 q 860 3 865 0 q 851 17 854 6 l 836 146 q 831 151 835 151 q 824 144 828 151 q 705 30 779 74 q 521 -14 631 -14 z "},"Ǵ":{"ha":1026,"x_min":90,"x_max":925,"o":"m 521 -14 q 292 49 389 -14 q 142 231 194 113 q 90 511 90 349 q 144 797 90 676 q 296 981 197 918 q 526 1044 394 1044 q 703 1006 621 1044 q 840 903 786 967 q 904 767 893 839 l 904 758 q 902 750 904 753 q 893 744 900 747 l 793 729 l 790 729 q 778 743 782 729 q 693 885 763 828 q 525 943 624 943 q 306 835 382 943 q 229 519 229 726 q 306 195 229 303 q 528 88 382 88 q 674 125 613 88 q 766 221 735 163 q 801 339 797 279 l 801 422 l 801 425 q 788 438 801 438 l 561 438 q 546 451 546 438 l 546 511 q 560 524 546 524 l 904 522 q 925 506 925 522 l 925 18 q 908 0 925 0 l 876 0 q 860 3 865 0 q 851 17 854 6 l 836 146 q 831 151 835 151 q 824 144 828 151 q 705 30 779 74 q 521 -14 631 -14 m 704 1267 q 706 1258 706 1264 q 690 1243 706 1247 l 372 1143 q 364 1142 369 1142 q 350 1154 354 1142 l 339 1185 q 338 1192 338 1188 q 346 1204 338 1203 l 667 1338 q 672 1339 668 1339 q 683 1331 681 1339 l 704 1267 z "},"Ğ":{"ha":1026,"x_min":90,"x_max":925,"o":"m 521 -14 q 292 49 389 -14 q 142 231 194 113 q 90 511 90 349 q 144 797 90 676 q 296 981 197 918 q 526 1044 394 1044 q 703 1006 621 1044 q 840 903 786 967 q 904 767 893 839 l 904 758 q 902 750 904 753 q 893 744 900 747 l 793 729 l 790 729 q 778 743 782 729 q 693 885 763 828 q 525 943 624 943 q 306 835 382 943 q 229 519 229 726 q 306 195 229 303 q 528 88 382 88 q 674 125 613 88 q 766 221 735 163 q 801 339 797 279 l 801 422 l 801 425 q 788 438 801 438 l 561 438 q 546 451 546 438 l 546 511 q 560 524 546 524 l 904 522 q 925 506 925 522 l 925 18 q 908 0 925 0 l 876 0 q 860 3 865 0 q 851 17 854 6 l 836 146 q 831 151 835 151 q 824 144 828 151 q 705 30 779 74 q 521 -14 631 -14 m 715 1325 q 728 1322 725 1325 q 728 1310 731 1318 q 656 1215 711 1254 q 521 1175 601 1175 q 388 1214 442 1175 q 318 1311 335 1253 l 318 1317 q 326 1325 318 1325 l 390 1325 q 403 1322 399 1325 q 413 1313 407 1319 q 455 1269 431 1286 q 521 1251 479 1251 q 589 1269 560 1251 q 633 1314 618 1288 q 650 1325 640 1325 l 715 1325 z "},"Ĝ":{"ha":1026,"x_min":90,"x_max":925,"o":"m 521 -14 q 292 49 389 -14 q 142 231 194 113 q 90 511 90 349 q 144 797 90 676 q 296 981 197 918 q 526 1044 394 1044 q 703 1006 621 1044 q 840 903 786 967 q 904 767 893 839 l 904 758 q 902 750 904 753 q 893 744 900 747 l 793 729 l 790 729 q 778 743 782 729 q 693 885 763 828 q 525 943 624 943 q 306 835 382 943 q 229 519 229 726 q 306 195 229 303 q 528 88 382 88 q 674 125 613 88 q 766 221 735 163 q 801 339 797 279 l 801 422 l 801 425 q 788 438 801 438 l 561 438 q 546 451 546 438 l 546 511 q 560 524 546 524 l 904 522 q 925 506 925 522 l 925 18 q 908 0 925 0 l 876 0 q 860 3 865 0 q 851 17 854 6 l 836 146 q 831 151 835 151 q 824 144 828 151 q 705 30 779 74 q 521 -14 631 -14 m 538 1249 q 530 1256 535 1251 q 522 1261 525 1261 q 506 1249 518 1261 l 425 1179 q 413 1172 418 1174 q 400 1171 408 1171 l 325 1171 q 315 1176 315 1171 q 322 1188 315 1181 l 464 1314 q 499 1329 479 1329 l 553 1329 q 569 1325 563 1329 q 581 1317 575 1321 l 721 1188 q 729 1175 729 1179 q 719 1171 729 1171 l 638 1171 q 613 1179 622 1171 l 538 1249 z "},"Ģ":{"ha":1026,"x_min":90,"x_max":925,"o":"m 521 -14 q 292 49 389 -14 q 142 231 194 113 q 90 511 90 349 q 144 797 90 676 q 296 981 197 918 q 526 1044 394 1044 q 703 1006 621 1044 q 840 903 786 967 q 904 767 893 839 l 904 758 q 902 750 904 753 q 893 744 900 747 l 793 729 l 790 729 q 778 743 782 729 q 693 885 763 828 q 525 943 624 943 q 306 835 382 943 q 229 519 229 726 q 306 195 229 303 q 528 88 382 88 q 674 125 613 88 q 766 221 735 163 q 801 339 797 279 l 801 422 l 801 425 q 788 438 801 438 l 561 438 q 546 451 546 438 l 546 511 q 560 524 546 524 l 904 522 q 925 506 925 522 l 925 18 q 908 0 925 0 l 876 0 q 860 3 865 0 q 851 17 854 6 l 836 146 q 831 151 835 151 q 824 144 828 151 q 705 30 779 74 q 521 -14 631 -14 m 483 -332 q 474 -327 476 -332 q 475 -315 472 -322 l 513 -244 q 515 -233 515 -240 q 506 -224 515 -224 l 493 -224 q 480 -220 483 -224 q 476 -207 476 -217 l 476 -117 q 490 -101 476 -101 l 572 -101 q 585 -114 585 -101 l 585 -224 q 583 -231 585 -228 q 582 -235 582 -233 l 531 -321 q 519 -330 525 -328 q 504 -332 514 -332 l 483 -332 z "},"Ġ":{"ha":1026,"x_min":90,"x_max":925,"o":"m 521 -14 q 292 49 389 -14 q 142 231 194 113 q 90 511 90 349 q 144 797 90 676 q 296 981 197 918 q 526 1044 394 1044 q 703 1006 621 1044 q 840 903 786 967 q 904 767 893 839 l 904 758 q 902 750 904 753 q 893 744 900 747 l 793 729 l 790 729 q 778 743 782 729 q 693 885 763 828 q 525 943 624 943 q 306 835 382 943 q 229 519 229 726 q 306 195 229 303 q 528 88 382 88 q 674 125 613 88 q 766 221 735 163 q 801 339 797 279 l 801 422 l 801 425 q 788 438 801 438 l 561 438 q 546 451 546 438 l 546 511 q 560 524 546 524 l 904 522 q 925 506 925 522 l 925 18 q 908 0 925 0 l 876 0 q 860 3 865 0 q 851 17 854 6 l 836 146 q 831 151 835 151 q 824 144 828 151 q 705 30 779 74 q 521 -14 631 -14 m 585 1185 q 579 1167 585 1172 q 560 1163 574 1163 l 479 1163 q 463 1167 467 1163 q 458 1182 458 1171 l 458 1306 q 462 1321 458 1317 q 475 1325 465 1325 l 569 1325 q 585 1307 585 1325 l 585 1185 z "},"H":{"ha":1021,"x_min":135,"x_max":886,"o":"m 279 482 q 271 478 274 482 q 268 471 268 475 l 268 21 q 263 5 268 10 q 244 0 257 0 l 154 0 q 139 4 143 0 q 135 19 135 8 l 135 1011 q 151 1031 135 1031 l 251 1031 q 268 1013 268 1031 l 268 604 q 272 591 268 594 q 283 588 275 588 l 739 588 q 753 604 753 588 l 753 1014 q 768 1031 753 1031 l 869 1031 q 883 1026 879 1031 q 886 1011 886 1022 l 886 19 q 867 0 886 0 l 776 0 q 758 5 764 0 q 753 21 753 10 l 753 469 q 740 482 753 482 l 279 482 z "},"Ħ":{"ha":1017,"x_min":6,"x_max":1013,"o":"m 999 874 q 1013 858 1013 874 l 1013 814 q 988 794 1013 794 l 894 794 l 894 19 q 875 0 894 0 l 785 0 q 767 5 772 0 q 761 21 761 10 l 761 469 q 749 482 761 482 l 288 482 q 279 478 282 482 q 276 471 276 475 l 276 21 q 271 5 276 10 q 253 0 265 0 l 163 0 q 147 4 151 0 q 143 19 143 8 l 143 794 l 24 794 q 9 799 13 794 q 6 813 6 803 l 6 857 q 18 874 6 874 l 143 874 l 143 1011 q 160 1031 143 1031 l 260 1031 q 276 1013 276 1031 l 276 874 l 761 874 l 761 1014 q 776 1031 761 1031 l 878 1031 q 891 1026 888 1031 q 894 1011 894 1022 l 894 874 l 999 874 m 761 794 l 276 794 l 276 604 q 280 591 276 594 q 292 588 283 588 l 747 588 q 761 604 761 588 l 761 794 z "},"Ĥ":{"ha":1021,"x_min":135,"x_max":886,"o":"m 279 482 q 271 478 274 482 q 268 471 268 475 l 268 21 q 263 5 268 10 q 244 0 257 0 l 154 0 q 139 4 143 0 q 135 19 135 8 l 135 1011 q 151 1031 135 1031 l 251 1031 q 268 1013 268 1031 l 268 604 q 272 591 268 594 q 283 588 275 588 l 739 588 q 753 604 753 588 l 753 1014 q 768 1031 753 1031 l 869 1031 q 883 1026 879 1031 q 886 1011 886 1022 l 886 19 q 867 0 886 0 l 776 0 q 758 5 764 0 q 753 21 753 10 l 753 469 q 740 482 753 482 l 279 482 m 526 1249 q 519 1256 524 1251 q 511 1261 514 1261 q 494 1249 507 1261 l 414 1179 q 402 1172 407 1174 q 389 1171 397 1171 l 314 1171 q 304 1176 304 1171 q 311 1188 304 1181 l 453 1314 q 488 1329 468 1329 l 542 1329 q 558 1325 551 1329 q 569 1317 564 1321 l 710 1188 q 718 1175 718 1179 q 708 1171 718 1171 l 626 1171 q 601 1179 611 1171 l 526 1249 z "},"Ḥ":{"ha":1021,"x_min":135,"x_max":886,"o":"m 279 482 q 271 478 274 482 q 268 471 268 475 l 268 21 q 263 5 268 10 q 244 0 257 0 l 154 0 q 139 4 143 0 q 135 19 135 8 l 135 1011 q 151 1031 135 1031 l 251 1031 q 268 1013 268 1031 l 268 604 q 272 591 268 594 q 283 588 275 588 l 739 588 q 753 604 753 588 l 753 1014 q 768 1031 753 1031 l 869 1031 q 883 1026 879 1031 q 886 1011 886 1022 l 886 19 q 867 0 886 0 l 776 0 q 758 5 764 0 q 753 21 753 10 l 753 469 q 740 482 753 482 l 279 482 m 564 -208 q 560 -225 564 -221 q 543 -229 556 -229 l 474 -229 q 460 -226 464 -229 q 456 -212 456 -222 l 456 -94 q 469 -78 456 -78 l 550 -78 q 561 -81 558 -78 q 564 -93 564 -85 l 564 -208 z "},"I":{"ha":403,"x_min":135,"x_max":268,"o":"m 251 1031 q 268 1013 268 1031 l 268 24 q 263 5 268 10 q 243 0 257 0 l 156 0 q 139 4 143 0 q 135 19 135 8 l 135 1011 q 151 1031 135 1031 l 251 1031 z "},"Ĳ":{"ha":983,"x_min":135,"x_max":854,"o":"m 251 1031 q 268 1013 268 1031 l 268 24 q 263 5 268 10 q 243 0 257 0 l 156 0 q 139 4 143 0 q 135 19 135 8 l 135 1011 q 151 1031 135 1031 l 251 1031 m 854 226 q 801 46 854 106 q 632 -14 747 -14 q 526 0 569 -14 q 476 15 482 14 q 461 42 457 22 l 474 117 q 490 129 476 133 q 515 119 497 126 q 556 106 533 111 q 604 101 578 101 q 694 135 668 101 q 721 257 721 169 l 721 1013 q 738 1031 721 1031 l 839 1031 q 854 1013 854 1031 l 854 226 z "},"Í":{"ha":403,"x_min":19,"x_max":388,"o":"m 251 1031 q 268 1013 268 1031 l 268 24 q 263 5 268 10 q 243 0 257 0 l 156 0 q 139 4 143 0 q 135 19 135 8 l 135 1011 q 151 1031 135 1031 l 251 1031 m 386 1267 q 388 1258 388 1264 q 372 1243 388 1247 l 54 1143 q 46 1142 51 1142 q 32 1154 36 1142 l 21 1185 q 19 1192 19 1188 q 28 1204 19 1203 l 349 1338 q 354 1339 350 1339 q 365 1331 363 1339 l 386 1267 z "},"Ĭ":{"ha":403,"x_min":0,"x_max":411,"o":"m 251 1031 q 268 1013 268 1031 l 268 24 q 263 5 268 10 q 243 0 257 0 l 156 0 q 139 4 143 0 q 135 19 135 8 l 135 1011 q 151 1031 135 1031 l 251 1031 m 397 1325 q 410 1322 407 1325 q 410 1310 413 1318 q 338 1215 393 1254 q 203 1175 283 1175 q 70 1214 124 1175 q 0 1311 17 1253 l 0 1317 q 8 1325 0 1325 l 72 1325 q 85 1322 81 1325 q 94 1313 89 1319 q 137 1269 113 1286 q 203 1251 161 1251 q 271 1269 242 1251 q 315 1314 300 1288 q 332 1325 322 1325 l 397 1325 z "},"Î":{"ha":403,"x_min":-3,"x_max":411,"o":"m 251 1031 q 268 1013 268 1031 l 268 24 q 263 5 268 10 q 243 0 257 0 l 156 0 q 139 4 143 0 q 135 19 135 8 l 135 1011 q 151 1031 135 1031 l 251 1031 m 219 1249 q 212 1256 217 1251 q 204 1261 207 1261 q 188 1249 200 1261 l 107 1179 q 95 1172 100 1174 q 82 1171 90 1171 l 7 1171 q -3 1176 -3 1171 q 4 1188 -3 1181 l 146 1314 q 181 1329 161 1329 l 235 1329 q 251 1325 244 1329 q 263 1317 257 1321 l 403 1188 q 411 1175 411 1179 q 401 1171 411 1171 l 319 1171 q 294 1179 304 1171 l 219 1249 z "},"Ȉ":{"ha":403,"x_min":-87,"x_max":378,"o":"m 251 1031 q 268 1013 268 1031 l 268 24 q 263 5 268 10 q 243 0 257 0 l 156 0 q 139 4 143 0 q 135 19 135 8 l 135 1011 q 151 1031 135 1031 l 251 1031 m -40 1335 q -22 1335 -32 1344 l 150 1151 q 153 1143 153 1149 q 149 1132 153 1139 l 126 1106 q 117 1099 119 1099 q 103 1104 114 1099 l -78 1256 q -87 1271 -87 1264 q -82 1283 -87 1275 l -40 1335 m 185 1335 q 193 1339 188 1339 q 203 1335 199 1339 l 374 1151 q 378 1143 378 1150 q 372 1132 378 1138 l 351 1106 q 340 1099 344 1099 q 326 1104 338 1099 l 147 1256 q 136 1271 136 1264 q 143 1283 136 1276 l 185 1335 z "},"Ï":{"ha":403,"x_min":44,"x_max":364,"o":"m 251 1031 q 268 1013 268 1031 l 268 24 q 263 5 268 10 q 243 0 257 0 l 156 0 q 139 4 143 0 q 135 19 135 8 l 135 1011 q 151 1031 135 1031 l 251 1031 m 160 1193 q 155 1176 160 1181 q 138 1172 150 1172 l 64 1172 q 49 1176 53 1172 q 44 1190 44 1179 l 44 1307 q 48 1321 44 1317 q 60 1325 51 1325 l 144 1325 q 156 1322 153 1325 q 160 1308 160 1318 l 160 1193 m 364 1193 q 359 1176 364 1181 q 340 1172 354 1172 l 268 1172 q 251 1176 256 1172 q 247 1190 247 1179 l 247 1307 q 263 1325 247 1325 l 349 1325 q 360 1322 357 1325 q 364 1308 364 1318 l 364 1193 z "},"İ":{"ha":403,"x_min":135,"x_max":268,"o":"m 251 1031 q 268 1013 268 1031 l 268 24 q 263 5 268 10 q 243 0 257 0 l 156 0 q 139 4 143 0 q 135 19 135 8 l 135 1011 q 151 1031 135 1031 l 251 1031 m 267 1185 q 261 1167 267 1172 q 242 1163 256 1163 l 161 1163 q 144 1167 149 1163 q 140 1182 140 1171 l 140 1306 q 144 1321 140 1317 q 157 1325 147 1325 l 251 1325 q 267 1307 267 1325 l 267 1185 z "},"Ị":{"ha":403,"x_min":135,"x_max":268,"o":"m 251 1031 q 268 1013 268 1031 l 268 24 q 263 5 268 10 q 243 0 257 0 l 156 0 q 139 4 143 0 q 135 19 135 8 l 135 1011 q 151 1031 135 1031 l 251 1031 m 256 -208 q 251 -225 256 -221 q 235 -229 247 -229 l 165 -229 q 151 -226 156 -229 q 147 -212 147 -222 l 147 -94 q 161 -78 147 -78 l 242 -78 q 253 -81 250 -78 q 256 -93 256 -85 l 256 -208 z "},"Ì":{"ha":403,"x_min":1,"x_max":369,"o":"m 251 1031 q 268 1013 268 1031 l 268 24 q 263 5 268 10 q 243 0 257 0 l 156 0 q 139 4 143 0 q 135 19 135 8 l 135 1011 q 151 1031 135 1031 l 251 1031 m 25 1331 q 31 1338 26 1336 q 40 1338 35 1340 l 363 1204 q 368 1185 374 1199 l 357 1154 q 349 1142 354 1144 q 335 1143 344 1140 l 18 1243 q 3 1267 -4 1249 l 25 1331 z "},"Ȋ":{"ha":403,"x_min":-1,"x_max":410,"o":"m 251 1031 q 268 1013 268 1031 l 268 24 q 263 5 268 10 q 243 0 257 0 l 156 0 q 139 4 143 0 q 135 19 135 8 l 135 1011 q 151 1031 135 1031 l 251 1031 m 331 1183 q 314 1194 321 1183 q 269 1239 299 1221 q 201 1257 240 1257 q 135 1240 160 1257 q 93 1196 111 1222 q 83 1186 88 1189 q 71 1183 79 1183 l 7 1183 q -1 1197 -6 1183 q 69 1294 15 1256 q 201 1333 122 1333 q 337 1294 282 1333 q 408 1199 392 1254 q 410 1192 410 1196 q 396 1183 410 1183 l 331 1183 z "},"Ī":{"ha":403,"x_min":-1,"x_max":410,"o":"m 251 1031 q 268 1013 268 1031 l 268 24 q 263 5 268 10 q 243 0 257 0 l 156 0 q 139 4 143 0 q 135 19 135 8 l 135 1011 q 151 1031 135 1031 l 251 1031 m 410 1238 q 389 1219 410 1219 l 14 1219 q 2 1224 6 1219 q -1 1236 -1 1228 l -1 1290 q 1 1301 -1 1297 q 10 1306 4 1306 l 399 1306 q 407 1301 404 1306 q 410 1292 410 1297 l 410 1238 z "},"Į":{"ha":403,"x_min":26,"x_max":294,"o":"m 279 -151 q 289 -149 288 -149 q 294 -158 294 -149 l 294 -199 q 286 -214 294 -208 q 234 -231 268 -224 q 165 -237 200 -237 q 62 -208 97 -237 q 26 -125 26 -178 q 53 -53 26 -85 q 143 1 79 -22 q 135 19 135 4 l 135 1011 q 151 1031 135 1031 l 251 1031 q 268 1013 268 1031 l 268 24 q 260 3 268 7 q 258 1 258 3 q 155 -55 186 -28 q 124 -117 124 -82 q 140 -157 124 -144 q 193 -169 157 -169 q 242 -164 219 -169 q 279 -151 265 -158 z "},"Ĩ":{"ha":403,"x_min":0,"x_max":413,"o":"m 251 1031 q 268 1013 268 1031 l 268 24 q 263 5 268 10 q 243 0 257 0 l 156 0 q 139 4 143 0 q 135 19 135 8 l 135 1011 q 151 1031 135 1031 l 251 1031 m 400 1235 q 353 1213 378 1221 q 294 1204 329 1204 q 199 1224 254 1204 q 118 1240 149 1240 q 79 1234 94 1240 q 51 1221 64 1228 q 35 1211 39 1214 q 25 1207 28 1207 q 15 1218 19 1207 l 1 1256 q 0 1264 0 1258 q 7 1275 0 1269 q 57 1306 35 1296 q 113 1317 79 1317 q 157 1312 136 1317 q 208 1297 178 1307 q 253 1284 231 1290 q 296 1278 275 1278 q 336 1285 319 1278 q 375 1306 353 1292 q 386 1310 382 1310 q 397 1299 393 1310 l 411 1256 q 413 1249 413 1253 q 400 1235 413 1242 z "},"J":{"ha":581,"x_min":54,"x_max":451,"o":"m 451 226 q 398 46 451 106 q 229 -14 344 -14 q 123 0 167 -14 q 74 15 79 14 q 58 42 54 22 l 71 117 q 88 129 74 133 q 113 119 94 126 q 153 106 131 111 q 201 101 175 101 q 292 135 265 101 q 318 257 318 169 l 318 1013 q 335 1031 318 1031 l 436 1031 q 451 1013 451 1031 l 451 226 z "},"Ĵ":{"ha":581,"x_min":57,"x_max":568,"o":"m 451 226 q 398 46 451 106 q 229 -14 344 -14 q 123 0 167 -14 q 74 15 79 14 q 58 42 54 22 l 71 117 q 88 129 74 133 q 113 119 94 126 q 153 106 131 111 q 201 101 175 101 q 292 135 265 101 q 318 257 318 169 l 318 1013 q 335 1031 318 1031 l 436 1031 q 451 1013 451 1031 l 451 226 m 376 1249 q 369 1256 374 1251 q 361 1261 364 1261 q 344 1249 357 1261 l 264 1179 q 252 1172 257 1174 q 239 1171 247 1171 l 164 1171 q 154 1176 154 1171 q 161 1188 154 1181 l 303 1314 q 338 1329 318 1329 l 392 1329 q 408 1325 401 1329 q 419 1317 414 1321 l 560 1188 q 568 1175 568 1179 q 558 1171 568 1171 l 476 1171 q 451 1179 461 1171 l 376 1249 z "},"K":{"ha":974,"x_min":135,"x_max":915,"o":"m 913 19 q 915 10 915 11 q 904 0 915 0 l 790 0 q 765 13 772 0 l 458 525 q 450 532 456 532 q 438 524 446 532 l 278 342 q 268 317 268 332 l 268 21 q 263 5 268 10 q 244 0 257 0 l 156 0 q 135 18 135 0 l 135 1014 q 150 1031 135 1031 l 253 1031 q 268 1014 268 1031 l 268 504 q 272 494 268 494 q 281 501 274 494 l 736 1018 q 747 1028 742 1025 q 764 1031 753 1031 l 860 1031 q 874 1024 871 1031 q 871 1011 878 1018 l 547 650 q 544 641 544 644 q 547 632 544 638 l 913 19 z "},"Ķ":{"ha":974,"x_min":135,"x_max":915,"o":"m 913 19 q 915 10 915 11 q 904 0 915 0 l 790 0 q 765 13 772 0 l 458 525 q 450 532 456 532 q 438 524 446 532 l 278 342 q 268 317 268 332 l 268 21 q 263 5 268 10 q 244 0 257 0 l 156 0 q 135 18 135 0 l 135 1014 q 150 1031 135 1031 l 253 1031 q 268 1014 268 1031 l 268 504 q 272 494 268 494 q 281 501 274 494 l 736 1018 q 747 1028 742 1025 q 764 1031 753 1031 l 860 1031 q 874 1024 871 1031 q 871 1011 878 1018 l 547 650 q 544 641 544 644 q 547 632 544 638 l 913 19 m 443 -332 q 434 -327 436 -332 q 435 -315 432 -322 l 472 -244 q 475 -233 475 -240 q 465 -224 475 -224 l 453 -224 q 440 -220 443 -224 q 436 -207 436 -217 l 436 -117 q 450 -101 436 -101 l 532 -101 q 544 -114 544 -101 l 544 -224 q 543 -231 544 -228 q 542 -235 542 -233 l 490 -321 q 479 -330 485 -328 q 464 -332 474 -332 l 443 -332 z "},"L":{"ha":836,"x_min":135,"x_max":779,"o":"m 135 1011 q 151 1031 135 1031 l 251 1031 q 268 1013 268 1031 l 268 117 q 271 106 268 108 q 282 103 274 103 l 763 103 q 775 100 771 103 q 779 89 779 97 l 779 15 q 763 0 779 0 l 154 0 q 139 4 143 0 q 135 19 135 8 l 135 1011 z "},"Ǉ":{"ha":1417,"x_min":135,"x_max":1288,"o":"m 135 1011 q 151 1031 135 1031 l 251 1031 q 268 1013 268 1031 l 268 117 q 271 106 268 108 q 282 103 274 103 l 763 103 q 775 100 771 103 q 779 89 779 97 l 779 15 q 763 0 779 0 l 154 0 q 139 4 143 0 q 135 19 135 8 l 135 1011 m 1288 226 q 1234 46 1288 106 q 1065 -14 1181 -14 q 959 0 1003 -14 q 910 15 915 14 q 894 42 890 22 l 907 117 q 924 129 910 133 q 949 119 931 126 q 989 106 967 111 q 1038 101 1011 101 q 1128 135 1101 101 q 1154 257 1154 169 l 1154 1013 q 1171 1031 1154 1031 l 1272 1031 q 1288 1013 1288 1031 l 1288 226 z "},"Ĺ":{"ha":836,"x_min":17,"x_max":779,"o":"m 135 1011 q 151 1031 135 1031 l 251 1031 q 268 1013 268 1031 l 268 117 q 271 106 268 108 q 282 103 274 103 l 763 103 q 775 100 771 103 q 779 89 779 97 l 779 15 q 763 0 779 0 l 154 0 q 139 4 143 0 q 135 19 135 8 l 135 1011 m 383 1267 q 385 1258 385 1264 q 369 1243 385 1247 l 51 1143 q 43 1142 49 1142 q 29 1154 33 1142 l 18 1185 q 17 1192 17 1188 q 25 1204 17 1203 l 346 1338 q 351 1339 347 1339 q 363 1331 360 1339 l 383 1267 z "},"Ľ":{"ha":836,"x_min":135,"x_max":779,"o":"m 135 1011 q 151 1031 135 1031 l 251 1031 q 268 1013 268 1031 l 268 117 q 271 106 268 108 q 282 103 274 103 l 763 103 q 775 100 771 103 q 779 89 779 97 l 779 15 q 763 0 779 0 l 154 0 q 139 4 143 0 q 135 19 135 8 l 135 1011 m 564 760 q 556 765 558 760 q 554 774 553 769 l 596 874 q 598 885 599 882 q 590 890 597 889 l 581 892 q 569 896 572 893 q 567 907 567 899 l 567 1018 q 578 1031 567 1031 l 658 1031 q 668 1019 668 1031 l 668 892 q 665 885 668 888 l 618 774 q 610 763 615 767 q 593 760 604 760 l 564 760 z "},"Ļ":{"ha":836,"x_min":135,"x_max":779,"o":"m 135 1011 q 151 1031 135 1031 l 251 1031 q 268 1013 268 1031 l 268 117 q 271 106 268 108 q 282 103 274 103 l 763 103 q 775 100 771 103 q 779 89 779 97 l 779 15 q 763 0 779 0 l 154 0 q 139 4 143 0 q 135 19 135 8 l 135 1011 m 392 -332 q 383 -327 385 -332 q 383 -315 381 -322 l 421 -244 q 424 -233 424 -240 q 414 -224 424 -224 l 401 -224 q 388 -220 392 -224 q 385 -207 385 -217 l 385 -117 q 399 -101 385 -101 l 481 -101 q 493 -114 493 -101 l 493 -224 q 492 -231 493 -228 q 490 -235 490 -233 l 439 -321 q 428 -330 433 -328 q 413 -332 422 -332 l 392 -332 z "},"Ŀ":{"ha":856,"x_min":135,"x_max":779,"o":"m 135 1011 q 151 1031 135 1031 l 251 1031 q 268 1013 268 1031 l 268 117 q 271 106 268 108 q 282 103 274 103 l 763 103 q 775 100 771 103 q 779 89 779 97 l 779 15 q 763 0 779 0 l 154 0 q 139 4 143 0 q 135 19 135 8 l 135 1011 m 719 506 q 715 490 719 494 q 696 485 710 485 l 586 485 q 571 489 575 485 q 567 504 567 493 l 567 617 q 579 633 567 633 l 707 633 q 717 630 714 633 q 719 618 719 626 l 719 506 z "},"ǈ":{"ha":1168,"x_min":135,"x_max":1065,"o":"m 135 1011 q 151 1031 135 1031 l 251 1031 q 268 1013 268 1031 l 268 117 q 271 106 268 108 q 282 103 274 103 l 763 103 q 775 100 771 103 q 779 89 779 97 l 779 15 q 763 0 779 0 l 154 0 q 139 4 143 0 q 135 19 135 8 l 135 1011 m 1065 894 q 1042 868 1065 868 l 960 868 q 939 892 939 868 l 939 1008 q 944 1024 939 1018 q 958 1031 950 1031 l 1047 1031 q 1060 1025 1056 1031 q 1065 1010 1065 1019 l 1065 894 m 1061 -40 q 1017 -190 1061 -143 q 867 -236 974 -236 q 791 -233 807 -236 q 775 -218 775 -229 l 775 -157 q 789 -142 775 -142 l 860 -137 q 924 -112 904 -135 q 944 -32 944 -89 l 944 717 q 961 736 944 736 l 1046 736 q 1061 718 1061 736 l 1061 -40 z "},"Ł":{"ha":836,"x_min":29,"x_max":779,"o":"m 763 103 q 775 100 771 103 q 779 89 779 97 l 779 15 q 763 0 779 0 l 154 0 q 139 4 143 0 q 135 19 135 8 l 135 461 l 47 438 l 39 436 q 29 449 29 436 l 29 519 q 42 538 29 532 l 135 561 l 135 1011 q 151 1031 135 1031 l 251 1031 q 268 1013 268 1031 l 268 596 l 481 651 l 486 653 q 497 639 497 653 l 497 572 q 483 554 497 558 l 268 497 l 268 117 q 271 106 268 108 q 282 103 274 103 l 763 103 z "},"M":{"ha":1258,"x_min":135,"x_max":1124,"o":"m 154 0 q 135 21 135 0 l 135 1011 q 138 1026 135 1022 q 151 1031 142 1031 l 285 1031 q 301 1027 296 1031 q 308 1015 306 1024 l 617 219 q 626 207 621 207 q 639 221 633 207 l 947 1013 q 968 1031 951 1031 l 1108 1031 q 1124 1013 1124 1031 l 1124 21 q 1103 0 1124 0 l 1011 0 q 990 18 990 0 l 990 813 q 988 819 990 819 q 983 813 986 818 l 678 18 q 651 0 669 0 l 585 0 q 557 17 564 0 l 256 804 q 251 811 254 811 q 249 804 249 811 l 249 18 q 244 4 249 8 q 229 0 240 0 l 154 0 z "},"N":{"ha":1051,"x_min":135,"x_max":917,"o":"m 901 1031 q 913 1027 910 1031 q 917 1014 917 1024 l 917 17 q 899 0 917 0 l 831 0 q 813 2 819 0 q 801 11 807 4 l 265 790 q 255 799 260 800 q 250 789 250 797 l 250 18 q 231 0 250 0 l 153 0 q 135 18 135 0 l 135 1011 q 138 1026 135 1022 q 153 1031 142 1031 l 232 1031 q 249 1028 243 1031 q 261 1017 254 1025 l 782 254 q 794 246 789 246 q 803 258 803 246 l 803 1014 q 819 1031 803 1031 l 901 1031 z "},"Ǌ":{"ha":1632,"x_min":135,"x_max":1503,"o":"m 901 1031 q 913 1027 910 1031 q 917 1014 917 1024 l 917 17 q 899 0 917 0 l 831 0 q 813 2 819 0 q 801 11 807 4 l 265 790 q 255 799 260 800 q 250 789 250 797 l 250 18 q 231 0 250 0 l 153 0 q 135 18 135 0 l 135 1011 q 138 1026 135 1022 q 153 1031 142 1031 l 232 1031 q 249 1028 243 1031 q 261 1017 254 1025 l 782 254 q 794 246 789 246 q 803 258 803 246 l 803 1014 q 819 1031 803 1031 l 901 1031 m 1503 226 q 1449 46 1503 106 q 1281 -14 1396 -14 q 1174 0 1218 -14 q 1125 15 1131 14 q 1110 42 1106 22 l 1122 117 q 1139 129 1125 133 q 1164 119 1146 126 q 1204 106 1182 111 q 1253 101 1226 101 q 1343 135 1317 101 q 1369 257 1369 169 l 1369 1013 q 1386 1031 1369 1031 l 1488 1031 q 1503 1013 1503 1031 l 1503 226 z "},"Ń":{"ha":1051,"x_min":135,"x_max":917,"o":"m 901 1031 q 913 1027 910 1031 q 917 1014 917 1024 l 917 17 q 899 0 917 0 l 831 0 q 813 2 819 0 q 801 11 807 4 l 265 790 q 255 799 260 800 q 250 789 250 797 l 250 18 q 231 0 250 0 l 153 0 q 135 18 135 0 l 135 1011 q 138 1026 135 1022 q 153 1031 142 1031 l 232 1031 q 249 1028 243 1031 q 261 1017 254 1025 l 782 254 q 794 246 789 246 q 803 258 803 246 l 803 1014 q 819 1031 803 1031 l 901 1031 m 724 1267 q 725 1258 725 1264 q 710 1243 725 1247 l 392 1143 q 383 1142 389 1142 q 369 1154 374 1142 l 358 1185 q 357 1192 357 1188 q 365 1204 357 1203 l 686 1338 q 692 1339 688 1339 q 703 1331 700 1339 l 724 1267 z "},"Ň":{"ha":1051,"x_min":135,"x_max":917,"o":"m 901 1031 q 913 1027 910 1031 q 917 1014 917 1024 l 917 17 q 899 0 917 0 l 831 0 q 813 2 819 0 q 801 11 807 4 l 265 790 q 255 799 260 800 q 250 789 250 797 l 250 18 q 231 0 250 0 l 153 0 q 135 18 135 0 l 135 1011 q 138 1026 135 1022 q 153 1031 142 1031 l 232 1031 q 249 1028 243 1031 q 261 1017 254 1025 l 782 254 q 794 246 789 246 q 803 258 803 246 l 803 1014 q 819 1031 803 1031 l 901 1031 m 632 1315 q 657 1325 642 1325 l 739 1325 q 749 1321 749 1325 q 740 1308 749 1317 l 600 1179 q 588 1171 594 1175 q 572 1167 582 1167 l 518 1167 q 483 1181 500 1167 l 342 1308 q 335 1320 335 1315 q 344 1325 336 1325 l 419 1325 q 433 1324 429 1325 q 444 1315 438 1322 l 525 1247 q 542 1235 538 1235 q 549 1240 544 1235 q 557 1247 554 1244 l 632 1315 z "},"Ņ":{"ha":1051,"x_min":135,"x_max":917,"o":"m 901 1031 q 913 1027 910 1031 q 917 1014 917 1024 l 917 17 q 899 0 917 0 l 831 0 q 813 2 819 0 q 801 11 807 4 l 265 790 q 255 799 260 800 q 250 789 250 797 l 250 18 q 231 0 250 0 l 153 0 q 135 18 135 0 l 135 1011 q 138 1026 135 1022 q 153 1031 142 1031 l 232 1031 q 249 1028 243 1031 q 261 1017 254 1025 l 782 254 q 794 246 789 246 q 803 258 803 246 l 803 1014 q 819 1031 803 1031 l 901 1031 m 463 -332 q 453 -327 456 -332 q 454 -315 451 -322 l 492 -244 q 494 -233 494 -240 q 485 -224 494 -224 l 472 -224 q 459 -220 463 -224 q 456 -207 456 -217 l 456 -117 q 469 -101 456 -101 l 551 -101 q 564 -114 564 -101 l 564 -224 q 563 -231 564 -228 q 561 -235 561 -233 l 510 -321 q 499 -330 504 -328 q 483 -332 493 -332 l 463 -332 z "},"Ṅ":{"ha":1051,"x_min":135,"x_max":917,"o":"m 901 1031 q 913 1027 910 1031 q 917 1014 917 1024 l 917 17 q 899 0 917 0 l 831 0 q 813 2 819 0 q 801 11 807 4 l 265 790 q 255 799 260 800 q 250 789 250 797 l 250 18 q 231 0 250 0 l 153 0 q 135 18 135 0 l 135 1011 q 138 1026 135 1022 q 153 1031 142 1031 l 232 1031 q 249 1028 243 1031 q 261 1017 254 1025 l 782 254 q 794 246 789 246 q 803 258 803 246 l 803 1014 q 819 1031 803 1031 l 901 1031 m 604 1185 q 599 1167 604 1172 q 579 1163 593 1163 l 499 1163 q 482 1167 486 1163 q 478 1182 478 1171 l 478 1306 q 481 1321 478 1317 q 494 1325 485 1325 l 589 1325 q 604 1307 604 1325 l 604 1185 z "},"Ŋ":{"ha":1051,"x_min":135,"x_max":917,"o":"m 901 1031 q 913 1027 910 1031 q 917 1014 917 1024 l 917 -28 q 865 -189 917 -135 q 700 -243 813 -243 q 568 -224 626 -243 q 553 -197 551 -217 l 558 -129 q 576 -117 560 -112 q 669 -132 625 -132 q 755 -103 726 -132 q 785 -8 783 -75 l 785 49 l 263 793 q 250 792 250 810 l 250 18 q 231 0 250 0 l 153 0 q 135 18 135 0 l 135 1011 q 138 1026 135 1022 q 153 1031 142 1031 l 236 1031 q 251 1028 246 1031 q 263 1017 257 1025 l 783 269 q 794 261 790 261 q 803 274 803 261 l 803 1014 q 819 1031 803 1031 l 901 1031 z "},"ǋ":{"ha":1383,"x_min":135,"x_max":1281,"o":"m 901 1031 q 913 1027 910 1031 q 917 1014 917 1024 l 917 17 q 899 0 917 0 l 831 0 q 813 2 819 0 q 801 11 807 4 l 265 790 q 255 799 260 800 q 250 789 250 797 l 250 18 q 231 0 250 0 l 153 0 q 135 18 135 0 l 135 1011 q 138 1026 135 1022 q 153 1031 142 1031 l 232 1031 q 249 1028 243 1031 q 261 1017 254 1025 l 782 254 q 794 246 789 246 q 803 258 803 246 l 803 1014 q 819 1031 803 1031 l 901 1031 m 1281 894 q 1257 868 1281 868 l 1175 868 q 1154 892 1154 868 l 1154 1008 q 1160 1024 1154 1018 q 1174 1031 1165 1031 l 1263 1031 q 1276 1025 1271 1031 q 1281 1010 1281 1019 l 1281 894 m 1276 -40 q 1233 -190 1276 -143 q 1082 -236 1189 -236 q 1006 -233 1022 -236 q 990 -218 990 -229 l 990 -157 q 1004 -142 990 -142 l 1075 -137 q 1140 -112 1119 -135 q 1160 -32 1160 -89 l 1160 717 q 1176 736 1160 736 l 1261 736 q 1276 718 1276 736 l 1276 -40 z "},"Ñ":{"ha":1051,"x_min":135,"x_max":917,"o":"m 901 1031 q 913 1027 910 1031 q 917 1014 917 1024 l 917 17 q 899 0 917 0 l 831 0 q 813 2 819 0 q 801 11 807 4 l 265 790 q 255 799 260 800 q 250 789 250 797 l 250 18 q 231 0 250 0 l 153 0 q 135 18 135 0 l 135 1011 q 138 1026 135 1022 q 153 1031 142 1031 l 232 1031 q 249 1028 243 1031 q 261 1017 254 1025 l 782 254 q 794 246 789 246 q 803 258 803 246 l 803 1014 q 819 1031 803 1031 l 901 1031 m 738 1235 q 691 1213 715 1221 q 632 1204 667 1204 q 536 1224 592 1204 q 456 1240 486 1240 q 417 1234 432 1240 q 389 1221 401 1228 q 372 1211 376 1214 q 363 1207 365 1207 q 353 1218 357 1207 l 339 1256 q 338 1264 338 1258 q 344 1275 338 1269 q 394 1306 372 1296 q 450 1317 417 1317 q 494 1312 474 1317 q 546 1297 515 1307 q 590 1284 568 1290 q 633 1278 613 1278 q 674 1285 657 1278 q 713 1306 690 1292 q 724 1310 719 1310 q 735 1299 731 1310 l 749 1256 q 750 1249 750 1253 q 738 1235 750 1242 z "},"O":{"ha":1061,"x_min":90,"x_max":971,"o":"m 531 -14 q 295 47 394 -14 q 143 226 196 108 q 90 511 90 344 q 144 799 90 679 q 297 982 197 919 q 532 1044 396 1044 q 766 982 667 1044 q 918 800 865 919 q 971 513 971 681 q 918 228 971 346 q 766 48 865 110 q 531 -14 667 -14 m 533 88 q 758 192 683 88 q 832 511 832 296 q 756 837 832 731 q 532 943 681 943 q 305 836 381 943 q 229 511 229 729 q 305 192 229 296 q 533 88 381 88 z "},"Ó":{"ha":1061,"x_min":90,"x_max":971,"o":"m 531 -14 q 295 47 394 -14 q 143 226 196 108 q 90 511 90 344 q 144 799 90 679 q 297 982 197 919 q 532 1044 396 1044 q 766 982 667 1044 q 918 800 865 919 q 971 513 971 681 q 918 228 971 346 q 766 48 865 110 q 531 -14 667 -14 m 533 88 q 758 192 683 88 q 832 511 832 296 q 756 837 832 731 q 532 943 681 943 q 305 836 381 943 q 229 511 229 729 q 305 192 229 296 q 533 88 381 88 m 714 1267 q 715 1258 715 1264 q 700 1243 715 1247 l 382 1143 q 374 1142 379 1142 q 360 1154 364 1142 l 349 1185 q 347 1192 347 1188 q 356 1204 347 1203 l 676 1338 q 682 1339 678 1339 q 693 1331 690 1339 l 714 1267 z "},"Ŏ":{"ha":1061,"x_min":90,"x_max":971,"o":"m 531 -14 q 295 47 394 -14 q 143 226 196 108 q 90 511 90 344 q 144 799 90 679 q 297 982 197 919 q 532 1044 396 1044 q 766 982 667 1044 q 918 800 865 919 q 971 513 971 681 q 918 228 971 346 q 766 48 865 110 q 531 -14 667 -14 m 533 88 q 758 192 683 88 q 832 511 832 296 q 756 837 832 731 q 532 943 681 943 q 305 836 381 943 q 229 511 229 729 q 305 192 229 296 q 533 88 381 88 m 725 1325 q 738 1322 735 1325 q 738 1310 740 1318 q 666 1215 721 1254 q 531 1175 611 1175 q 398 1214 451 1175 q 328 1311 344 1253 l 328 1317 q 336 1325 328 1325 l 400 1325 q 413 1322 408 1325 q 422 1313 417 1319 q 465 1269 440 1286 q 531 1251 489 1251 q 599 1269 569 1251 q 643 1314 628 1288 q 660 1325 650 1325 l 725 1325 z "},"Ô":{"ha":1061,"x_min":90,"x_max":971,"o":"m 531 -14 q 295 47 394 -14 q 143 226 196 108 q 90 511 90 344 q 144 799 90 679 q 297 982 197 919 q 532 1044 396 1044 q 766 982 667 1044 q 918 800 865 919 q 971 513 971 681 q 918 228 971 346 q 766 48 865 110 q 531 -14 667 -14 m 533 88 q 758 192 683 88 q 832 511 832 296 q 756 837 832 731 q 532 943 681 943 q 305 836 381 943 q 229 511 229 729 q 305 192 229 296 q 533 88 381 88 m 547 1249 q 540 1256 544 1251 q 532 1261 535 1261 q 515 1249 528 1261 l 435 1179 q 423 1172 428 1174 q 410 1171 418 1171 l 335 1171 q 325 1176 325 1171 q 332 1188 325 1181 l 474 1314 q 508 1329 489 1329 l 563 1329 q 578 1325 572 1329 q 590 1317 585 1321 l 731 1188 q 739 1175 739 1179 q 729 1171 739 1171 l 647 1171 q 622 1179 632 1171 l 547 1249 z "},"Ȍ":{"ha":1061,"x_min":90,"x_max":971,"o":"m 531 -14 q 295 47 394 -14 q 143 226 196 108 q 90 511 90 344 q 144 799 90 679 q 297 982 197 919 q 532 1044 396 1044 q 766 982 667 1044 q 918 800 865 919 q 971 513 971 681 q 918 228 971 346 q 766 48 865 110 q 531 -14 667 -14 m 533 88 q 758 192 683 88 q 832 511 832 296 q 756 837 832 731 q 532 943 681 943 q 305 836 381 943 q 229 511 229 729 q 305 192 229 296 q 533 88 381 88 m 288 1335 q 306 1335 296 1344 l 478 1151 q 481 1143 481 1149 q 476 1132 481 1139 l 454 1106 q 444 1099 447 1099 q 431 1104 442 1099 l 250 1256 q 240 1271 240 1264 q 246 1283 240 1275 l 288 1335 m 513 1335 q 521 1339 515 1339 q 531 1335 526 1339 l 701 1151 q 706 1143 706 1150 q 700 1132 706 1138 l 679 1106 q 668 1099 672 1099 q 654 1104 665 1099 l 475 1256 q 464 1271 464 1264 q 471 1283 464 1276 l 513 1335 z "},"Ö":{"ha":1061,"x_min":90,"x_max":971,"o":"m 531 -14 q 295 47 394 -14 q 143 226 196 108 q 90 511 90 344 q 144 799 90 679 q 297 982 197 919 q 532 1044 396 1044 q 766 982 667 1044 q 918 800 865 919 q 971 513 971 681 q 918 228 971 346 q 766 48 865 110 q 531 -14 667 -14 m 533 88 q 758 192 683 88 q 832 511 832 296 q 756 837 832 731 q 532 943 681 943 q 305 836 381 943 q 229 511 229 729 q 305 192 229 296 q 533 88 381 88 m 488 1193 q 483 1176 488 1181 q 465 1172 478 1172 l 392 1172 q 376 1176 381 1172 q 372 1190 372 1179 l 372 1307 q 376 1321 372 1317 q 388 1325 379 1325 l 472 1325 q 484 1322 481 1325 q 488 1308 488 1318 l 488 1193 m 692 1193 q 687 1176 692 1181 q 668 1172 682 1172 l 596 1172 q 579 1176 583 1172 q 575 1190 575 1179 l 575 1307 q 590 1325 575 1325 l 676 1325 q 688 1322 685 1325 q 692 1308 692 1318 l 692 1193 z "},"Ọ":{"ha":1061,"x_min":90,"x_max":971,"o":"m 531 -14 q 295 47 394 -14 q 143 226 196 108 q 90 511 90 344 q 144 799 90 679 q 297 982 197 919 q 532 1044 396 1044 q 766 982 667 1044 q 918 800 865 919 q 971 513 971 681 q 918 228 971 346 q 766 48 865 110 q 531 -14 667 -14 m 533 88 q 758 192 683 88 q 832 511 832 296 q 756 837 832 731 q 532 943 681 943 q 305 836 381 943 q 229 511 229 729 q 305 192 229 296 q 533 88 381 88 m 588 -208 q 583 -225 588 -221 q 567 -229 579 -229 l 497 -229 q 483 -226 488 -229 q 479 -212 479 -222 l 479 -94 q 493 -78 479 -78 l 574 -78 q 585 -81 582 -78 q 588 -93 588 -85 l 588 -208 z "},"Ò":{"ha":1061,"x_min":90,"x_max":971,"o":"m 531 -14 q 295 47 394 -14 q 143 226 196 108 q 90 511 90 344 q 144 799 90 679 q 297 982 197 919 q 532 1044 396 1044 q 766 982 667 1044 q 918 800 865 919 q 971 513 971 681 q 918 228 971 346 q 766 48 865 110 q 531 -14 667 -14 m 533 88 q 758 192 683 88 q 832 511 832 296 q 756 837 832 731 q 532 943 681 943 q 305 836 381 943 q 229 511 229 729 q 305 192 229 296 q 533 88 381 88 m 353 1331 q 358 1338 354 1336 q 368 1338 363 1340 l 690 1204 q 696 1185 701 1199 l 685 1154 q 677 1142 682 1144 q 663 1143 672 1140 l 346 1243 q 331 1267 324 1249 l 353 1331 z "},"Ő":{"ha":1061,"x_min":90,"x_max":971,"o":"m 531 -14 q 295 47 394 -14 q 143 226 196 108 q 90 511 90 344 q 144 799 90 679 q 297 982 197 919 q 532 1044 396 1044 q 766 982 667 1044 q 918 800 865 919 q 971 513 971 681 q 918 228 971 346 q 766 48 865 110 q 531 -14 667 -14 m 533 88 q 758 192 683 88 q 832 511 832 296 q 756 837 832 731 q 532 943 681 943 q 305 836 381 943 q 229 511 229 729 q 305 192 229 296 q 533 88 381 88 m 582 1283 q 589 1271 589 1276 q 578 1256 589 1264 l 399 1104 q 385 1099 388 1099 q 374 1106 378 1099 l 353 1132 q 351 1151 343 1143 l 522 1335 q 542 1335 533 1343 l 582 1283 m 808 1283 q 815 1271 815 1276 q 804 1256 815 1264 l 624 1104 q 610 1099 613 1099 q 600 1106 604 1099 l 578 1132 q 578 1151 568 1144 l 749 1335 q 758 1339 753 1339 q 767 1335 764 1339 l 808 1283 z "},"Ȏ":{"ha":1061,"x_min":90,"x_max":971,"o":"m 531 -14 q 295 47 394 -14 q 143 226 196 108 q 90 511 90 344 q 144 799 90 679 q 297 982 197 919 q 532 1044 396 1044 q 766 982 667 1044 q 918 800 865 919 q 971 513 971 681 q 918 228 971 346 q 766 48 865 110 q 531 -14 667 -14 m 533 88 q 758 192 683 88 q 832 511 832 296 q 756 837 832 731 q 532 943 681 943 q 305 836 381 943 q 229 511 229 729 q 305 192 229 296 q 533 88 381 88 m 658 1183 q 642 1194 649 1183 q 597 1239 626 1221 q 529 1257 568 1257 q 463 1240 488 1257 q 421 1196 439 1222 q 411 1186 415 1189 q 399 1183 407 1183 l 335 1183 q 326 1197 322 1183 q 397 1294 343 1256 q 529 1333 450 1333 q 665 1294 610 1333 q 736 1199 719 1254 q 738 1192 738 1196 q 724 1183 738 1183 l 658 1183 z "},"Ō":{"ha":1061,"x_min":90,"x_max":971,"o":"m 531 -14 q 295 47 394 -14 q 143 226 196 108 q 90 511 90 344 q 144 799 90 679 q 297 982 197 919 q 532 1044 396 1044 q 766 982 667 1044 q 918 800 865 919 q 971 513 971 681 q 918 228 971 346 q 766 48 865 110 q 531 -14 667 -14 m 533 88 q 758 192 683 88 q 832 511 832 296 q 756 837 832 731 q 532 943 681 943 q 305 836 381 943 q 229 511 229 729 q 305 192 229 296 q 533 88 381 88 m 738 1238 q 717 1219 738 1219 l 342 1219 q 330 1224 333 1219 q 326 1236 326 1228 l 326 1290 q 329 1301 326 1297 q 338 1306 332 1306 l 726 1306 q 735 1301 732 1306 q 738 1292 738 1297 l 738 1238 z "},"Ǫ":{"ha":1061,"x_min":90,"x_max":971,"o":"m 644 -1 q 545 -58 575 -31 q 515 -118 515 -85 q 532 -158 515 -146 q 585 -171 549 -171 q 634 -165 611 -171 q 671 -153 657 -160 q 681 -150 679 -150 q 686 -160 686 -150 l 686 -200 q 678 -215 686 -210 q 626 -232 660 -225 q 557 -239 592 -239 q 453 -209 489 -239 q 418 -126 418 -179 q 438 -64 418 -92 q 501 -12 457 -36 q 199 134 308 -3 q 90 511 90 271 q 144 799 90 679 q 297 982 197 919 q 532 1044 396 1044 q 766 982 667 1044 q 918 800 865 919 q 971 513 971 681 q 885 167 971 300 q 644 -1 800 35 m 229 511 q 305 192 229 296 q 533 88 381 88 q 758 192 683 88 q 832 511 832 296 q 756 837 832 731 q 532 943 681 943 q 305 836 381 943 q 229 511 229 729 z "},"Ø":{"ha":1013,"x_min":26,"x_max":990,"o":"m 985 994 q 990 983 990 989 q 986 972 990 979 l 871 844 q 947 513 947 715 q 894 228 947 346 q 742 48 842 110 q 507 -14 643 -14 q 200 106 315 -14 l 106 0 q 88 -11 94 -11 q 69 -3 81 -11 l 38 29 q 26 47 26 40 q 32 58 26 50 l 143 181 q 67 511 67 310 q 120 799 67 679 q 273 982 174 919 q 508 1044 372 1044 q 814 921 699 1044 l 914 1033 q 939 1038 929 1049 l 985 994 m 208 511 q 246 288 208 375 l 731 835 q 508 942 658 942 q 283 835 357 942 q 208 511 208 729 m 804 511 q 767 738 804 654 l 283 193 q 508 89 357 89 q 731 192 658 89 q 804 511 804 294 z "},"Ǿ":{"ha":1013,"x_min":26,"x_max":990,"o":"m 985 994 q 990 983 990 989 q 986 972 990 979 l 871 844 q 947 513 947 715 q 894 228 947 346 q 742 48 842 110 q 507 -14 643 -14 q 200 106 315 -14 l 106 0 q 88 -11 94 -11 q 69 -3 81 -11 l 38 29 q 26 47 26 40 q 32 58 26 50 l 143 181 q 67 511 67 310 q 120 799 67 679 q 273 982 174 919 q 508 1044 372 1044 q 814 921 699 1044 l 914 1033 q 939 1038 929 1049 l 985 994 m 208 511 q 246 288 208 375 l 731 835 q 508 942 658 942 q 283 835 357 942 q 208 511 208 729 m 804 511 q 767 738 804 654 l 283 193 q 508 89 357 89 q 731 192 658 89 q 804 511 804 294 m 689 1267 q 690 1258 690 1264 q 675 1243 690 1247 l 357 1143 q 349 1142 354 1142 q 335 1154 339 1142 l 324 1185 q 322 1192 322 1188 q 331 1204 322 1203 l 651 1338 q 657 1339 653 1339 q 668 1331 665 1339 l 689 1267 z "},"Õ":{"ha":1061,"x_min":90,"x_max":971,"o":"m 531 -14 q 295 47 394 -14 q 143 226 196 108 q 90 511 90 344 q 144 799 90 679 q 297 982 197 919 q 532 1044 396 1044 q 766 982 667 1044 q 918 800 865 919 q 971 513 971 681 q 918 228 971 346 q 766 48 865 110 q 531 -14 667 -14 m 533 88 q 758 192 683 88 q 832 511 832 296 q 756 837 832 731 q 532 943 681 943 q 305 836 381 943 q 229 511 229 729 q 305 192 229 296 q 533 88 381 88 m 728 1235 q 681 1213 706 1221 q 622 1204 657 1204 q 526 1224 582 1204 q 446 1240 476 1240 q 407 1234 422 1240 q 379 1221 392 1228 q 363 1211 367 1214 q 353 1207 356 1207 q 343 1218 347 1207 l 329 1256 q 328 1264 328 1258 q 335 1275 328 1269 q 385 1306 363 1296 q 440 1317 407 1317 q 485 1312 464 1317 q 536 1297 506 1307 q 581 1284 558 1290 q 624 1278 603 1278 q 664 1285 647 1278 q 703 1306 681 1292 q 714 1310 710 1310 q 725 1299 721 1310 l 739 1256 q 740 1249 740 1253 q 728 1235 740 1242 z "},"Œ":{"ha":1561,"x_min":90,"x_max":1496,"o":"m 1481 103 q 1492 100 1489 103 q 1496 89 1496 97 l 1496 15 q 1481 0 1496 0 l 882 0 q 870 2 874 0 q 865 10 867 4 l 846 142 q 719 26 799 65 q 536 -14 640 -14 q 208 123 325 -14 q 90 511 90 260 q 144 799 90 679 q 300 982 199 919 q 542 1044 401 1044 q 720 1005 643 1044 q 846 888 797 965 l 863 1021 q 879 1031 864 1031 l 1464 1031 q 1478 1015 1478 1031 l 1478 944 q 1460 928 1478 928 l 985 928 q 971 924 975 928 q 967 911 967 921 l 967 586 q 982 571 967 571 l 1331 571 q 1346 556 1346 571 l 1346 482 q 1332 469 1346 469 l 982 469 q 967 454 967 469 l 967 117 q 969 106 967 108 q 981 103 972 103 l 1481 103 m 533 88 q 756 192 683 88 q 829 511 829 296 q 755 837 829 731 q 532 943 681 943 q 305 836 381 943 q 229 511 229 729 q 305 192 229 296 q 533 88 381 88 z "},"P":{"ha":958,"x_min":135,"x_max":883,"o":"m 883 731 q 784 506 883 582 q 517 431 685 431 l 281 431 q 268 418 268 431 l 268 21 q 247 0 268 0 l 153 0 q 135 18 135 0 l 135 1011 q 138 1026 135 1022 q 151 1031 142 1031 l 501 1031 q 779 956 675 1031 q 883 731 883 882 m 747 735 q 682 883 747 838 q 494 929 617 929 l 286 929 q 268 913 268 929 l 268 551 q 271 536 268 540 q 281 532 274 532 l 504 532 q 683 583 618 532 q 747 735 747 633 z "},"Þ":{"ha":963,"x_min":135,"x_max":889,"o":"m 889 535 q 790 312 889 386 q 522 238 690 238 l 281 238 q 268 224 268 238 l 268 21 q 247 0 268 0 l 153 0 q 135 18 135 0 l 135 1011 q 151 1031 135 1031 l 251 1031 q 268 1013 268 1031 l 268 825 q 278 815 268 815 l 506 815 q 784 744 679 815 q 889 535 889 674 m 751 536 q 500 714 751 714 l 286 714 q 268 697 268 714 l 268 357 q 281 339 268 339 l 508 339 q 688 388 624 339 q 751 536 751 436 z "},"Q":{"ha":1063,"x_min":90,"x_max":971,"o":"m 90 513 q 143 801 90 682 q 295 983 196 921 q 531 1044 394 1044 q 766 983 667 1044 q 918 801 865 921 q 971 513 971 682 q 776 58 971 189 q 771 46 771 54 q 797 3 771 29 q 863 -43 822 -22 q 947 -69 904 -64 q 961 -82 961 -71 l 961 -147 q 953 -167 961 -162 q 924 -172 944 -172 q 790 -133 857 -172 q 661 -8 722 -94 q 640 -3 656 0 q 531 -14 594 -14 q 297 47 396 -14 q 144 225 197 107 q 90 513 90 343 m 229 510 q 305 191 229 294 q 531 88 381 88 q 756 192 681 88 q 832 511 832 296 q 531 943 832 943 q 229 510 229 943 z "},"R":{"ha":967,"x_min":135,"x_max":885,"o":"m 871 26 q 872 17 872 24 q 856 0 872 0 l 754 0 q 732 17 739 0 l 553 454 q 542 467 549 463 q 519 471 535 471 l 285 471 q 268 456 268 471 l 268 22 q 263 5 268 10 q 244 0 258 0 l 154 0 q 139 4 143 0 q 135 18 135 8 l 135 1011 q 138 1026 135 1022 q 151 1031 142 1031 l 539 1031 q 794 963 704 1031 q 885 764 885 894 q 826 587 885 654 q 682 494 767 519 q 675 489 676 493 q 676 481 674 485 l 871 26 m 500 567 q 685 611 624 567 q 746 751 746 656 q 692 888 746 842 q 532 933 638 933 l 288 933 q 268 918 268 933 l 268 585 q 281 567 268 567 l 500 567 z "},"Ŕ":{"ha":967,"x_min":135,"x_max":885,"o":"m 871 26 q 872 17 872 24 q 856 0 872 0 l 754 0 q 732 17 739 0 l 553 454 q 542 467 549 463 q 519 471 535 471 l 285 471 q 268 456 268 471 l 268 22 q 263 5 268 10 q 244 0 258 0 l 154 0 q 139 4 143 0 q 135 18 135 8 l 135 1011 q 138 1026 135 1022 q 151 1031 142 1031 l 539 1031 q 794 963 704 1031 q 885 764 885 894 q 826 587 885 654 q 682 494 767 519 q 675 489 676 493 q 676 481 674 485 l 871 26 m 500 567 q 685 611 624 567 q 746 751 746 656 q 692 888 746 842 q 532 933 638 933 l 288 933 q 268 918 268 933 l 268 585 q 281 567 268 567 l 500 567 m 656 1267 q 657 1258 657 1264 q 642 1243 657 1247 l 324 1143 q 315 1142 321 1142 q 301 1154 306 1142 l 290 1185 q 289 1192 289 1188 q 297 1204 289 1203 l 618 1338 q 624 1339 619 1339 q 635 1331 632 1339 l 656 1267 z "},"Ř":{"ha":967,"x_min":135,"x_max":885,"o":"m 871 26 q 872 17 872 24 q 856 0 872 0 l 754 0 q 732 17 739 0 l 553 454 q 542 467 549 463 q 519 471 535 471 l 285 471 q 268 456 268 471 l 268 22 q 263 5 268 10 q 244 0 258 0 l 154 0 q 139 4 143 0 q 135 18 135 8 l 135 1011 q 138 1026 135 1022 q 151 1031 142 1031 l 539 1031 q 794 963 704 1031 q 885 764 885 894 q 826 587 885 654 q 682 494 767 519 q 675 489 676 493 q 676 481 674 485 l 871 26 m 500 567 q 685 611 624 567 q 746 751 746 656 q 692 888 746 842 q 532 933 638 933 l 288 933 q 268 918 268 933 l 268 585 q 281 567 268 567 l 500 567 m 564 1315 q 589 1325 574 1325 l 671 1325 q 681 1321 681 1325 q 672 1308 681 1317 l 532 1179 q 520 1171 526 1175 q 504 1167 514 1167 l 450 1167 q 415 1181 432 1167 l 274 1308 q 267 1320 267 1315 q 276 1325 268 1325 l 351 1325 q 365 1324 361 1325 q 376 1315 369 1322 l 457 1247 q 474 1235 469 1235 q 481 1240 476 1235 q 489 1247 486 1244 l 564 1315 z "},"Ŗ":{"ha":967,"x_min":135,"x_max":885,"o":"m 871 26 q 872 17 872 24 q 856 0 872 0 l 754 0 q 732 17 739 0 l 553 454 q 542 467 549 463 q 519 471 535 471 l 285 471 q 268 456 268 471 l 268 22 q 263 5 268 10 q 244 0 258 0 l 154 0 q 139 4 143 0 q 135 18 135 8 l 135 1011 q 138 1026 135 1022 q 151 1031 142 1031 l 539 1031 q 794 963 704 1031 q 885 764 885 894 q 826 587 885 654 q 682 494 767 519 q 675 489 676 493 q 676 481 674 485 l 871 26 m 500 567 q 685 611 624 567 q 746 751 746 656 q 692 888 746 842 q 532 933 638 933 l 288 933 q 268 918 268 933 l 268 585 q 281 567 268 567 l 500 567 m 439 -332 q 430 -327 432 -332 q 431 -315 428 -322 l 468 -244 q 471 -233 471 -240 q 461 -224 471 -224 l 449 -224 q 435 -220 439 -224 q 432 -207 432 -217 l 432 -117 q 446 -101 432 -101 l 528 -101 q 540 -114 540 -101 l 540 -224 q 539 -231 540 -228 q 538 -235 538 -233 l 486 -321 q 475 -330 481 -328 q 460 -332 469 -332 l 439 -332 z "},"Ȑ":{"ha":967,"x_min":135,"x_max":885,"o":"m 871 26 q 872 17 872 24 q 856 0 872 0 l 754 0 q 732 17 739 0 l 553 454 q 542 467 549 463 q 519 471 535 471 l 285 471 q 268 456 268 471 l 268 22 q 263 5 268 10 q 244 0 258 0 l 154 0 q 139 4 143 0 q 135 18 135 8 l 135 1011 q 138 1026 135 1022 q 151 1031 142 1031 l 539 1031 q 794 963 704 1031 q 885 764 885 894 q 826 587 885 654 q 682 494 767 519 q 675 489 676 493 q 676 481 674 485 l 871 26 m 500 567 q 685 611 624 567 q 746 751 746 656 q 692 888 746 842 q 532 933 638 933 l 288 933 q 268 918 268 933 l 268 585 q 281 567 268 567 l 500 567 m 229 1335 q 247 1335 238 1344 l 419 1151 q 422 1143 422 1149 q 418 1132 422 1139 l 396 1106 q 386 1099 389 1099 q 372 1104 383 1099 l 192 1256 q 182 1271 182 1264 q 188 1283 182 1275 l 229 1335 m 454 1335 q 463 1339 457 1339 q 472 1335 468 1339 l 643 1151 q 647 1143 647 1150 q 642 1132 647 1138 l 621 1106 q 610 1099 614 1099 q 596 1104 607 1099 l 417 1256 q 406 1271 406 1264 q 413 1283 406 1276 l 454 1335 z "},"Ṛ":{"ha":967,"x_min":135,"x_max":885,"o":"m 871 26 q 872 17 872 24 q 856 0 872 0 l 754 0 q 732 17 739 0 l 553 454 q 542 467 549 463 q 519 471 535 471 l 285 471 q 268 456 268 471 l 268 22 q 263 5 268 10 q 244 0 258 0 l 154 0 q 139 4 143 0 q 135 18 135 8 l 135 1011 q 138 1026 135 1022 q 151 1031 142 1031 l 539 1031 q 794 963 704 1031 q 885 764 885 894 q 826 587 885 654 q 682 494 767 519 q 675 489 676 493 q 676 481 674 485 l 871 26 m 500 567 q 685 611 624 567 q 746 751 746 656 q 692 888 746 842 q 532 933 638 933 l 288 933 q 268 918 268 933 l 268 585 q 281 567 268 567 l 500 567 m 538 -208 q 533 -225 538 -221 q 517 -229 529 -229 l 447 -229 q 433 -226 438 -229 q 429 -212 429 -222 l 429 -94 q 443 -78 429 -78 l 524 -78 q 535 -81 532 -78 q 538 -93 538 -85 l 538 -208 z "},"Ȓ":{"ha":967,"x_min":135,"x_max":885,"o":"m 871 26 q 872 17 872 24 q 856 0 872 0 l 754 0 q 732 17 739 0 l 553 454 q 542 467 549 463 q 519 471 535 471 l 285 471 q 268 456 268 471 l 268 22 q 263 5 268 10 q 244 0 258 0 l 154 0 q 139 4 143 0 q 135 18 135 8 l 135 1011 q 138 1026 135 1022 q 151 1031 142 1031 l 539 1031 q 794 963 704 1031 q 885 764 885 894 q 826 587 885 654 q 682 494 767 519 q 675 489 676 493 q 676 481 674 485 l 871 26 m 500 567 q 685 611 624 567 q 746 751 746 656 q 692 888 746 842 q 532 933 638 933 l 288 933 q 268 918 268 933 l 268 585 q 281 567 268 567 l 500 567 m 600 1183 q 583 1194 590 1183 q 539 1239 568 1221 q 471 1257 510 1257 q 405 1240 429 1257 q 363 1196 381 1222 q 353 1186 357 1189 q 340 1183 349 1183 l 276 1183 q 268 1197 264 1183 q 338 1294 285 1256 q 471 1333 392 1333 q 606 1294 551 1333 q 678 1199 661 1254 q 679 1192 679 1196 q 665 1183 679 1183 l 600 1183 z "},"S":{"ha":890,"x_min":67,"x_max":814,"o":"m 692 839 q 456 943 603 943 q 292 897 351 943 q 232 769 232 851 q 381 611 232 661 l 582 544 q 759 437 704 504 q 814 272 814 369 q 715 63 814 139 q 446 -14 617 -14 q 226 31 321 -14 q 72 160 131 75 q 67 174 67 171 q 81 193 67 183 l 131 228 q 150 236 143 236 q 165 228 158 236 q 283 119 225 151 q 440 88 342 88 q 622 129 557 88 q 686 258 686 171 q 652 351 686 313 q 529 422 618 389 l 318 494 q 156 602 208 532 q 104 757 104 672 q 148 908 104 843 q 272 1009 192 974 q 456 1044 351 1044 q 640 1008 557 1044 q 781 907 722 972 q 788 893 788 900 q 781 881 788 886 l 717 831 q 708 826 713 826 q 692 839 704 826 z "},"Ś":{"ha":890,"x_min":67,"x_max":814,"o":"m 692 839 q 456 943 603 943 q 292 897 351 943 q 232 769 232 851 q 381 611 232 661 l 582 544 q 759 437 704 504 q 814 272 814 369 q 715 63 814 139 q 446 -14 617 -14 q 226 31 321 -14 q 72 160 131 75 q 67 174 67 171 q 81 193 67 183 l 131 228 q 150 236 143 236 q 165 228 158 236 q 283 119 225 151 q 440 88 342 88 q 622 129 557 88 q 686 258 686 171 q 652 351 686 313 q 529 422 618 389 l 318 494 q 156 602 208 532 q 104 757 104 672 q 148 908 104 843 q 272 1009 192 974 q 456 1044 351 1044 q 640 1008 557 1044 q 781 907 722 972 q 788 893 788 900 q 781 881 788 886 l 717 831 q 708 826 713 826 q 692 839 704 826 m 639 1267 q 640 1258 640 1264 q 625 1243 640 1247 l 307 1143 q 299 1142 304 1142 q 285 1154 289 1142 l 274 1185 q 272 1192 272 1188 q 281 1204 272 1203 l 601 1338 q 607 1339 603 1339 q 618 1331 615 1339 l 639 1267 z "},"Š":{"ha":890,"x_min":67,"x_max":814,"o":"m 692 839 q 456 943 603 943 q 292 897 351 943 q 232 769 232 851 q 381 611 232 661 l 582 544 q 759 437 704 504 q 814 272 814 369 q 715 63 814 139 q 446 -14 617 -14 q 226 31 321 -14 q 72 160 131 75 q 67 174 67 171 q 81 193 67 183 l 131 228 q 150 236 143 236 q 165 228 158 236 q 283 119 225 151 q 440 88 342 88 q 622 129 557 88 q 686 258 686 171 q 652 351 686 313 q 529 422 618 389 l 318 494 q 156 602 208 532 q 104 757 104 672 q 148 908 104 843 q 272 1009 192 974 q 456 1044 351 1044 q 640 1008 557 1044 q 781 907 722 972 q 788 893 788 900 q 781 881 788 886 l 717 831 q 708 826 713 826 q 692 839 704 826 m 547 1315 q 572 1325 557 1325 l 654 1325 q 664 1321 664 1325 q 656 1308 664 1317 l 515 1179 q 503 1171 510 1175 q 488 1167 497 1167 l 433 1167 q 399 1181 415 1167 l 257 1308 q 251 1320 250 1315 q 260 1325 251 1325 l 335 1325 q 349 1324 344 1325 q 360 1315 353 1322 l 440 1247 q 457 1235 453 1235 q 465 1240 460 1235 q 472 1247 469 1244 l 547 1315 z "},"Ş":{"ha":890,"x_min":67,"x_max":814,"o":"m 465 -72 q 465 -77 464 -75 q 471 -79 467 -79 q 560 -112 532 -83 q 588 -182 588 -142 q 544 -262 588 -233 q 436 -292 500 -292 q 314 -261 367 -292 q 308 -249 307 -256 l 324 -212 q 336 -210 328 -206 q 422 -236 375 -236 q 501 -183 501 -236 q 474 -137 501 -153 q 389 -119 447 -122 q 381 -118 382 -119 q 381 -111 379 -117 l 424 -14 q 217 35 307 -10 q 72 160 128 79 q 67 174 67 171 q 81 193 67 183 l 131 228 q 150 236 143 236 q 165 228 158 236 q 283 119 225 151 q 440 88 342 88 q 622 129 557 88 q 686 258 686 171 q 652 351 686 313 q 529 422 618 389 l 318 494 q 156 602 208 532 q 104 757 104 672 q 148 908 104 843 q 272 1009 192 974 q 456 1044 351 1044 q 640 1008 557 1044 q 781 907 722 972 q 788 893 788 900 q 781 881 788 886 l 717 831 q 708 826 713 826 q 692 839 704 826 q 456 943 603 943 q 292 897 351 943 q 232 769 232 851 q 381 611 232 661 l 582 544 q 759 437 704 504 q 814 272 814 369 q 728 72 814 147 q 489 -12 642 -3 l 465 -72 z "},"Ŝ":{"ha":890,"x_min":67,"x_max":814,"o":"m 692 839 q 456 943 603 943 q 292 897 351 943 q 232 769 232 851 q 381 611 232 661 l 582 544 q 759 437 704 504 q 814 272 814 369 q 715 63 814 139 q 446 -14 617 -14 q 226 31 321 -14 q 72 160 131 75 q 67 174 67 171 q 81 193 67 183 l 131 228 q 150 236 143 236 q 165 228 158 236 q 283 119 225 151 q 440 88 342 88 q 622 129 557 88 q 686 258 686 171 q 652 351 686 313 q 529 422 618 389 l 318 494 q 156 602 208 532 q 104 757 104 672 q 148 908 104 843 q 272 1009 192 974 q 456 1044 351 1044 q 640 1008 557 1044 q 781 907 722 972 q 788 893 788 900 q 781 881 788 886 l 717 831 q 708 826 713 826 q 692 839 704 826 m 472 1249 q 465 1256 469 1251 q 457 1261 460 1261 q 440 1249 453 1261 l 360 1179 q 348 1172 353 1174 q 335 1171 343 1171 l 260 1171 q 250 1176 250 1171 q 257 1188 250 1181 l 399 1314 q 433 1329 414 1329 l 488 1329 q 503 1325 497 1329 q 515 1317 510 1321 l 656 1188 q 664 1175 664 1179 q 654 1171 664 1171 l 572 1171 q 547 1179 557 1171 l 472 1249 z "},"Ș":{"ha":890,"x_min":67,"x_max":814,"o":"m 692 839 q 456 943 603 943 q 292 897 351 943 q 232 769 232 851 q 381 611 232 661 l 582 544 q 759 437 704 504 q 814 272 814 369 q 715 63 814 139 q 446 -14 617 -14 q 226 31 321 -14 q 72 160 131 75 q 67 174 67 171 q 81 193 67 183 l 131 228 q 150 236 143 236 q 165 228 158 236 q 283 119 225 151 q 440 88 342 88 q 622 129 557 88 q 686 258 686 171 q 652 351 686 313 q 529 422 618 389 l 318 494 q 156 602 208 532 q 104 757 104 672 q 148 908 104 843 q 272 1009 192 974 q 456 1044 351 1044 q 640 1008 557 1044 q 781 907 722 972 q 788 893 788 900 q 781 881 788 886 l 717 831 q 708 826 713 826 q 692 839 704 826 m 417 -332 q 408 -327 410 -332 q 408 -315 406 -322 l 446 -244 q 449 -233 449 -240 q 439 -224 449 -224 l 426 -224 q 413 -220 417 -224 q 410 -207 410 -217 l 410 -117 q 424 -101 410 -101 l 506 -101 q 518 -114 518 -101 l 518 -224 q 517 -231 518 -228 q 515 -235 515 -233 l 464 -321 q 453 -330 458 -328 q 438 -332 447 -332 l 417 -332 z "},"Ṣ":{"ha":890,"x_min":67,"x_max":814,"o":"m 692 839 q 456 943 603 943 q 292 897 351 943 q 232 769 232 851 q 381 611 232 661 l 582 544 q 759 437 704 504 q 814 272 814 369 q 715 63 814 139 q 446 -14 617 -14 q 226 31 321 -14 q 72 160 131 75 q 67 174 67 171 q 81 193 67 183 l 131 228 q 150 236 143 236 q 165 228 158 236 q 283 119 225 151 q 440 88 342 88 q 622 129 557 88 q 686 258 686 171 q 652 351 686 313 q 529 422 618 389 l 318 494 q 156 602 208 532 q 104 757 104 672 q 148 908 104 843 q 272 1009 192 974 q 456 1044 351 1044 q 640 1008 557 1044 q 781 907 722 972 q 788 893 788 900 q 781 881 788 886 l 717 831 q 708 826 713 826 q 692 839 704 826 m 515 -208 q 511 -225 515 -221 q 494 -229 507 -229 l 425 -229 q 411 -226 415 -229 q 407 -212 407 -222 l 407 -94 q 421 -78 407 -78 l 501 -78 q 513 -81 510 -78 q 515 -93 515 -85 l 515 -208 z "},"Ə":{"ha":1060,"x_min":90,"x_max":969,"o":"m 825 560 q 763 821 825 707 q 531 935 701 935 q 382 901 439 935 q 298 823 325 867 q 247 718 271 779 q 232 682 235 688 q 226 679 229 679 l 215 682 l 124 721 q 117 729 117 725 q 121 742 117 733 q 196 881 158 822 q 317 992 233 939 q 529 1044 400 1044 q 786 968 688 1044 q 927 772 885 892 q 969 514 969 651 q 922 252 969 372 q 774 59 874 132 q 529 -14 675 -14 q 194 133 299 -14 q 90 521 90 281 q 93 540 90 535 q 107 544 96 544 l 811 544 q 825 560 825 544 m 251 449 q 239 446 242 449 q 236 436 236 443 q 305 190 236 290 q 528 89 374 89 q 824 449 810 89 l 251 449 z "},"T":{"ha":896,"x_min":58,"x_max":839,"o":"m 58 1015 q 75 1031 58 1031 l 822 1031 q 839 1015 839 1031 l 839 943 q 835 932 839 935 q 822 929 831 929 l 540 929 q 528 926 532 929 q 525 915 525 924 l 525 18 q 508 0 525 0 l 408 0 q 392 18 392 0 l 392 914 q 389 926 392 924 q 378 929 386 929 l 75 929 q 63 932 67 929 q 58 943 58 935 l 58 1015 z "},"Ŧ":{"ha":896,"x_min":58,"x_max":839,"o":"m 822 1031 q 839 1015 839 1031 l 839 943 q 835 932 839 935 q 822 929 831 929 l 540 929 q 528 926 532 929 q 525 915 525 924 l 525 567 l 706 567 q 715 562 711 567 q 719 550 719 557 l 719 492 q 693 469 719 469 l 525 469 l 525 18 q 508 0 525 0 l 408 0 q 392 18 392 0 l 392 469 l 203 469 q 183 489 183 469 l 183 549 q 197 567 183 567 l 392 567 l 392 914 q 389 926 392 924 q 378 929 386 929 l 75 929 q 63 932 67 929 q 58 943 58 935 l 58 1015 q 75 1031 58 1031 l 822 1031 z "},"Ť":{"ha":896,"x_min":58,"x_max":839,"o":"m 58 1015 q 75 1031 58 1031 l 822 1031 q 839 1015 839 1031 l 839 943 q 835 932 839 935 q 822 929 831 929 l 540 929 q 528 926 532 929 q 525 915 525 924 l 525 18 q 508 0 525 0 l 408 0 q 392 18 392 0 l 392 914 q 389 926 392 924 q 378 929 386 929 l 75 929 q 63 932 67 929 q 58 943 58 935 l 58 1015 m 550 1315 q 575 1325 560 1325 l 657 1325 q 667 1321 667 1325 q 658 1308 667 1317 l 518 1179 q 506 1171 513 1175 q 490 1167 500 1167 l 436 1167 q 401 1181 418 1167 l 260 1308 q 253 1320 253 1315 q 263 1325 254 1325 l 338 1325 q 351 1324 347 1325 q 363 1315 356 1322 l 443 1247 q 460 1235 456 1235 q 467 1240 463 1235 q 475 1247 472 1244 l 550 1315 z "},"Ţ":{"ha":896,"x_min":58,"x_max":839,"o":"m 822 1031 q 839 1015 839 1031 l 839 943 q 835 932 839 935 q 822 929 831 929 l 540 929 q 528 926 532 929 q 525 915 525 924 l 525 18 q 508 0 525 0 l 493 0 l 464 -72 q 464 -77 463 -75 q 469 -79 465 -79 q 558 -112 531 -83 q 586 -182 586 -142 q 542 -262 586 -233 q 435 -292 499 -292 q 313 -261 365 -292 q 307 -249 306 -256 l 322 -212 q 335 -210 326 -206 q 421 -236 374 -236 q 500 -183 500 -236 q 473 -137 500 -153 q 388 -119 446 -122 q 379 -118 381 -119 q 379 -111 378 -117 l 428 0 l 408 0 q 392 18 392 0 l 392 914 q 389 926 392 924 q 378 929 386 929 l 75 929 q 63 932 67 929 q 58 943 58 935 l 58 1015 q 75 1031 58 1031 l 822 1031 z "},"Ț":{"ha":896,"x_min":58,"x_max":839,"o":"m 58 1015 q 75 1031 58 1031 l 822 1031 q 839 1015 839 1031 l 839 943 q 835 932 839 935 q 822 929 831 929 l 540 929 q 528 926 532 929 q 525 915 525 924 l 525 18 q 508 0 525 0 l 408 0 q 392 18 392 0 l 392 914 q 389 926 392 924 q 378 929 386 929 l 75 929 q 63 932 67 929 q 58 943 58 935 l 58 1015 m 415 -332 q 406 -327 408 -332 q 407 -315 404 -322 l 444 -244 q 447 -233 447 -240 q 438 -224 447 -224 l 425 -224 q 412 -220 415 -224 q 408 -207 408 -217 l 408 -117 q 422 -101 408 -101 l 504 -101 q 517 -114 517 -101 l 517 -224 q 515 -231 517 -228 q 514 -235 514 -233 l 463 -321 q 451 -330 457 -328 q 436 -332 446 -332 l 415 -332 z "},"Ṭ":{"ha":896,"x_min":58,"x_max":839,"o":"m 58 1015 q 75 1031 58 1031 l 822 1031 q 839 1015 839 1031 l 839 943 q 835 932 839 935 q 822 929 831 929 l 540 929 q 528 926 532 929 q 525 915 525 924 l 525 18 q 508 0 525 0 l 408 0 q 392 18 392 0 l 392 914 q 389 926 392 924 q 378 929 386 929 l 75 929 q 63 932 67 929 q 58 943 58 935 l 58 1015 m 514 -208 q 510 -225 514 -221 q 493 -229 506 -229 l 424 -229 q 410 -226 414 -229 q 406 -212 406 -222 l 406 -94 q 419 -78 406 -78 l 500 -78 q 511 -81 508 -78 q 514 -93 514 -85 l 514 -208 z "},"U":{"ha":985,"x_min":122,"x_max":864,"o":"m 864 343 q 770 73 864 160 q 493 -14 676 -14 q 211 79 300 -14 q 122 367 122 172 l 122 1011 q 138 1031 122 1031 l 238 1031 q 254 1013 254 1031 l 254 338 q 316 150 254 211 q 501 89 378 89 q 688 151 625 89 q 751 342 751 213 l 751 1013 q 767 1031 751 1031 l 849 1031 q 864 1014 864 1031 l 864 343 z "},"Ú":{"ha":985,"x_min":122,"x_max":864,"o":"m 864 343 q 770 73 864 160 q 493 -14 676 -14 q 211 79 300 -14 q 122 367 122 172 l 122 1011 q 138 1031 122 1031 l 238 1031 q 254 1013 254 1031 l 254 338 q 316 150 254 211 q 501 89 378 89 q 688 151 625 89 q 751 342 751 213 l 751 1013 q 767 1031 751 1031 l 849 1031 q 864 1014 864 1031 l 864 343 m 685 1267 q 686 1258 686 1264 q 671 1243 686 1247 l 353 1143 q 344 1142 350 1142 q 331 1154 335 1142 l 319 1185 q 318 1192 318 1188 q 326 1204 318 1203 l 647 1338 q 653 1339 649 1339 q 664 1331 661 1339 l 685 1267 z "},"Ŭ":{"ha":985,"x_min":122,"x_max":864,"o":"m 864 343 q 770 73 864 160 q 493 -14 676 -14 q 211 79 300 -14 q 122 367 122 172 l 122 1011 q 138 1031 122 1031 l 238 1031 q 254 1013 254 1031 l 254 338 q 316 150 254 211 q 501 89 378 89 q 688 151 625 89 q 751 342 751 213 l 751 1013 q 767 1031 751 1031 l 849 1031 q 864 1014 864 1031 l 864 343 m 696 1325 q 708 1322 706 1325 q 708 1310 711 1318 q 637 1215 692 1254 q 501 1175 582 1175 q 369 1214 422 1175 q 299 1311 315 1253 l 299 1317 q 307 1325 299 1325 l 371 1325 q 383 1322 379 1325 q 393 1313 388 1319 q 435 1269 411 1286 q 501 1251 460 1251 q 569 1269 540 1251 q 614 1314 599 1288 q 631 1325 621 1325 l 696 1325 z "},"Û":{"ha":985,"x_min":122,"x_max":864,"o":"m 864 343 q 770 73 864 160 q 493 -14 676 -14 q 211 79 300 -14 q 122 367 122 172 l 122 1011 q 138 1031 122 1031 l 238 1031 q 254 1013 254 1031 l 254 338 q 316 150 254 211 q 501 89 378 89 q 688 151 625 89 q 751 342 751 213 l 751 1013 q 767 1031 751 1031 l 849 1031 q 864 1014 864 1031 l 864 343 m 518 1249 q 510 1256 515 1251 q 503 1261 506 1261 q 486 1249 499 1261 l 406 1179 q 394 1172 399 1174 q 381 1171 389 1171 l 306 1171 q 296 1176 296 1171 q 303 1188 296 1181 l 444 1314 q 479 1329 460 1329 l 533 1329 q 549 1325 543 1329 q 561 1317 556 1321 l 701 1188 q 710 1175 710 1179 q 700 1171 710 1171 l 618 1171 q 593 1179 603 1171 l 518 1249 z "},"Ȕ":{"ha":985,"x_min":122,"x_max":864,"o":"m 864 343 q 770 73 864 160 q 493 -14 676 -14 q 211 79 300 -14 q 122 367 122 172 l 122 1011 q 138 1031 122 1031 l 238 1031 q 254 1013 254 1031 l 254 338 q 316 150 254 211 q 501 89 378 89 q 688 151 625 89 q 751 342 751 213 l 751 1013 q 767 1031 751 1031 l 849 1031 q 864 1014 864 1031 l 864 343 m 258 1335 q 276 1335 267 1344 l 449 1151 q 451 1143 451 1149 q 447 1132 451 1139 l 425 1106 q 415 1099 418 1099 q 401 1104 413 1099 l 221 1256 q 211 1271 211 1264 q 217 1283 211 1275 l 258 1335 m 483 1335 q 492 1339 486 1339 q 501 1335 497 1339 l 672 1151 q 676 1143 676 1150 q 671 1132 676 1138 l 650 1106 q 639 1099 643 1099 q 625 1104 636 1099 l 446 1256 q 435 1271 435 1264 q 442 1283 435 1276 l 483 1335 z "},"Ü":{"ha":985,"x_min":122,"x_max":864,"o":"m 864 343 q 770 73 864 160 q 493 -14 676 -14 q 211 79 300 -14 q 122 367 122 172 l 122 1011 q 138 1031 122 1031 l 238 1031 q 254 1013 254 1031 l 254 338 q 316 150 254 211 q 501 89 378 89 q 688 151 625 89 q 751 342 751 213 l 751 1013 q 767 1031 751 1031 l 849 1031 q 864 1014 864 1031 l 864 343 m 458 1193 q 453 1176 458 1181 q 436 1172 449 1172 l 363 1172 q 347 1176 351 1172 q 343 1190 343 1179 l 343 1307 q 347 1321 343 1317 q 358 1325 350 1325 l 443 1325 q 455 1322 451 1325 q 458 1308 458 1318 l 458 1193 m 663 1193 q 658 1176 663 1181 q 639 1172 653 1172 l 567 1172 q 550 1176 554 1172 q 546 1190 546 1179 l 546 1307 q 561 1325 546 1325 l 647 1325 q 659 1322 656 1325 q 663 1308 663 1318 l 663 1193 z "},"Ụ":{"ha":985,"x_min":122,"x_max":864,"o":"m 864 343 q 770 73 864 160 q 493 -14 676 -14 q 211 79 300 -14 q 122 367 122 172 l 122 1011 q 138 1031 122 1031 l 238 1031 q 254 1013 254 1031 l 254 338 q 316 150 254 211 q 501 89 378 89 q 688 151 625 89 q 751 342 751 213 l 751 1013 q 767 1031 751 1031 l 849 1031 q 864 1014 864 1031 l 864 343 m 531 -208 q 526 -225 531 -221 q 510 -229 522 -229 l 440 -229 q 426 -226 431 -229 q 422 -212 422 -222 l 422 -94 q 436 -78 422 -78 l 517 -78 q 528 -81 525 -78 q 531 -93 531 -85 l 531 -208 z "},"Ù":{"ha":985,"x_min":122,"x_max":864,"o":"m 864 343 q 770 73 864 160 q 493 -14 676 -14 q 211 79 300 -14 q 122 367 122 172 l 122 1011 q 138 1031 122 1031 l 238 1031 q 254 1013 254 1031 l 254 338 q 316 150 254 211 q 501 89 378 89 q 688 151 625 89 q 751 342 751 213 l 751 1013 q 767 1031 751 1031 l 849 1031 q 864 1014 864 1031 l 864 343 m 324 1331 q 329 1338 325 1336 q 339 1338 333 1340 l 661 1204 q 667 1185 672 1199 l 656 1154 q 648 1142 653 1144 q 633 1143 643 1140 l 317 1243 q 301 1267 294 1249 l 324 1331 z "},"Ű":{"ha":985,"x_min":122,"x_max":864,"o":"m 864 343 q 770 73 864 160 q 493 -14 676 -14 q 211 79 300 -14 q 122 367 122 172 l 122 1011 q 138 1031 122 1031 l 238 1031 q 254 1013 254 1031 l 254 338 q 316 150 254 211 q 501 89 378 89 q 688 151 625 89 q 751 342 751 213 l 751 1013 q 767 1031 751 1031 l 849 1031 q 864 1014 864 1031 l 864 343 m 553 1283 q 560 1271 560 1276 q 549 1256 560 1264 l 369 1104 q 356 1099 358 1099 q 344 1106 349 1099 l 324 1132 q 322 1151 314 1143 l 493 1335 q 513 1335 504 1343 l 553 1283 m 779 1283 q 786 1271 786 1276 q 775 1256 786 1264 l 594 1104 q 581 1099 583 1099 q 571 1106 575 1099 l 549 1132 q 549 1151 539 1144 l 719 1335 q 729 1339 724 1339 q 738 1335 735 1339 l 779 1283 z "},"Ȗ":{"ha":985,"x_min":122,"x_max":864,"o":"m 864 343 q 770 73 864 160 q 493 -14 676 -14 q 211 79 300 -14 q 122 367 122 172 l 122 1011 q 138 1031 122 1031 l 238 1031 q 254 1013 254 1031 l 254 338 q 316 150 254 211 q 501 89 378 89 q 688 151 625 89 q 751 342 751 213 l 751 1013 q 767 1031 751 1031 l 849 1031 q 864 1014 864 1031 l 864 343 m 629 1183 q 613 1194 619 1183 q 568 1239 597 1221 q 500 1257 539 1257 q 434 1240 458 1257 q 392 1196 410 1222 q 382 1186 386 1189 q 369 1183 378 1183 l 306 1183 q 297 1197 293 1183 q 367 1294 314 1256 q 500 1333 421 1333 q 635 1294 581 1333 q 707 1199 690 1254 q 708 1192 708 1196 q 694 1183 708 1183 l 629 1183 z "},"Ū":{"ha":985,"x_min":122,"x_max":864,"o":"m 864 343 q 770 73 864 160 q 493 -14 676 -14 q 211 79 300 -14 q 122 367 122 172 l 122 1011 q 138 1031 122 1031 l 238 1031 q 254 1013 254 1031 l 254 338 q 316 150 254 211 q 501 89 378 89 q 688 151 625 89 q 751 342 751 213 l 751 1013 q 767 1031 751 1031 l 849 1031 q 864 1014 864 1031 l 864 343 m 708 1238 q 688 1219 708 1219 l 313 1219 q 301 1224 304 1219 q 297 1236 297 1228 l 297 1290 q 300 1301 297 1297 q 308 1306 303 1306 l 697 1306 q 706 1301 703 1306 q 708 1292 708 1297 l 708 1238 z "},"Ų":{"ha":985,"x_min":122,"x_max":864,"o":"m 849 1031 q 864 1014 864 1031 l 864 343 q 608 -4 864 46 q 513 -59 542 -33 q 485 -118 485 -85 q 501 -158 485 -146 q 554 -171 518 -171 q 603 -165 581 -171 q 640 -153 626 -160 q 650 -150 649 -150 q 656 -160 656 -150 l 656 -200 q 647 -215 656 -210 q 595 -232 629 -225 q 526 -239 561 -239 q 423 -209 458 -239 q 388 -126 388 -179 q 407 -64 388 -92 q 471 -14 426 -36 q 206 85 289 -8 q 122 367 122 178 l 122 1011 q 138 1031 122 1031 l 238 1031 q 254 1013 254 1031 l 254 338 q 316 150 254 211 q 501 89 378 89 q 688 151 625 89 q 751 342 751 213 l 751 1013 q 767 1031 751 1031 l 849 1031 z "},"Ů":{"ha":985,"x_min":122,"x_max":864,"o":"m 864 343 q 770 73 864 160 q 493 -14 676 -14 q 211 79 300 -14 q 122 367 122 172 l 122 1011 q 138 1031 122 1031 l 238 1031 q 254 1013 254 1031 l 254 338 q 316 150 254 211 q 501 89 378 89 q 688 151 625 89 q 751 342 751 213 l 751 1013 q 767 1031 751 1031 l 849 1031 q 864 1014 864 1031 l 864 343 m 651 1192 q 610 1088 651 1129 q 507 1046 568 1046 q 403 1088 446 1046 q 361 1194 361 1131 q 403 1294 361 1253 q 507 1335 446 1335 q 609 1293 567 1335 q 651 1192 651 1251 m 582 1190 q 560 1247 582 1225 q 506 1268 538 1268 q 450 1246 474 1268 q 426 1190 426 1224 q 450 1136 426 1160 q 506 1113 474 1113 q 560 1135 538 1113 q 582 1190 582 1158 z "},"Ũ":{"ha":985,"x_min":122,"x_max":864,"o":"m 864 343 q 770 73 864 160 q 493 -14 676 -14 q 211 79 300 -14 q 122 367 122 172 l 122 1011 q 138 1031 122 1031 l 238 1031 q 254 1013 254 1031 l 254 338 q 316 150 254 211 q 501 89 378 89 q 688 151 625 89 q 751 342 751 213 l 751 1013 q 767 1031 751 1031 l 849 1031 q 864 1014 864 1031 l 864 343 m 699 1235 q 652 1213 676 1221 q 593 1204 628 1204 q 497 1224 553 1204 q 417 1240 447 1240 q 378 1234 393 1240 q 350 1221 363 1228 q 333 1211 338 1214 q 324 1207 326 1207 q 314 1218 318 1207 l 300 1256 q 299 1264 299 1258 q 306 1275 299 1269 q 356 1306 333 1296 q 411 1317 378 1317 q 456 1312 435 1317 q 507 1297 476 1307 q 551 1284 529 1290 q 594 1278 574 1278 q 635 1285 618 1278 q 674 1306 651 1292 q 685 1310 681 1310 q 696 1299 692 1310 l 710 1256 q 711 1249 711 1253 q 699 1235 711 1242 z "},"V":{"ha":982,"x_min":63,"x_max":921,"o":"m 904 1031 q 917 1024 914 1031 q 918 1011 921 1018 l 567 21 q 556 5 563 10 q 536 0 549 0 l 442 0 q 408 19 414 0 l 64 1010 q 63 1017 63 1013 q 79 1031 63 1031 l 175 1031 q 199 1014 192 1031 l 488 172 q 497 160 492 160 q 508 174 503 160 l 801 1015 q 822 1031 806 1031 l 904 1031 z "},"W":{"ha":1451,"x_min":65,"x_max":1390,"o":"m 1368 1031 q 1385 1024 1381 1031 q 1388 1006 1390 1017 l 1101 21 q 1092 5 1099 10 q 1071 0 1085 0 l 986 0 q 954 19 960 0 l 732 807 q 722 806 728 822 l 497 21 q 488 5 494 10 q 467 0 481 0 l 381 0 q 349 19 354 0 l 67 1006 q 65 1013 65 1008 q 86 1031 65 1031 l 175 1031 q 199 1014 194 1031 l 425 206 q 433 190 429 190 q 442 204 439 190 l 672 1015 q 697 1031 678 1031 l 776 1031 q 793 1027 788 1031 q 801 1014 799 1024 l 1029 201 q 1038 189 1033 189 q 1046 201 1042 189 l 1275 1015 q 1299 1031 1278 1031 l 1368 1031 z "},"Ẃ":{"ha":1451,"x_min":65,"x_max":1388,"o":"m 1368 1031 q 1385 1024 1381 1031 q 1388 1006 1390 1017 l 1101 21 q 1092 5 1099 10 q 1071 0 1085 0 l 986 0 q 954 19 960 0 l 732 807 q 722 806 728 822 l 497 21 q 488 5 494 10 q 467 0 481 0 l 381 0 q 349 19 354 0 l 67 1006 q 65 1013 65 1008 q 86 1031 65 1031 l 175 1031 q 199 1014 194 1031 l 425 206 q 433 190 429 190 q 442 204 439 190 l 672 1015 q 697 1031 678 1031 l 776 1031 q 793 1027 788 1031 q 801 1014 799 1024 l 1029 201 q 1038 189 1033 189 q 1046 201 1042 189 l 1275 1015 q 1299 1031 1278 1031 l 1368 1031 m 911 1267 q 913 1258 913 1264 q 897 1243 913 1247 l 579 1143 q 571 1142 576 1142 q 557 1154 561 1142 l 546 1185 q 544 1192 544 1188 q 553 1204 544 1203 l 874 1338 q 879 1339 875 1339 q 890 1331 888 1339 l 911 1267 z "},"Ŵ":{"ha":1451,"x_min":65,"x_max":1388,"o":"m 1368 1031 q 1385 1024 1381 1031 q 1388 1006 1390 1017 l 1101 21 q 1092 5 1099 10 q 1071 0 1085 0 l 986 0 q 954 19 960 0 l 732 807 q 722 806 728 822 l 497 21 q 488 5 494 10 q 467 0 481 0 l 381 0 q 349 19 354 0 l 67 1006 q 65 1013 65 1008 q 86 1031 65 1031 l 175 1031 q 199 1014 194 1031 l 425 206 q 433 190 429 190 q 442 204 439 190 l 672 1015 q 697 1031 678 1031 l 776 1031 q 793 1027 788 1031 q 801 1014 799 1024 l 1029 201 q 1038 189 1033 189 q 1046 201 1042 189 l 1275 1015 q 1299 1031 1278 1031 l 1368 1031 m 744 1249 q 737 1256 742 1251 q 729 1261 732 1261 q 713 1249 725 1261 l 632 1179 q 620 1172 625 1174 q 607 1171 615 1171 l 532 1171 q 522 1176 522 1171 q 529 1188 522 1181 l 671 1314 q 706 1329 686 1329 l 760 1329 q 776 1325 769 1329 q 788 1317 782 1321 l 928 1188 q 936 1175 936 1179 q 926 1171 936 1171 l 844 1171 q 819 1179 829 1171 l 744 1249 z "},"Ẅ":{"ha":1451,"x_min":65,"x_max":1388,"o":"m 1368 1031 q 1385 1024 1381 1031 q 1388 1006 1390 1017 l 1101 21 q 1092 5 1099 10 q 1071 0 1085 0 l 986 0 q 954 19 960 0 l 732 807 q 722 806 728 822 l 497 21 q 488 5 494 10 q 467 0 481 0 l 381 0 q 349 19 354 0 l 67 1006 q 65 1013 65 1008 q 86 1031 65 1031 l 175 1031 q 199 1014 194 1031 l 425 206 q 433 190 429 190 q 442 204 439 190 l 672 1015 q 697 1031 678 1031 l 776 1031 q 793 1027 788 1031 q 801 1014 799 1024 l 1029 201 q 1038 189 1033 189 q 1046 201 1042 189 l 1275 1015 q 1299 1031 1278 1031 l 1368 1031 m 685 1193 q 680 1176 685 1181 q 663 1172 675 1172 l 589 1172 q 574 1176 578 1172 q 569 1190 569 1179 l 569 1307 q 573 1321 569 1317 q 585 1325 576 1325 l 669 1325 q 681 1322 678 1325 q 685 1308 685 1318 l 685 1193 m 889 1193 q 884 1176 889 1181 q 865 1172 879 1172 l 793 1172 q 776 1176 781 1172 q 772 1190 772 1179 l 772 1307 q 788 1325 772 1325 l 874 1325 q 885 1322 882 1325 q 889 1308 889 1318 l 889 1193 z "},"Ẁ":{"ha":1451,"x_min":65,"x_max":1388,"o":"m 1368 1031 q 1385 1024 1381 1031 q 1388 1006 1390 1017 l 1101 21 q 1092 5 1099 10 q 1071 0 1085 0 l 986 0 q 954 19 960 0 l 732 807 q 722 806 728 822 l 497 21 q 488 5 494 10 q 467 0 481 0 l 381 0 q 349 19 354 0 l 67 1006 q 65 1013 65 1008 q 86 1031 65 1031 l 175 1031 q 199 1014 194 1031 l 425 206 q 433 190 429 190 q 442 204 439 190 l 672 1015 q 697 1031 678 1031 l 776 1031 q 793 1027 788 1031 q 801 1014 799 1024 l 1029 201 q 1038 189 1033 189 q 1046 201 1042 189 l 1275 1015 q 1299 1031 1278 1031 l 1368 1031 m 550 1331 q 556 1338 551 1336 q 565 1338 560 1340 l 888 1204 q 893 1185 899 1199 l 882 1154 q 874 1142 879 1144 q 860 1143 869 1140 l 543 1243 q 528 1267 521 1249 l 550 1331 z "},"X":{"ha":956,"x_min":63,"x_max":894,"o":"m 886 29 q 894 11 894 17 q 876 0 894 0 l 771 0 q 749 11 754 0 l 485 408 q 469 422 475 422 q 453 406 464 422 l 193 11 q 169 0 186 0 l 78 0 q 63 8 63 0 q 71 29 63 15 l 389 508 q 396 525 396 518 q 389 543 396 532 l 78 1010 q 75 1019 75 1015 q 86 1031 75 1031 l 199 1031 q 213 1028 208 1031 q 222 1018 218 1025 l 465 647 q 478 638 471 638 q 492 647 486 638 l 735 1018 q 757 1031 742 1031 l 858 1031 q 868 1025 867 1031 q 865 1013 869 1019 l 557 553 q 551 538 551 546 q 557 522 551 529 l 886 29 z "},"Y":{"ha":938,"x_min":57,"x_max":883,"o":"m 867 1031 q 880 1025 876 1031 q 878 1011 883 1019 l 547 458 q 540 441 542 450 q 539 413 539 432 l 539 24 q 533 6 539 11 q 513 0 526 0 l 429 0 q 407 21 407 0 l 407 407 q 405 426 407 419 q 396 444 403 433 l 61 1008 q 57 1019 57 1015 q 76 1031 57 1031 l 176 1031 q 194 1027 189 1031 q 206 1014 199 1024 l 464 569 q 479 553 472 553 q 494 567 485 553 l 751 1014 q 763 1027 757 1024 q 781 1031 768 1031 l 867 1031 z "},"Ý":{"ha":938,"x_min":57,"x_max":881,"o":"m 867 1031 q 880 1025 876 1031 q 878 1011 883 1019 l 547 458 q 540 441 542 450 q 539 413 539 432 l 539 24 q 533 6 539 11 q 513 0 526 0 l 429 0 q 407 21 407 0 l 407 407 q 405 426 407 419 q 396 444 403 433 l 61 1008 q 57 1019 57 1015 q 76 1031 57 1031 l 176 1031 q 194 1027 189 1031 q 206 1014 199 1024 l 464 569 q 479 553 472 553 q 494 567 485 553 l 751 1014 q 763 1027 757 1024 q 781 1031 768 1031 l 867 1031 m 651 1267 q 653 1258 653 1264 q 638 1243 653 1247 l 319 1143 q 311 1142 317 1142 q 297 1154 301 1142 l 286 1185 q 285 1192 285 1188 q 293 1204 285 1203 l 614 1338 q 619 1339 615 1339 q 631 1331 628 1339 l 651 1267 z "},"Ŷ":{"ha":938,"x_min":57,"x_max":881,"o":"m 867 1031 q 880 1025 876 1031 q 878 1011 883 1019 l 547 458 q 540 441 542 450 q 539 413 539 432 l 539 24 q 533 6 539 11 q 513 0 526 0 l 429 0 q 407 21 407 0 l 407 407 q 405 426 407 419 q 396 444 403 433 l 61 1008 q 57 1019 57 1015 q 76 1031 57 1031 l 176 1031 q 194 1027 189 1031 q 206 1014 199 1024 l 464 569 q 479 553 472 553 q 494 567 485 553 l 751 1014 q 763 1027 757 1024 q 781 1031 768 1031 l 867 1031 m 485 1249 q 477 1256 482 1251 q 469 1261 472 1261 q 453 1249 465 1261 l 372 1179 q 360 1172 365 1174 q 347 1171 356 1171 l 272 1171 q 263 1176 263 1171 q 269 1188 263 1181 l 411 1314 q 446 1329 426 1329 l 500 1329 q 516 1325 510 1329 q 528 1317 522 1321 l 668 1188 q 676 1175 676 1179 q 667 1171 676 1171 l 585 1171 q 560 1179 569 1171 l 485 1249 z "},"Ÿ":{"ha":938,"x_min":57,"x_max":881,"o":"m 867 1031 q 880 1025 876 1031 q 878 1011 883 1019 l 547 458 q 540 441 542 450 q 539 413 539 432 l 539 24 q 533 6 539 11 q 513 0 526 0 l 429 0 q 407 21 407 0 l 407 407 q 405 426 407 419 q 396 444 403 433 l 61 1008 q 57 1019 57 1015 q 76 1031 57 1031 l 176 1031 q 194 1027 189 1031 q 206 1014 199 1024 l 464 569 q 479 553 472 553 q 494 567 485 553 l 751 1014 q 763 1027 757 1024 q 781 1031 768 1031 l 867 1031 m 425 1193 q 420 1176 425 1181 q 403 1172 415 1172 l 329 1172 q 314 1176 318 1172 q 310 1190 310 1179 l 310 1307 q 313 1321 310 1317 q 325 1325 317 1325 l 410 1325 q 422 1322 418 1325 q 425 1308 425 1318 l 425 1193 m 629 1193 q 624 1176 629 1181 q 606 1172 619 1172 l 533 1172 q 517 1176 521 1172 q 513 1190 513 1179 l 513 1307 q 528 1325 513 1325 l 614 1325 q 626 1322 622 1325 q 629 1308 629 1318 l 629 1193 z "},"Ỳ":{"ha":938,"x_min":57,"x_max":881,"o":"m 867 1031 q 880 1025 876 1031 q 878 1011 883 1019 l 547 458 q 540 441 542 450 q 539 413 539 432 l 539 24 q 533 6 539 11 q 513 0 526 0 l 429 0 q 407 21 407 0 l 407 407 q 405 426 407 419 q 396 444 403 433 l 61 1008 q 57 1019 57 1015 q 76 1031 57 1031 l 176 1031 q 194 1027 189 1031 q 206 1014 199 1024 l 464 569 q 479 553 472 553 q 494 567 485 553 l 751 1014 q 763 1027 757 1024 q 781 1031 768 1031 l 867 1031 m 290 1331 q 296 1338 292 1336 q 306 1338 300 1340 l 628 1204 q 633 1185 639 1199 l 622 1154 q 615 1142 619 1144 q 600 1143 610 1140 l 283 1243 q 268 1267 261 1249 l 290 1331 z "},"Ỹ":{"ha":938,"x_min":57,"x_max":881,"o":"m 867 1031 q 880 1025 876 1031 q 878 1011 883 1019 l 547 458 q 540 441 542 450 q 539 413 539 432 l 539 24 q 533 6 539 11 q 513 0 526 0 l 429 0 q 407 21 407 0 l 407 407 q 405 426 407 419 q 396 444 403 433 l 61 1008 q 57 1019 57 1015 q 76 1031 57 1031 l 176 1031 q 194 1027 189 1031 q 206 1014 199 1024 l 464 569 q 479 553 472 553 q 494 567 485 553 l 751 1014 q 763 1027 757 1024 q 781 1031 768 1031 l 867 1031 m 665 1235 q 619 1213 643 1221 q 560 1204 594 1204 q 464 1224 519 1204 q 383 1240 414 1240 q 344 1234 360 1240 q 317 1221 329 1228 q 300 1211 304 1214 q 290 1207 293 1207 q 281 1218 285 1207 l 267 1256 q 265 1264 265 1258 q 272 1275 265 1269 q 322 1306 300 1296 q 378 1317 344 1317 q 422 1312 401 1317 q 474 1297 443 1307 q 518 1284 496 1290 q 561 1278 540 1278 q 601 1285 585 1278 q 640 1306 618 1292 q 651 1310 647 1310 q 663 1299 658 1310 l 676 1256 q 678 1249 678 1253 q 665 1235 678 1242 z "},"Z":{"ha":876,"x_min":65,"x_max":808,"o":"m 83 0 q 69 3 74 0 q 65 17 65 7 l 65 49 q 68 65 65 58 q 81 86 71 72 l 621 914 q 624 922 624 919 q 614 928 624 928 l 103 928 q 88 943 88 928 l 88 1017 q 101 1031 88 1031 l 796 1031 q 808 1017 808 1031 l 808 981 q 797 953 808 968 l 249 117 q 247 108 244 111 q 254 104 249 104 l 792 104 q 807 92 807 104 l 807 15 q 790 0 807 0 l 83 0 z "},"Ź":{"ha":876,"x_min":65,"x_max":808,"o":"m 83 0 q 69 3 74 0 q 65 17 65 7 l 65 49 q 68 65 65 58 q 81 86 71 72 l 621 914 q 624 922 624 919 q 614 928 624 928 l 103 928 q 88 943 88 928 l 88 1017 q 101 1031 88 1031 l 796 1031 q 808 1017 808 1031 l 808 981 q 797 953 808 968 l 249 117 q 247 108 244 111 q 254 104 249 104 l 792 104 q 807 92 807 104 l 807 15 q 790 0 807 0 l 83 0 m 631 1267 q 632 1258 632 1264 q 617 1243 632 1247 l 299 1143 q 290 1142 296 1142 q 276 1154 281 1142 l 265 1185 q 264 1192 264 1188 q 272 1204 264 1203 l 593 1338 q 599 1339 594 1339 q 610 1331 607 1339 l 631 1267 z "},"Ž":{"ha":876,"x_min":65,"x_max":808,"o":"m 83 0 q 69 3 74 0 q 65 17 65 7 l 65 49 q 68 65 65 58 q 81 86 71 72 l 621 914 q 624 922 624 919 q 614 928 624 928 l 103 928 q 88 943 88 928 l 88 1017 q 101 1031 88 1031 l 796 1031 q 808 1017 808 1031 l 808 981 q 797 953 808 968 l 249 117 q 247 108 244 111 q 254 104 249 104 l 792 104 q 807 92 807 104 l 807 15 q 790 0 807 0 l 83 0 m 539 1315 q 564 1325 549 1325 l 646 1325 q 656 1321 656 1325 q 647 1308 656 1317 l 507 1179 q 495 1171 501 1175 q 479 1167 489 1167 l 425 1167 q 390 1181 407 1167 l 249 1308 q 242 1320 242 1315 q 251 1325 243 1325 l 326 1325 q 340 1324 336 1325 q 351 1315 344 1322 l 432 1247 q 449 1235 444 1235 q 456 1240 451 1235 q 464 1247 461 1244 l 539 1315 z "},"Ż":{"ha":876,"x_min":65,"x_max":808,"o":"m 83 0 q 69 3 74 0 q 65 17 65 7 l 65 49 q 68 65 65 58 q 81 86 71 72 l 621 914 q 624 922 624 919 q 614 928 624 928 l 103 928 q 88 943 88 928 l 88 1017 q 101 1031 88 1031 l 796 1031 q 808 1017 808 1031 l 808 981 q 797 953 808 968 l 249 117 q 247 108 244 111 q 254 104 249 104 l 792 104 q 807 92 807 104 l 807 15 q 790 0 807 0 l 83 0 m 511 1185 q 506 1167 511 1172 q 486 1163 500 1163 l 406 1163 q 389 1167 393 1163 q 385 1182 385 1171 l 385 1306 q 388 1321 385 1317 q 401 1325 392 1325 l 496 1325 q 511 1307 511 1325 l 511 1185 z "},"Ẓ":{"ha":876,"x_min":65,"x_max":808,"o":"m 83 0 q 69 3 74 0 q 65 17 65 7 l 65 49 q 68 65 65 58 q 81 86 71 72 l 621 914 q 624 922 624 919 q 614 928 624 928 l 103 928 q 88 943 88 928 l 88 1017 q 101 1031 88 1031 l 796 1031 q 808 1017 808 1031 l 808 981 q 797 953 808 968 l 249 117 q 247 108 244 111 q 254 104 249 104 l 792 104 q 807 92 807 104 l 807 15 q 790 0 807 0 l 83 0 m 501 -208 q 497 -225 501 -221 q 481 -229 493 -229 l 411 -229 q 397 -226 401 -229 q 393 -212 393 -222 l 393 -94 q 407 -78 393 -78 l 488 -78 q 499 -81 496 -78 q 501 -93 501 -85 l 501 -208 z "},"a":{"ha":761,"x_min":56,"x_max":665,"o":"m 535 89 q 288 -14 428 -14 q 117 41 179 -14 q 56 188 56 96 q 149 363 56 299 q 421 438 243 426 l 529 446 q 553 467 553 449 l 553 504 q 506 623 553 579 q 381 667 460 667 q 181 556 258 667 q 172 547 176 549 q 161 547 168 544 l 86 572 q 79 582 79 575 q 83 594 79 586 q 202 709 125 668 q 385 750 279 750 q 593 687 521 750 q 665 513 665 624 l 665 21 q 661 4 665 8 q 646 0 657 0 l 576 0 q 557 22 560 0 l 554 86 q 547 96 553 96 q 535 89 542 96 m 553 353 q 532 375 553 375 l 442 367 q 242 317 313 358 q 172 201 172 275 q 215 107 172 142 q 328 72 257 72 q 413 88 371 72 q 486 129 454 103 q 535 183 518 154 q 553 238 553 211 l 553 353 z "},"á":{"ha":761,"x_min":56,"x_max":665,"o":"m 535 89 q 288 -14 428 -14 q 117 41 179 -14 q 56 188 56 96 q 149 363 56 299 q 421 438 243 426 l 529 446 q 553 467 553 449 l 553 504 q 506 623 553 579 q 381 667 460 667 q 181 556 258 667 q 172 547 176 549 q 161 547 168 544 l 86 572 q 79 582 79 575 q 83 594 79 586 q 202 709 125 668 q 385 750 279 750 q 593 687 521 750 q 665 513 665 624 l 665 21 q 661 4 665 8 q 646 0 657 0 l 576 0 q 557 22 560 0 l 554 86 q 547 96 553 96 q 535 89 542 96 m 553 353 q 532 375 553 375 l 442 367 q 242 317 313 358 q 172 201 172 275 q 215 107 172 142 q 328 72 257 72 q 413 88 371 72 q 486 129 454 103 q 535 183 518 154 q 553 238 553 211 l 553 353 m 564 972 q 565 964 565 969 q 550 949 565 953 l 232 849 q 224 847 229 847 q 210 860 214 847 l 199 890 q 197 897 197 893 q 206 910 197 908 l 526 1043 q 532 1044 528 1044 q 543 1036 540 1044 l 564 972 z "},"ă":{"ha":761,"x_min":56,"x_max":665,"o":"m 535 89 q 288 -14 428 -14 q 117 41 179 -14 q 56 188 56 96 q 149 363 56 299 q 421 438 243 426 l 529 446 q 553 467 553 449 l 553 504 q 506 623 553 579 q 381 667 460 667 q 181 556 258 667 q 172 547 176 549 q 161 547 168 544 l 86 572 q 79 582 79 575 q 83 594 79 586 q 202 709 125 668 q 385 750 279 750 q 593 687 521 750 q 665 513 665 624 l 665 21 q 661 4 665 8 q 646 0 657 0 l 576 0 q 557 22 560 0 l 554 86 q 547 96 553 96 q 535 89 542 96 m 553 353 q 532 375 553 375 l 442 367 q 242 317 313 358 q 172 201 172 275 q 215 107 172 142 q 328 72 257 72 q 413 88 371 72 q 486 129 454 103 q 535 183 518 154 q 553 238 553 211 l 553 353 m 575 1031 q 588 1027 585 1031 q 588 1015 590 1024 q 516 920 571 960 q 381 881 461 881 q 248 919 301 881 q 178 1017 194 958 l 178 1022 q 186 1031 178 1031 l 250 1031 q 263 1028 258 1031 q 272 1018 267 1025 q 315 974 290 992 q 381 957 339 957 q 449 975 419 957 q 493 1019 478 993 q 510 1031 500 1031 l 575 1031 z "},"â":{"ha":761,"x_min":56,"x_max":665,"o":"m 535 89 q 288 -14 428 -14 q 117 41 179 -14 q 56 188 56 96 q 149 363 56 299 q 421 438 243 426 l 529 446 q 553 467 553 449 l 553 504 q 506 623 553 579 q 381 667 460 667 q 181 556 258 667 q 172 547 176 549 q 161 547 168 544 l 86 572 q 79 582 79 575 q 83 594 79 586 q 202 709 125 668 q 385 750 279 750 q 593 687 521 750 q 665 513 665 624 l 665 21 q 661 4 665 8 q 646 0 657 0 l 576 0 q 557 22 560 0 l 554 86 q 547 96 553 96 q 535 89 542 96 m 553 353 q 532 375 553 375 l 442 367 q 242 317 313 358 q 172 201 172 275 q 215 107 172 142 q 328 72 257 72 q 413 88 371 72 q 486 129 454 103 q 535 183 518 154 q 553 238 553 211 l 553 353 m 397 954 q 390 962 394 957 q 382 967 385 967 q 365 954 378 967 l 285 885 q 273 878 278 879 q 260 876 268 876 l 185 876 q 175 882 175 876 q 182 893 175 886 l 324 1019 q 358 1035 339 1035 l 413 1035 q 428 1031 422 1035 q 440 1022 435 1026 l 581 893 q 589 881 589 885 q 579 876 589 876 l 497 876 q 472 885 482 876 l 397 954 z "},"ȁ":{"ha":761,"x_min":56,"x_max":665,"o":"m 535 89 q 288 -14 428 -14 q 117 41 179 -14 q 56 188 56 96 q 149 363 56 299 q 421 438 243 426 l 529 446 q 553 467 553 449 l 553 504 q 506 623 553 579 q 381 667 460 667 q 181 556 258 667 q 172 547 176 549 q 161 547 168 544 l 86 572 q 79 582 79 575 q 83 594 79 586 q 202 709 125 668 q 385 750 279 750 q 593 687 521 750 q 665 513 665 624 l 665 21 q 661 4 665 8 q 646 0 657 0 l 576 0 q 557 22 560 0 l 554 86 q 547 96 553 96 q 535 89 542 96 m 553 353 q 532 375 553 375 l 442 367 q 242 317 313 358 q 172 201 172 275 q 215 107 172 142 q 328 72 257 72 q 413 88 371 72 q 486 129 454 103 q 535 183 518 154 q 553 238 553 211 l 553 353 m 138 1040 q 156 1040 146 1050 l 328 857 q 331 849 331 854 q 326 838 331 844 l 304 811 q 294 804 297 804 q 281 810 292 804 l 100 961 q 90 976 90 969 q 96 989 90 981 l 138 1040 m 363 1040 q 371 1044 365 1044 q 381 1040 376 1044 l 551 857 q 556 849 556 856 q 550 838 556 843 l 529 811 q 518 804 522 804 q 504 810 515 804 l 325 961 q 314 976 314 969 q 321 989 314 982 l 363 1040 z "},"ä":{"ha":761,"x_min":56,"x_max":665,"o":"m 535 89 q 288 -14 428 -14 q 117 41 179 -14 q 56 188 56 96 q 149 363 56 299 q 421 438 243 426 l 529 446 q 553 467 553 449 l 553 504 q 506 623 553 579 q 381 667 460 667 q 181 556 258 667 q 172 547 176 549 q 161 547 168 544 l 86 572 q 79 582 79 575 q 83 594 79 586 q 202 709 125 668 q 385 750 279 750 q 593 687 521 750 q 665 513 665 624 l 665 21 q 661 4 665 8 q 646 0 657 0 l 576 0 q 557 22 560 0 l 554 86 q 547 96 553 96 q 535 89 542 96 m 553 353 q 532 375 553 375 l 442 367 q 242 317 313 358 q 172 201 172 275 q 215 107 172 142 q 328 72 257 72 q 413 88 371 72 q 486 129 454 103 q 535 183 518 154 q 553 238 553 211 l 553 353 m 338 899 q 333 882 338 886 q 315 878 328 878 l 242 878 q 226 881 231 878 q 222 896 222 885 l 222 1013 q 226 1026 222 1022 q 238 1031 229 1031 l 322 1031 q 334 1027 331 1031 q 338 1014 338 1024 l 338 899 m 542 899 q 537 882 542 886 q 518 878 532 878 l 446 878 q 429 881 433 878 q 425 896 425 885 l 425 1013 q 440 1031 425 1031 l 526 1031 q 538 1027 535 1031 q 542 1014 542 1024 l 542 899 z "},"à":{"ha":761,"x_min":56,"x_max":665,"o":"m 535 89 q 288 -14 428 -14 q 117 41 179 -14 q 56 188 56 96 q 149 363 56 299 q 421 438 243 426 l 529 446 q 553 467 553 449 l 553 504 q 506 623 553 579 q 381 667 460 667 q 181 556 258 667 q 172 547 176 549 q 161 547 168 544 l 86 572 q 79 582 79 575 q 83 594 79 586 q 202 709 125 668 q 385 750 279 750 q 593 687 521 750 q 665 513 665 624 l 665 21 q 661 4 665 8 q 646 0 657 0 l 576 0 q 557 22 560 0 l 554 86 q 547 96 553 96 q 535 89 542 96 m 553 353 q 532 375 553 375 l 442 367 q 242 317 313 358 q 172 201 172 275 q 215 107 172 142 q 328 72 257 72 q 413 88 371 72 q 486 129 454 103 q 535 183 518 154 q 553 238 553 211 l 553 353 m 203 1036 q 208 1044 204 1042 q 218 1043 213 1046 l 540 910 q 546 890 551 904 l 535 860 q 527 848 532 850 q 513 849 522 846 l 196 949 q 181 972 174 954 l 203 1036 z "},"ȃ":{"ha":761,"x_min":56,"x_max":665,"o":"m 535 89 q 288 -14 428 -14 q 117 41 179 -14 q 56 188 56 96 q 149 363 56 299 q 421 438 243 426 l 529 446 q 553 467 553 449 l 553 504 q 506 623 553 579 q 381 667 460 667 q 181 556 258 667 q 172 547 176 549 q 161 547 168 544 l 86 572 q 79 582 79 575 q 83 594 79 586 q 202 709 125 668 q 385 750 279 750 q 593 687 521 750 q 665 513 665 624 l 665 21 q 661 4 665 8 q 646 0 657 0 l 576 0 q 557 22 560 0 l 554 86 q 547 96 553 96 q 535 89 542 96 m 553 353 q 532 375 553 375 l 442 367 q 242 317 313 358 q 172 201 172 275 q 215 107 172 142 q 328 72 257 72 q 413 88 371 72 q 486 129 454 103 q 535 183 518 154 q 553 238 553 211 l 553 353 m 508 889 q 492 900 499 889 q 447 944 476 926 q 379 963 418 963 q 313 945 338 963 q 271 901 289 928 q 261 892 265 894 q 249 889 257 889 l 185 889 q 176 903 172 889 q 247 1000 193 961 q 379 1039 300 1039 q 515 999 460 1039 q 586 904 569 960 q 588 897 588 901 q 574 889 588 889 l 508 889 z "},"ā":{"ha":761,"x_min":56,"x_max":665,"o":"m 535 89 q 288 -14 428 -14 q 117 41 179 -14 q 56 188 56 96 q 149 363 56 299 q 421 438 243 426 l 529 446 q 553 467 553 449 l 553 504 q 506 623 553 579 q 381 667 460 667 q 181 556 258 667 q 172 547 176 549 q 161 547 168 544 l 86 572 q 79 582 79 575 q 83 594 79 586 q 202 709 125 668 q 385 750 279 750 q 593 687 521 750 q 665 513 665 624 l 665 21 q 661 4 665 8 q 646 0 657 0 l 576 0 q 557 22 560 0 l 554 86 q 547 96 553 96 q 535 89 542 96 m 553 353 q 532 375 553 375 l 442 367 q 242 317 313 358 q 172 201 172 275 q 215 107 172 142 q 328 72 257 72 q 413 88 371 72 q 486 129 454 103 q 535 183 518 154 q 553 238 553 211 l 553 353 m 588 943 q 567 925 588 925 l 192 925 q 180 929 183 925 q 176 942 176 933 l 176 996 q 179 1007 176 1003 q 188 1011 182 1011 l 576 1011 q 585 1007 582 1011 q 588 997 588 1003 l 588 943 z "},"ą":{"ha":761,"x_min":56,"x_max":696,"o":"m 681 -147 q 690 -144 689 -144 q 696 -154 696 -144 l 696 -194 q 688 -210 696 -204 q 635 -226 669 -219 q 567 -233 601 -233 q 463 -203 499 -233 q 428 -121 428 -174 q 458 -45 428 -78 q 560 11 488 -12 q 557 22 557 19 l 554 86 q 547 96 553 96 q 535 89 542 96 q 288 -14 428 -14 q 117 41 179 -14 q 56 188 56 96 q 149 363 56 299 q 421 438 243 426 l 529 446 q 553 467 553 449 l 553 504 q 506 623 553 579 q 381 667 460 667 q 181 556 258 667 q 172 547 176 549 q 161 547 168 544 l 86 572 q 79 582 79 575 q 83 594 79 586 q 202 709 125 668 q 385 750 279 750 q 593 687 521 750 q 665 513 665 624 l 665 21 q 661 4 665 8 q 646 0 657 0 l 644 0 q 553 -54 581 -29 q 525 -112 525 -79 q 542 -153 525 -140 q 594 -165 558 -165 q 644 -160 621 -165 q 681 -147 667 -154 m 553 353 q 532 375 553 375 l 442 367 q 242 317 313 358 q 172 201 172 275 q 215 107 172 142 q 328 72 257 72 q 413 88 371 72 q 486 129 454 103 q 535 183 518 154 q 553 238 553 211 l 553 353 z "},"å":{"ha":761,"x_min":56,"x_max":665,"o":"m 535 89 q 288 -14 428 -14 q 117 41 179 -14 q 56 188 56 96 q 149 363 56 299 q 421 438 243 426 l 529 446 q 553 467 553 449 l 553 504 q 506 623 553 579 q 381 667 460 667 q 181 556 258 667 q 172 547 176 549 q 161 547 168 544 l 86 572 q 79 582 79 575 q 83 594 79 586 q 202 709 125 668 q 385 750 279 750 q 593 687 521 750 q 665 513 665 624 l 665 21 q 661 4 665 8 q 646 0 657 0 l 576 0 q 557 22 560 0 l 554 86 q 547 96 553 96 q 535 89 542 96 m 553 353 q 532 375 553 375 l 442 367 q 242 317 313 358 q 172 201 172 275 q 215 107 172 142 q 328 72 257 72 q 413 88 371 72 q 486 129 454 103 q 535 183 518 154 q 553 238 553 211 l 553 353 m 526 969 q 485 865 526 907 q 382 824 443 824 q 278 866 321 824 q 236 972 236 908 q 278 1072 236 1031 q 382 1113 321 1113 q 484 1071 442 1113 q 526 969 526 1029 m 457 968 q 435 1024 457 1003 q 381 1046 413 1046 q 325 1024 349 1046 q 301 968 301 1001 q 325 914 301 938 q 381 890 349 890 q 435 913 413 890 q 457 968 457 936 z "},"ǻ":{"ha":761,"x_min":56,"x_max":665,"o":"m 535 89 q 288 -14 428 -14 q 117 41 179 -14 q 56 188 56 96 q 149 363 56 299 q 421 438 243 426 l 529 446 q 553 467 553 449 l 553 504 q 506 623 553 579 q 381 667 460 667 q 181 556 258 667 q 172 547 176 549 q 161 547 168 544 l 86 572 q 79 582 79 575 q 83 594 79 586 q 202 709 125 668 q 385 750 279 750 q 593 687 521 750 q 665 513 665 624 l 665 21 q 661 4 665 8 q 646 0 657 0 l 576 0 q 557 22 560 0 l 554 86 q 547 96 553 96 q 535 89 542 96 m 553 353 q 532 375 553 375 l 442 367 q 242 317 313 358 q 172 201 172 275 q 215 107 172 142 q 328 72 257 72 q 413 88 371 72 q 486 129 454 103 q 535 183 518 154 q 553 238 553 211 l 553 353 m 565 1258 q 567 1250 567 1256 q 551 1235 567 1239 l 233 1135 q 225 1133 231 1133 q 211 1146 215 1133 l 200 1176 q 199 1183 199 1179 q 207 1196 199 1194 l 528 1329 q 533 1331 529 1331 q 544 1322 542 1331 l 565 1258 m 553 953 q 511 849 553 890 q 408 807 469 807 q 305 849 347 807 q 263 956 263 892 q 305 1055 263 1014 q 408 1096 347 1096 q 510 1054 468 1096 q 553 953 553 1013 m 483 951 q 461 1008 483 986 q 407 1029 439 1029 q 351 1007 375 1029 q 328 951 328 985 q 351 897 328 921 q 407 874 375 874 q 461 897 439 874 q 483 951 483 919 z "},"ã":{"ha":761,"x_min":56,"x_max":665,"o":"m 535 89 q 288 -14 428 -14 q 117 41 179 -14 q 56 188 56 96 q 149 363 56 299 q 421 438 243 426 l 529 446 q 553 467 553 449 l 553 504 q 506 623 553 579 q 381 667 460 667 q 181 556 258 667 q 172 547 176 549 q 161 547 168 544 l 86 572 q 79 582 79 575 q 83 594 79 586 q 202 709 125 668 q 385 750 279 750 q 593 687 521 750 q 665 513 665 624 l 665 21 q 661 4 665 8 q 646 0 657 0 l 576 0 q 557 22 560 0 l 554 86 q 547 96 553 96 q 535 89 542 96 m 553 353 q 532 375 553 375 l 442 367 q 242 317 313 358 q 172 201 172 275 q 215 107 172 142 q 328 72 257 72 q 413 88 371 72 q 486 129 454 103 q 535 183 518 154 q 553 238 553 211 l 553 353 m 578 940 q 531 918 556 926 q 472 910 507 910 q 376 929 432 910 q 296 946 326 946 q 257 940 272 946 q 229 926 242 933 q 213 917 217 919 q 203 913 206 913 q 193 924 197 913 l 179 961 q 178 969 178 964 q 185 981 178 975 q 235 1012 213 1001 q 290 1022 257 1022 q 335 1017 314 1022 q 386 1003 356 1013 q 431 990 408 996 q 474 983 453 983 q 514 990 497 983 q 553 1011 531 997 q 564 1015 560 1015 q 575 1004 571 1015 l 589 961 q 590 954 590 958 q 578 940 590 947 z "},"æ":{"ha":1286,"x_min":56,"x_max":1229,"o":"m 690 342 q 670 336 675 342 q 665 311 665 331 q 697 198 665 253 q 785 109 729 143 q 906 75 840 75 q 1033 106 985 75 q 1125 190 1081 136 q 1133 197 1131 196 q 1143 194 1136 197 l 1200 165 q 1203 146 1211 158 q 1077 28 1157 69 q 893 -14 997 -14 q 724 29 790 -14 q 607 136 657 72 q 599 136 603 143 q 470 27 540 68 q 289 -14 400 -14 q 117 41 178 -14 q 56 192 56 96 q 143 360 56 297 q 406 436 231 424 l 528 446 q 553 467 553 449 l 553 504 q 506 624 553 581 q 375 667 460 667 q 181 556 258 667 q 171 546 175 547 q 158 547 167 544 l 86 572 q 81 582 82 575 q 83 594 81 589 q 385 750 174 750 q 545 717 485 750 q 632 615 606 683 q 742 716 675 682 q 894 750 808 750 q 1070 706 994 750 q 1188 576 1146 661 q 1229 374 1229 492 q 1224 350 1229 357 q 1204 343 1219 343 l 690 342 m 896 667 q 781 637 832 667 q 699 551 729 607 q 668 421 668 494 l 1089 419 q 1108 424 1104 419 q 1113 440 1113 428 q 1085 552 1113 500 q 1008 635 1057 604 q 896 667 958 667 m 553 350 q 548 366 553 361 q 531 371 543 371 l 429 363 q 238 311 304 353 q 172 199 172 269 q 211 106 172 140 q 318 71 250 71 q 435 94 381 71 q 521 155 489 117 q 553 239 553 193 l 553 350 z "},"ǽ":{"ha":1286,"x_min":56,"x_max":1229,"o":"m 690 342 q 670 336 675 342 q 665 311 665 331 q 697 198 665 253 q 785 109 729 143 q 906 75 840 75 q 1033 106 985 75 q 1125 190 1081 136 q 1133 197 1131 196 q 1143 194 1136 197 l 1200 165 q 1203 146 1211 158 q 1077 28 1157 69 q 893 -14 997 -14 q 724 29 790 -14 q 607 136 657 72 q 599 136 603 143 q 470 27 540 68 q 289 -14 400 -14 q 117 41 178 -14 q 56 192 56 96 q 143 360 56 297 q 406 436 231 424 l 528 446 q 553 467 553 449 l 553 504 q 506 624 553 581 q 375 667 460 667 q 181 556 258 667 q 171 546 175 547 q 158 547 167 544 l 86 572 q 81 582 82 575 q 83 594 81 589 q 385 750 174 750 q 545 717 485 750 q 632 615 606 683 q 742 716 675 682 q 894 750 808 750 q 1070 706 994 750 q 1188 576 1146 661 q 1229 374 1229 492 q 1224 350 1229 357 q 1204 343 1219 343 l 690 342 m 896 667 q 781 637 832 667 q 699 551 729 607 q 668 421 668 494 l 1089 419 q 1108 424 1104 419 q 1113 440 1113 428 q 1085 552 1113 500 q 1008 635 1057 604 q 896 667 958 667 m 553 350 q 548 366 553 361 q 531 371 543 371 l 429 363 q 238 311 304 353 q 172 199 172 269 q 211 106 172 140 q 318 71 250 71 q 435 94 381 71 q 521 155 489 117 q 553 239 553 193 l 553 350 m 813 972 q 814 964 814 969 q 799 949 814 953 l 481 849 q 472 847 478 847 q 458 860 463 847 l 447 890 q 446 897 446 893 q 454 910 446 908 l 775 1043 q 781 1044 776 1044 q 792 1036 789 1044 l 813 972 z "},"b":{"ha":832,"x_min":107,"x_max":764,"o":"m 129 0 q 112 5 117 0 q 107 22 107 10 l 107 1011 q 124 1031 107 1031 l 210 1031 q 224 1011 224 1031 l 224 671 q 231 656 224 656 q 244 663 235 656 q 467 750 338 750 q 688 645 613 750 q 764 372 764 540 q 680 90 764 193 q 447 -14 596 -14 q 307 20 363 -14 q 221 96 251 54 q 213 101 217 101 q 206 92 207 101 l 199 22 q 191 5 196 10 q 174 0 186 0 l 129 0 m 224 249 q 252 159 224 200 q 326 94 281 118 q 422 69 372 69 q 583 144 522 69 q 643 369 643 219 q 589 588 643 511 q 432 665 535 665 q 316 638 369 665 q 224 563 263 610 l 224 249 z "},"c":{"ha":753,"x_min":64,"x_max":714,"o":"m 413 750 q 585 703 514 750 q 700 578 657 656 l 703 567 q 693 557 703 558 l 617 539 l 613 538 q 599 549 606 538 q 513 636 554 608 q 419 664 472 664 q 247 584 311 664 q 183 368 183 504 q 248 151 183 231 q 422 72 313 72 q 537 104 488 72 q 626 203 586 136 q 635 210 631 210 q 644 208 639 211 l 704 186 q 710 168 714 182 q 592 37 667 88 q 413 -14 517 -14 q 232 34 311 -14 q 108 168 153 82 q 64 365 64 254 q 108 565 64 476 q 233 701 153 653 q 413 750 313 750 z "},"ć":{"ha":753,"x_min":64,"x_max":711,"o":"m 413 750 q 585 703 514 750 q 700 578 657 656 l 703 567 q 693 557 703 558 l 617 539 l 613 538 q 599 549 606 538 q 513 636 554 608 q 419 664 472 664 q 247 584 311 664 q 183 368 183 504 q 248 151 183 231 q 422 72 313 72 q 537 104 488 72 q 626 203 586 136 q 635 210 631 210 q 644 208 639 211 l 704 186 q 710 168 714 182 q 592 37 667 88 q 413 -14 517 -14 q 232 34 311 -14 q 108 168 153 82 q 64 365 64 254 q 108 565 64 476 q 233 701 153 653 q 413 750 313 750 m 593 972 q 594 964 594 969 q 579 949 594 953 l 261 849 q 253 847 258 847 q 239 860 243 847 l 228 890 q 226 897 226 893 q 235 910 226 908 l 556 1043 q 561 1044 557 1044 q 572 1036 569 1044 l 593 972 z "},"č":{"ha":753,"x_min":64,"x_max":711,"o":"m 413 750 q 585 703 514 750 q 700 578 657 656 l 703 567 q 693 557 703 558 l 617 539 l 613 538 q 599 549 606 538 q 513 636 554 608 q 419 664 472 664 q 247 584 311 664 q 183 368 183 504 q 248 151 183 231 q 422 72 313 72 q 537 104 488 72 q 626 203 586 136 q 635 210 631 210 q 644 208 639 211 l 704 186 q 710 168 714 182 q 592 37 667 88 q 413 -14 517 -14 q 232 34 311 -14 q 108 168 153 82 q 64 365 64 254 q 108 565 64 476 q 233 701 153 653 q 413 750 313 750 m 501 1021 q 526 1031 511 1031 l 608 1031 q 618 1026 618 1031 q 610 1014 618 1022 l 469 885 q 458 876 464 881 q 442 872 451 872 l 388 872 q 353 886 369 872 l 211 1014 q 205 1026 204 1021 q 214 1031 206 1031 l 289 1031 q 303 1029 299 1031 q 314 1021 307 1028 l 394 953 q 411 940 407 940 q 419 945 414 940 q 426 953 424 950 l 501 1021 z "},"ç":{"ha":753,"x_min":64,"x_max":714,"o":"m 704 186 q 710 168 714 182 q 601 44 668 93 q 440 -12 533 -6 l 417 -72 q 417 -77 415 -75 q 422 -79 418 -79 q 511 -112 483 -83 q 539 -182 539 -142 q 495 -262 539 -233 q 388 -292 451 -292 q 265 -261 318 -292 q 260 -249 258 -256 l 275 -212 q 288 -210 279 -206 q 374 -236 326 -236 q 453 -183 453 -236 q 426 -137 453 -153 q 340 -119 399 -122 q 332 -118 333 -119 q 332 -111 331 -117 l 375 -12 q 213 46 283 -4 q 103 178 142 96 q 64 365 64 261 q 108 565 64 476 q 233 701 153 653 q 413 750 313 750 q 585 703 514 750 q 700 578 657 656 l 703 567 q 693 557 703 558 l 617 539 l 613 538 q 599 549 606 538 q 513 636 554 608 q 419 664 472 664 q 247 584 311 664 q 183 368 183 504 q 248 151 183 231 q 422 72 313 72 q 537 104 488 72 q 626 203 586 136 q 635 210 631 210 q 644 208 639 211 l 704 186 z "},"ĉ":{"ha":753,"x_min":64,"x_max":711,"o":"m 413 750 q 585 703 514 750 q 700 578 657 656 l 703 567 q 693 557 703 558 l 617 539 l 613 538 q 599 549 606 538 q 513 636 554 608 q 419 664 472 664 q 247 584 311 664 q 183 368 183 504 q 248 151 183 231 q 422 72 313 72 q 537 104 488 72 q 626 203 586 136 q 635 210 631 210 q 644 208 639 211 l 704 186 q 710 168 714 182 q 592 37 667 88 q 413 -14 517 -14 q 232 34 311 -14 q 108 168 153 82 q 64 365 64 254 q 108 565 64 476 q 233 701 153 653 q 413 750 313 750 m 426 954 q 419 962 424 957 q 411 967 414 967 q 394 954 407 967 l 314 885 q 302 878 307 879 q 289 876 297 876 l 214 876 q 204 882 204 876 q 211 893 204 886 l 353 1019 q 388 1035 368 1035 l 442 1035 q 458 1031 451 1035 q 469 1022 464 1026 l 610 893 q 618 881 618 885 q 608 876 618 876 l 526 876 q 501 885 511 876 l 426 954 z "},"ċ":{"ha":753,"x_min":64,"x_max":711,"o":"m 413 750 q 585 703 514 750 q 700 578 657 656 l 703 567 q 693 557 703 558 l 617 539 l 613 538 q 599 549 606 538 q 513 636 554 608 q 419 664 472 664 q 247 584 311 664 q 183 368 183 504 q 248 151 183 231 q 422 72 313 72 q 537 104 488 72 q 626 203 586 136 q 635 210 631 210 q 644 208 639 211 l 704 186 q 710 168 714 182 q 592 37 667 88 q 413 -14 517 -14 q 232 34 311 -14 q 108 168 153 82 q 64 365 64 254 q 108 565 64 476 q 233 701 153 653 q 413 750 313 750 m 474 890 q 468 873 474 878 q 449 868 463 868 l 368 868 q 351 872 356 868 q 347 888 347 876 l 347 1011 q 351 1026 347 1022 q 364 1031 354 1031 l 458 1031 q 474 1013 474 1031 l 474 890 z "},"d":{"ha":832,"x_min":67,"x_max":724,"o":"m 631 0 q 611 19 611 0 l 611 79 q 604 92 611 92 q 593 85 600 92 q 502 15 551 43 q 375 -14 453 -14 q 217 28 286 -14 q 107 153 147 69 q 67 357 67 238 q 108 563 67 474 q 224 701 150 651 q 392 750 297 750 q 500 731 454 750 q 586 676 546 711 q 601 668 597 668 q 608 686 608 668 l 608 1013 q 624 1031 608 1031 l 708 1031 q 724 1013 724 1031 l 724 22 q 719 5 724 10 q 701 0 715 0 l 631 0 m 607 574 q 517 641 563 618 q 419 664 472 664 q 250 585 314 664 q 186 361 186 506 q 249 143 186 215 q 411 71 313 71 q 510 97 465 71 q 581 161 556 122 q 607 239 607 200 l 607 574 z "},"ð":{"ha":832,"x_min":64,"x_max":767,"o":"m 767 364 q 724 167 767 253 q 601 33 681 81 q 414 -14 521 -14 q 231 33 311 -14 q 108 162 151 79 q 64 350 64 244 q 108 542 64 457 q 231 674 153 626 q 407 722 310 722 q 582 654 514 722 q 385 878 521 785 l 179 761 q 171 760 176 760 q 157 769 163 760 l 142 793 q 138 803 138 800 q 144 813 138 808 l 328 914 q 182 982 261 951 q 176 990 176 985 q 181 999 175 994 l 231 1038 q 237 1041 233 1039 q 244 1043 240 1043 q 257 1040 251 1043 q 419 967 358 1004 l 553 1042 q 560 1043 554 1043 q 569 1039 568 1043 l 589 1003 q 586 989 594 994 l 478 929 q 767 364 767 732 m 418 74 q 537 110 485 74 q 618 210 589 146 q 647 354 647 274 q 618 499 647 435 q 536 600 589 564 q 417 636 483 636 q 297 599 350 636 q 213 499 243 563 q 183 354 183 435 q 213 210 183 274 q 297 110 243 146 q 418 74 350 74 z "},"ď":{"ha":947,"x_min":67,"x_max":924,"o":"m 631 0 q 611 19 611 0 l 611 79 q 604 92 611 92 q 593 85 600 92 q 502 15 551 43 q 375 -14 453 -14 q 217 28 286 -14 q 107 153 147 69 q 67 357 67 238 q 108 563 67 474 q 224 701 150 651 q 392 750 297 750 q 500 731 454 750 q 586 676 546 711 q 601 668 597 668 q 608 686 608 668 l 608 1013 q 624 1031 608 1031 l 708 1031 q 724 1013 724 1031 l 724 22 q 719 5 724 10 q 701 0 715 0 l 631 0 m 607 574 q 517 641 563 618 q 419 664 472 664 q 250 585 314 664 q 186 361 186 506 q 249 143 186 215 q 411 71 313 71 q 510 97 465 71 q 581 161 556 122 q 607 239 607 200 l 607 574 m 819 760 q 811 765 814 760 q 810 774 808 769 l 851 874 q 853 885 854 882 q 846 890 853 889 l 836 892 q 825 896 828 893 q 822 907 822 899 l 822 1018 q 833 1031 822 1031 l 914 1031 q 924 1019 924 1031 l 924 892 q 921 885 924 888 l 874 774 q 865 763 871 767 q 849 760 860 760 l 819 760 z "},"đ":{"ha":846,"x_min":67,"x_max":815,"o":"m 804 929 q 815 917 815 929 l 815 869 q 794 853 815 853 l 724 853 l 724 22 q 719 5 724 10 q 701 0 715 0 l 631 0 q 611 19 611 0 l 611 79 q 604 92 611 92 q 593 85 600 92 q 502 15 551 43 q 375 -14 453 -14 q 217 28 286 -14 q 107 153 147 69 q 67 357 67 238 q 108 563 67 474 q 224 701 150 651 q 392 750 297 750 q 500 731 454 750 q 586 676 546 711 q 601 668 597 668 q 608 686 608 668 l 608 853 l 397 853 q 385 856 388 853 q 382 869 382 860 l 382 914 q 393 929 382 929 l 608 929 l 608 1013 q 624 1031 608 1031 l 708 1031 q 724 1013 724 1031 l 724 929 l 804 929 m 607 574 q 517 641 563 618 q 419 664 472 664 q 250 585 314 664 q 186 361 186 506 q 249 143 186 215 q 411 71 313 71 q 510 97 465 71 q 581 161 556 122 q 607 239 607 200 l 607 574 z "},"ḍ":{"ha":832,"x_min":67,"x_max":724,"o":"m 631 0 q 611 19 611 0 l 611 79 q 604 92 611 92 q 593 85 600 92 q 502 15 551 43 q 375 -14 453 -14 q 217 28 286 -14 q 107 153 147 69 q 67 357 67 238 q 108 563 67 474 q 224 701 150 651 q 392 750 297 750 q 500 731 454 750 q 586 676 546 711 q 601 668 597 668 q 608 686 608 668 l 608 1013 q 624 1031 608 1031 l 708 1031 q 724 1013 724 1031 l 724 22 q 719 5 724 10 q 701 0 715 0 l 631 0 m 607 574 q 517 641 563 618 q 419 664 472 664 q 250 585 314 664 q 186 361 186 506 q 249 143 186 215 q 411 71 313 71 q 510 97 465 71 q 581 161 556 122 q 607 239 607 200 l 607 574 m 475 -208 q 471 -225 475 -221 q 454 -229 467 -229 l 385 -229 q 371 -226 375 -229 q 367 -212 367 -222 l 367 -94 q 381 -78 367 -78 l 461 -78 q 472 -81 469 -78 q 475 -93 475 -85 l 475 -208 z "},"ǳ":{"ha":1501,"x_min":67,"x_max":1454,"o":"m 631 0 q 611 19 611 0 l 611 79 q 604 92 611 92 q 593 85 600 92 q 502 15 551 43 q 375 -14 453 -14 q 217 28 286 -14 q 107 153 147 69 q 67 357 67 238 q 108 563 67 474 q 224 701 150 651 q 392 750 297 750 q 500 731 454 750 q 586 676 546 711 q 601 668 597 668 q 608 686 608 668 l 608 1013 q 624 1031 608 1031 l 708 1031 q 724 1013 724 1031 l 724 22 q 719 5 724 10 q 701 0 715 0 l 631 0 m 607 574 q 517 641 563 618 q 419 664 472 664 q 250 585 314 664 q 186 361 186 506 q 249 143 186 215 q 411 71 313 71 q 510 97 465 71 q 581 161 556 122 q 607 239 607 200 l 607 574 m 892 0 q 878 3 882 0 q 875 17 875 7 l 875 57 q 878 76 875 68 q 892 97 882 83 l 1296 640 l 1300 649 q 1289 654 1300 654 l 921 654 q 909 657 913 654 q 906 669 906 660 l 906 721 q 919 736 906 736 l 1433 736 q 1446 722 1446 736 l 1446 678 q 1432 642 1446 660 l 1026 97 q 1022 86 1021 90 q 1031 82 1024 82 l 1439 82 q 1454 69 1454 82 l 1454 17 q 1436 0 1454 0 l 892 0 z "},"ǆ":{"ha":1501,"x_min":67,"x_max":1454,"o":"m 631 0 q 611 19 611 0 l 611 79 q 604 92 611 92 q 593 85 600 92 q 502 15 551 43 q 375 -14 453 -14 q 217 28 286 -14 q 107 153 147 69 q 67 357 67 238 q 108 563 67 474 q 224 701 150 651 q 392 750 297 750 q 500 731 454 750 q 586 676 546 711 q 601 668 597 668 q 608 686 608 668 l 608 1013 q 624 1031 608 1031 l 708 1031 q 724 1013 724 1031 l 724 22 q 719 5 724 10 q 701 0 715 0 l 631 0 m 607 574 q 517 641 563 618 q 419 664 472 664 q 250 585 314 664 q 186 361 186 506 q 249 143 186 215 q 411 71 313 71 q 510 97 465 71 q 581 161 556 122 q 607 239 607 200 l 607 574 m 892 0 q 878 3 882 0 q 875 17 875 7 l 875 57 q 878 76 875 68 q 892 97 882 83 l 1296 640 l 1300 649 q 1289 654 1300 654 l 921 654 q 909 657 913 654 q 906 669 906 660 l 906 721 q 919 736 906 736 l 1433 736 q 1446 722 1446 736 l 1446 678 q 1432 642 1446 660 l 1026 97 q 1022 86 1021 90 q 1031 82 1024 82 l 1439 82 q 1454 69 1454 82 l 1454 17 q 1436 0 1454 0 l 892 0 m 1274 1021 q 1299 1031 1283 1031 l 1381 1031 q 1390 1026 1390 1031 q 1382 1014 1390 1022 l 1242 885 q 1230 876 1236 881 q 1214 872 1224 872 l 1160 872 q 1125 886 1142 872 l 983 1014 q 977 1026 976 1021 q 986 1031 978 1031 l 1061 1031 q 1075 1029 1071 1031 q 1086 1021 1079 1028 l 1167 953 q 1183 940 1179 940 q 1191 945 1186 940 q 1199 953 1196 950 l 1274 1021 z "},"e":{"ha":807,"x_min":64,"x_max":750,"o":"m 185 322 q 217 199 185 256 q 306 108 250 142 q 428 75 361 75 q 644 190 567 75 q 654 197 650 196 q 664 194 658 197 l 722 165 q 725 146 733 158 q 596 24 671 63 q 417 -14 521 -14 q 235 33 315 -14 q 109 166 154 81 q 64 361 64 251 q 110 567 64 479 q 235 703 156 656 q 415 750 315 750 q 591 706 515 750 q 708 576 667 661 q 750 374 750 490 l 750 368 q 746 349 750 356 q 729 343 742 343 l 197 343 q 185 322 185 343 m 610 419 q 629 423 625 419 q 633 439 633 426 q 608 552 633 500 q 533 635 582 604 q 418 667 483 667 q 294 631 347 667 q 214 540 242 596 q 188 419 186 483 l 610 419 z "},"é":{"ha":807,"x_min":64,"x_max":750,"o":"m 185 322 q 217 199 185 256 q 306 108 250 142 q 428 75 361 75 q 644 190 567 75 q 654 197 650 196 q 664 194 658 197 l 722 165 q 725 146 733 158 q 596 24 671 63 q 417 -14 521 -14 q 235 33 315 -14 q 109 166 154 81 q 64 361 64 251 q 110 567 64 479 q 235 703 156 656 q 415 750 315 750 q 591 706 515 750 q 708 576 667 661 q 750 374 750 490 l 750 368 q 746 349 750 356 q 729 343 742 343 l 197 343 q 185 322 185 343 m 610 419 q 629 423 625 419 q 633 439 633 426 q 608 552 633 500 q 533 635 582 604 q 418 667 483 667 q 294 631 347 667 q 214 540 242 596 q 188 419 186 483 l 610 419 m 596 972 q 597 964 597 969 q 582 949 597 953 l 264 849 q 256 847 261 847 q 242 860 246 847 l 231 890 q 229 897 229 893 q 238 910 229 908 l 558 1043 q 564 1044 560 1044 q 575 1036 572 1044 l 596 972 z "},"ĕ":{"ha":807,"x_min":64,"x_max":750,"o":"m 185 322 q 217 199 185 256 q 306 108 250 142 q 428 75 361 75 q 644 190 567 75 q 654 197 650 196 q 664 194 658 197 l 722 165 q 725 146 733 158 q 596 24 671 63 q 417 -14 521 -14 q 235 33 315 -14 q 109 166 154 81 q 64 361 64 251 q 110 567 64 479 q 235 703 156 656 q 415 750 315 750 q 591 706 515 750 q 708 576 667 661 q 750 374 750 490 l 750 368 q 746 349 750 356 q 729 343 742 343 l 197 343 q 185 322 185 343 m 610 419 q 629 423 625 419 q 633 439 633 426 q 608 552 633 500 q 533 635 582 604 q 418 667 483 667 q 294 631 347 667 q 214 540 242 596 q 188 419 186 483 l 610 419 m 607 1031 q 619 1027 617 1031 q 619 1015 622 1024 q 548 920 603 960 q 413 881 493 881 q 280 919 333 881 q 210 1017 226 958 l 210 1022 q 218 1031 210 1031 l 282 1031 q 294 1028 290 1031 q 304 1018 299 1025 q 347 974 322 992 q 413 957 371 957 q 481 975 451 957 q 525 1019 510 993 q 542 1031 532 1031 l 607 1031 z "},"ě":{"ha":807,"x_min":64,"x_max":750,"o":"m 185 322 q 217 199 185 256 q 306 108 250 142 q 428 75 361 75 q 644 190 567 75 q 654 197 650 196 q 664 194 658 197 l 722 165 q 725 146 733 158 q 596 24 671 63 q 417 -14 521 -14 q 235 33 315 -14 q 109 166 154 81 q 64 361 64 251 q 110 567 64 479 q 235 703 156 656 q 415 750 315 750 q 591 706 515 750 q 708 576 667 661 q 750 374 750 490 l 750 368 q 746 349 750 356 q 729 343 742 343 l 197 343 q 185 322 185 343 m 610 419 q 629 423 625 419 q 633 439 633 426 q 608 552 633 500 q 533 635 582 604 q 418 667 483 667 q 294 631 347 667 q 214 540 242 596 q 188 419 186 483 l 610 419 m 504 1021 q 529 1031 514 1031 l 611 1031 q 621 1026 621 1031 q 613 1014 621 1022 l 472 885 q 460 876 467 881 q 444 872 454 872 l 390 872 q 356 886 372 872 l 214 1014 q 208 1026 207 1021 q 217 1031 208 1031 l 292 1031 q 306 1029 301 1031 q 317 1021 310 1028 l 397 953 q 414 940 410 940 q 422 945 417 940 q 429 953 426 950 l 504 1021 z "},"ê":{"ha":807,"x_min":64,"x_max":750,"o":"m 185 322 q 217 199 185 256 q 306 108 250 142 q 428 75 361 75 q 644 190 567 75 q 654 197 650 196 q 664 194 658 197 l 722 165 q 725 146 733 158 q 596 24 671 63 q 417 -14 521 -14 q 235 33 315 -14 q 109 166 154 81 q 64 361 64 251 q 110 567 64 479 q 235 703 156 656 q 415 750 315 750 q 591 706 515 750 q 708 576 667 661 q 750 374 750 490 l 750 368 q 746 349 750 356 q 729 343 742 343 l 197 343 q 185 322 185 343 m 610 419 q 629 423 625 419 q 633 439 633 426 q 608 552 633 500 q 533 635 582 604 q 418 667 483 667 q 294 631 347 667 q 214 540 242 596 q 188 419 186 483 l 610 419 m 429 954 q 422 962 426 957 q 414 967 417 967 q 397 954 410 967 l 317 885 q 305 878 310 879 q 292 876 300 876 l 217 876 q 207 882 207 876 q 214 893 207 886 l 356 1019 q 390 1035 371 1035 l 444 1035 q 460 1031 454 1035 q 472 1022 467 1026 l 613 893 q 621 881 621 885 q 611 876 621 876 l 529 876 q 504 885 514 876 l 429 954 z "},"ȅ":{"ha":807,"x_min":64,"x_max":750,"o":"m 185 322 q 217 199 185 256 q 306 108 250 142 q 428 75 361 75 q 644 190 567 75 q 654 197 650 196 q 664 194 658 197 l 722 165 q 725 146 733 158 q 596 24 671 63 q 417 -14 521 -14 q 235 33 315 -14 q 109 166 154 81 q 64 361 64 251 q 110 567 64 479 q 235 703 156 656 q 415 750 315 750 q 591 706 515 750 q 708 576 667 661 q 750 374 750 490 l 750 368 q 746 349 750 356 q 729 343 742 343 l 197 343 q 185 322 185 343 m 610 419 q 629 423 625 419 q 633 439 633 426 q 608 552 633 500 q 533 635 582 604 q 418 667 483 667 q 294 631 347 667 q 214 540 242 596 q 188 419 186 483 l 610 419 m 169 1040 q 188 1040 178 1050 l 360 857 q 363 849 363 854 q 358 838 363 844 l 336 811 q 326 804 329 804 q 313 810 324 804 l 132 961 q 122 976 122 969 q 128 989 122 981 l 169 1040 m 394 1040 q 403 1044 397 1044 q 413 1040 408 1044 l 583 857 q 588 849 588 856 q 582 838 588 843 l 561 811 q 550 804 554 804 q 536 810 547 804 l 357 961 q 346 976 346 969 q 353 989 346 982 l 394 1040 z "},"ë":{"ha":807,"x_min":64,"x_max":750,"o":"m 185 322 q 217 199 185 256 q 306 108 250 142 q 428 75 361 75 q 644 190 567 75 q 654 197 650 196 q 664 194 658 197 l 722 165 q 725 146 733 158 q 596 24 671 63 q 417 -14 521 -14 q 235 33 315 -14 q 109 166 154 81 q 64 361 64 251 q 110 567 64 479 q 235 703 156 656 q 415 750 315 750 q 591 706 515 750 q 708 576 667 661 q 750 374 750 490 l 750 368 q 746 349 750 356 q 729 343 742 343 l 197 343 q 185 322 185 343 m 610 419 q 629 423 625 419 q 633 439 633 426 q 608 552 633 500 q 533 635 582 604 q 418 667 483 667 q 294 631 347 667 q 214 540 242 596 q 188 419 186 483 l 610 419 m 369 899 q 365 882 369 886 q 347 878 360 878 l 274 878 q 258 881 263 878 q 254 896 254 885 l 254 1013 q 258 1026 254 1022 q 269 1031 261 1031 l 354 1031 q 366 1027 363 1031 q 369 1014 369 1024 l 369 899 m 574 899 q 569 882 574 886 q 550 878 564 878 l 478 878 q 461 881 465 878 q 457 896 457 885 l 457 1013 q 472 1031 457 1031 l 558 1031 q 570 1027 567 1031 q 574 1014 574 1024 l 574 899 z "},"ė":{"ha":807,"x_min":64,"x_max":750,"o":"m 185 322 q 217 199 185 256 q 306 108 250 142 q 428 75 361 75 q 644 190 567 75 q 654 197 650 196 q 664 194 658 197 l 722 165 q 725 146 733 158 q 596 24 671 63 q 417 -14 521 -14 q 235 33 315 -14 q 109 166 154 81 q 64 361 64 251 q 110 567 64 479 q 235 703 156 656 q 415 750 315 750 q 591 706 515 750 q 708 576 667 661 q 750 374 750 490 l 750 368 q 746 349 750 356 q 729 343 742 343 l 197 343 q 185 322 185 343 m 610 419 q 629 423 625 419 q 633 439 633 426 q 608 552 633 500 q 533 635 582 604 q 418 667 483 667 q 294 631 347 667 q 214 540 242 596 q 188 419 186 483 l 610 419 m 425 890 q 419 873 425 878 q 400 868 414 868 l 319 868 q 303 872 307 868 q 299 888 299 876 l 299 1011 q 302 1026 299 1022 q 315 1031 306 1031 l 410 1031 q 425 1013 425 1031 l 425 890 z "},"ẹ":{"ha":807,"x_min":64,"x_max":750,"o":"m 185 322 q 217 199 185 256 q 306 108 250 142 q 428 75 361 75 q 644 190 567 75 q 654 197 650 196 q 664 194 658 197 l 722 165 q 725 146 733 158 q 596 24 671 63 q 417 -14 521 -14 q 235 33 315 -14 q 109 166 154 81 q 64 361 64 251 q 110 567 64 479 q 235 703 156 656 q 415 750 315 750 q 591 706 515 750 q 708 576 667 661 q 750 374 750 490 l 750 368 q 746 349 750 356 q 729 343 742 343 l 197 343 q 185 322 185 343 m 610 419 q 629 423 625 419 q 633 439 633 426 q 608 552 633 500 q 533 635 582 604 q 418 667 483 667 q 294 631 347 667 q 214 540 242 596 q 188 419 186 483 l 610 419 m 472 -208 q 468 -225 472 -221 q 451 -229 464 -229 l 382 -229 q 368 -226 372 -229 q 364 -212 364 -222 l 364 -94 q 378 -78 364 -78 l 458 -78 q 469 -81 467 -78 q 472 -93 472 -85 l 472 -208 z "},"è":{"ha":807,"x_min":64,"x_max":750,"o":"m 185 322 q 217 199 185 256 q 306 108 250 142 q 428 75 361 75 q 644 190 567 75 q 654 197 650 196 q 664 194 658 197 l 722 165 q 725 146 733 158 q 596 24 671 63 q 417 -14 521 -14 q 235 33 315 -14 q 109 166 154 81 q 64 361 64 251 q 110 567 64 479 q 235 703 156 656 q 415 750 315 750 q 591 706 515 750 q 708 576 667 661 q 750 374 750 490 l 750 368 q 746 349 750 356 q 729 343 742 343 l 197 343 q 185 322 185 343 m 610 419 q 629 423 625 419 q 633 439 633 426 q 608 552 633 500 q 533 635 582 604 q 418 667 483 667 q 294 631 347 667 q 214 540 242 596 q 188 419 186 483 l 610 419 m 235 1036 q 240 1044 236 1042 q 250 1043 244 1046 l 572 910 q 578 890 583 904 l 567 860 q 559 848 564 850 q 544 849 554 846 l 228 949 q 213 972 206 954 l 235 1036 z "},"ȇ":{"ha":807,"x_min":64,"x_max":750,"o":"m 185 322 q 217 199 185 256 q 306 108 250 142 q 428 75 361 75 q 644 190 567 75 q 654 197 650 196 q 664 194 658 197 l 722 165 q 725 146 733 158 q 596 24 671 63 q 417 -14 521 -14 q 235 33 315 -14 q 109 166 154 81 q 64 361 64 251 q 110 567 64 479 q 235 703 156 656 q 415 750 315 750 q 591 706 515 750 q 708 576 667 661 q 750 374 750 490 l 750 368 q 746 349 750 356 q 729 343 742 343 l 197 343 q 185 322 185 343 m 610 419 q 629 423 625 419 q 633 439 633 426 q 608 552 633 500 q 533 635 582 604 q 418 667 483 667 q 294 631 347 667 q 214 540 242 596 q 188 419 186 483 l 610 419 m 540 889 q 524 900 531 889 q 479 944 508 926 q 411 963 450 963 q 345 945 369 963 q 303 901 321 928 q 293 892 297 894 q 281 889 289 889 l 217 889 q 208 903 204 889 q 278 1000 225 961 q 411 1039 332 1039 q 547 999 492 1039 q 618 904 601 960 q 619 897 619 901 q 606 889 619 889 l 540 889 z "},"ē":{"ha":807,"x_min":64,"x_max":750,"o":"m 185 322 q 217 199 185 256 q 306 108 250 142 q 428 75 361 75 q 644 190 567 75 q 654 197 650 196 q 664 194 658 197 l 722 165 q 725 146 733 158 q 596 24 671 63 q 417 -14 521 -14 q 235 33 315 -14 q 109 166 154 81 q 64 361 64 251 q 110 567 64 479 q 235 703 156 656 q 415 750 315 750 q 591 706 515 750 q 708 576 667 661 q 750 374 750 490 l 750 368 q 746 349 750 356 q 729 343 742 343 l 197 343 q 185 322 185 343 m 610 419 q 629 423 625 419 q 633 439 633 426 q 608 552 633 500 q 533 635 582 604 q 418 667 483 667 q 294 631 347 667 q 214 540 242 596 q 188 419 186 483 l 610 419 m 619 943 q 599 925 619 925 l 224 925 q 212 929 215 925 q 208 942 208 933 l 208 996 q 211 1007 208 1003 q 219 1011 214 1011 l 608 1011 q 617 1007 614 1011 q 619 997 619 1003 l 619 943 z "},"ę":{"ha":807,"x_min":64,"x_max":750,"o":"m 750 368 q 746 349 750 356 q 729 343 742 343 l 197 343 q 185 322 185 343 q 217 199 185 256 q 306 108 250 142 q 428 75 361 75 q 644 190 567 75 q 654 197 650 196 q 664 194 658 197 l 722 165 q 725 146 733 158 q 542 3 654 36 q 462 -48 486 -24 q 438 -103 438 -72 q 454 -143 438 -131 q 507 -156 471 -156 q 556 -150 533 -156 q 593 -137 579 -144 q 603 -135 601 -135 q 608 -144 608 -135 l 608 -185 q 600 -200 608 -194 q 548 -217 582 -210 q 479 -224 514 -224 q 376 -194 411 -224 q 340 -111 340 -164 q 353 -58 340 -82 q 397 -14 367 -33 q 224 39 300 -10 q 106 172 149 88 q 64 361 64 256 q 110 567 64 479 q 235 703 156 656 q 415 750 315 750 q 591 706 515 750 q 708 576 667 661 q 750 374 750 490 l 750 368 m 610 419 q 629 423 625 419 q 633 439 633 426 q 608 552 633 500 q 533 635 582 604 q 418 667 483 667 q 294 631 347 667 q 214 540 242 596 q 188 419 186 483 l 610 419 z "},"ẽ":{"ha":807,"x_min":64,"x_max":750,"o":"m 185 322 q 217 199 185 256 q 306 108 250 142 q 428 75 361 75 q 644 190 567 75 q 654 197 650 196 q 664 194 658 197 l 722 165 q 725 146 733 158 q 596 24 671 63 q 417 -14 521 -14 q 235 33 315 -14 q 109 166 154 81 q 64 361 64 251 q 110 567 64 479 q 235 703 156 656 q 415 750 315 750 q 591 706 515 750 q 708 576 667 661 q 750 374 750 490 l 750 368 q 746 349 750 356 q 729 343 742 343 l 197 343 q 185 322 185 343 m 610 419 q 629 423 625 419 q 633 439 633 426 q 608 552 633 500 q 533 635 582 604 q 418 667 483 667 q 294 631 347 667 q 214 540 242 596 q 188 419 186 483 l 610 419 m 610 940 q 563 918 588 926 q 504 910 539 910 q 408 929 464 910 q 328 946 358 946 q 289 940 304 946 q 261 926 274 933 q 244 917 249 919 q 235 913 238 913 q 225 924 229 913 l 211 961 q 210 969 210 964 q 217 981 210 975 q 267 1012 244 1001 q 322 1022 289 1022 q 367 1017 346 1022 q 418 1003 388 1013 q 463 990 440 996 q 506 983 485 983 q 546 990 529 983 q 585 1011 563 997 q 596 1015 592 1015 q 607 1004 603 1015 l 621 961 q 622 954 622 958 q 610 940 622 947 z "},"f":{"ha":526,"x_min":33,"x_max":500,"o":"m 479 736 q 493 722 493 736 l 493 663 q 479 650 493 650 l 321 650 q 310 638 310 650 l 310 19 q 293 0 310 0 l 208 0 q 193 18 193 0 l 193 639 q 183 650 193 650 l 47 650 q 33 663 33 650 l 33 722 q 49 736 33 736 l 181 736 q 193 750 193 736 l 193 851 q 367 1031 193 1031 l 482 1031 q 500 1014 500 1031 l 500 960 q 485 946 500 946 l 388 946 q 307 846 307 946 l 307 749 q 319 736 307 736 l 479 736 z "},"g":{"ha":836,"x_min":33,"x_max":799,"o":"m 772 749 q 799 726 799 749 l 799 678 q 792 658 799 664 q 771 653 786 651 q 699 640 725 653 q 671 608 665 626 q 679 588 672 603 q 690 553 686 572 q 694 514 694 535 q 617 353 694 415 q 393 290 540 290 q 251 274 294 290 q 208 231 208 257 q 238 199 208 210 q 335 185 267 189 l 514 175 q 692 118 633 168 q 750 -18 750 68 q 658 -183 750 -124 q 394 -243 565 -243 q 126 -192 218 -243 q 33 -47 33 -142 q 164 110 33 46 q 164 125 179 117 q 100 207 100 153 q 128 265 100 238 q 210 311 157 293 q 217 318 217 313 q 210 328 217 325 q 119 405 149 360 q 90 514 90 450 q 172 685 90 622 q 404 747 254 747 q 613 685 536 747 q 626 678 622 678 q 642 685 632 678 q 703 730 668 711 q 772 749 739 749 m 393 364 q 537 403 489 364 q 585 515 585 442 q 536 632 585 590 q 393 674 488 674 q 250 631 301 674 q 199 515 199 589 q 249 403 199 443 q 393 364 300 364 m 271 90 q 214 76 246 92 q 160 31 182 60 q 138 -33 138 1 q 206 -135 138 -100 q 407 -171 274 -171 q 642 -32 642 -171 q 609 44 642 17 q 503 76 576 72 l 271 90 z "},"ǵ":{"ha":836,"x_min":33,"x_max":799,"o":"m 772 749 q 799 726 799 749 l 799 678 q 792 658 799 664 q 771 653 786 651 q 699 640 725 653 q 671 608 665 626 q 679 588 672 603 q 690 553 686 572 q 694 514 694 535 q 617 353 694 415 q 393 290 540 290 q 251 274 294 290 q 208 231 208 257 q 238 199 208 210 q 335 185 267 189 l 514 175 q 692 118 633 168 q 750 -18 750 68 q 658 -183 750 -124 q 394 -243 565 -243 q 126 -192 218 -243 q 33 -47 33 -142 q 164 110 33 46 q 164 125 179 117 q 100 207 100 153 q 128 265 100 238 q 210 311 157 293 q 217 318 217 313 q 210 328 217 325 q 119 405 149 360 q 90 514 90 450 q 172 685 90 622 q 404 747 254 747 q 613 685 536 747 q 626 678 622 678 q 642 685 632 678 q 703 730 668 711 q 772 749 739 749 m 393 364 q 537 403 489 364 q 585 515 585 442 q 536 632 585 590 q 393 674 488 674 q 250 631 301 674 q 199 515 199 589 q 249 403 199 443 q 393 364 300 364 m 271 90 q 214 76 246 92 q 160 31 182 60 q 138 -33 138 1 q 206 -135 138 -100 q 407 -171 274 -171 q 642 -32 642 -171 q 609 44 642 17 q 503 76 576 72 l 271 90 m 583 972 q 585 964 585 969 q 569 949 585 953 l 251 849 q 243 847 249 847 q 229 860 233 847 l 218 890 q 217 897 217 893 q 225 910 217 908 l 546 1043 q 551 1044 547 1044 q 563 1036 560 1044 l 583 972 z "},"ğ":{"ha":836,"x_min":33,"x_max":799,"o":"m 772 749 q 799 726 799 749 l 799 678 q 792 658 799 664 q 771 653 786 651 q 699 640 725 653 q 671 608 665 626 q 679 588 672 603 q 690 553 686 572 q 694 514 694 535 q 617 353 694 415 q 393 290 540 290 q 251 274 294 290 q 208 231 208 257 q 238 199 208 210 q 335 185 267 189 l 514 175 q 692 118 633 168 q 750 -18 750 68 q 658 -183 750 -124 q 394 -243 565 -243 q 126 -192 218 -243 q 33 -47 33 -142 q 164 110 33 46 q 164 125 179 117 q 100 207 100 153 q 128 265 100 238 q 210 311 157 293 q 217 318 217 313 q 210 328 217 325 q 119 405 149 360 q 90 514 90 450 q 172 685 90 622 q 404 747 254 747 q 613 685 536 747 q 626 678 622 678 q 642 685 632 678 q 703 730 668 711 q 772 749 739 749 m 393 364 q 537 403 489 364 q 585 515 585 442 q 536 632 585 590 q 393 674 488 674 q 250 631 301 674 q 199 515 199 589 q 249 403 199 443 q 393 364 300 364 m 271 90 q 214 76 246 92 q 160 31 182 60 q 138 -33 138 1 q 206 -135 138 -100 q 407 -171 274 -171 q 642 -32 642 -171 q 609 44 642 17 q 503 76 576 72 l 271 90 m 594 1031 q 607 1027 604 1031 q 607 1015 610 1024 q 535 920 590 960 q 400 881 481 881 q 267 919 321 881 q 197 1017 214 958 l 197 1022 q 206 1031 197 1031 l 269 1031 q 282 1028 278 1031 q 292 1018 286 1025 q 334 974 310 992 q 400 957 358 957 q 468 975 439 957 q 513 1019 497 993 q 529 1031 519 1031 l 594 1031 z "},"ĝ":{"ha":836,"x_min":33,"x_max":799,"o":"m 772 749 q 799 726 799 749 l 799 678 q 792 658 799 664 q 771 653 786 651 q 699 640 725 653 q 671 608 665 626 q 679 588 672 603 q 690 553 686 572 q 694 514 694 535 q 617 353 694 415 q 393 290 540 290 q 251 274 294 290 q 208 231 208 257 q 238 199 208 210 q 335 185 267 189 l 514 175 q 692 118 633 168 q 750 -18 750 68 q 658 -183 750 -124 q 394 -243 565 -243 q 126 -192 218 -243 q 33 -47 33 -142 q 164 110 33 46 q 164 125 179 117 q 100 207 100 153 q 128 265 100 238 q 210 311 157 293 q 217 318 217 313 q 210 328 217 325 q 119 405 149 360 q 90 514 90 450 q 172 685 90 622 q 404 747 254 747 q 613 685 536 747 q 626 678 622 678 q 642 685 632 678 q 703 730 668 711 q 772 749 739 749 m 393 364 q 537 403 489 364 q 585 515 585 442 q 536 632 585 590 q 393 674 488 674 q 250 631 301 674 q 199 515 199 589 q 249 403 199 443 q 393 364 300 364 m 271 90 q 214 76 246 92 q 160 31 182 60 q 138 -33 138 1 q 206 -135 138 -100 q 407 -171 274 -171 q 642 -32 642 -171 q 609 44 642 17 q 503 76 576 72 l 271 90 m 417 954 q 409 962 414 957 q 401 967 404 967 q 385 954 397 967 l 304 885 q 292 878 297 879 q 279 876 288 876 l 204 876 q 194 882 194 876 q 201 893 194 886 l 343 1019 q 378 1035 358 1035 l 432 1035 q 448 1031 442 1035 q 460 1022 454 1026 l 600 893 q 608 881 608 885 q 599 876 608 876 l 517 876 q 492 885 501 876 l 417 954 z "},"ģ":{"ha":836,"x_min":33,"x_max":799,"o":"m 357 865 q 344 878 344 865 l 344 988 q 347 999 344 996 l 399 1085 q 408 1094 403 1092 q 425 1096 414 1096 l 444 1096 q 454 1090 451 1096 q 454 1079 457 1085 l 415 1008 q 413 999 413 1004 q 424 988 413 988 l 435 988 q 448 984 444 988 q 451 971 451 981 l 451 881 q 438 865 451 865 l 357 865 m 772 749 q 799 726 799 749 l 799 678 q 792 658 799 664 q 771 653 786 651 q 699 640 725 653 q 671 608 665 626 q 679 588 672 603 q 690 553 686 572 q 694 514 694 535 q 617 353 694 415 q 393 290 540 290 q 251 274 294 290 q 208 231 208 257 q 238 199 208 210 q 335 185 267 189 l 514 175 q 692 118 633 168 q 750 -18 750 68 q 658 -183 750 -124 q 394 -243 565 -243 q 126 -192 218 -243 q 33 -47 33 -142 q 164 110 33 46 q 164 125 179 117 q 100 207 100 153 q 128 265 100 238 q 210 311 157 293 q 217 318 217 313 q 210 328 217 325 q 119 405 149 360 q 90 514 90 450 q 172 685 90 622 q 404 747 254 747 q 613 685 536 747 q 626 678 622 678 q 642 685 632 678 q 703 730 668 711 q 772 749 739 749 m 393 364 q 537 403 489 364 q 585 515 585 442 q 536 632 585 590 q 393 674 488 674 q 250 631 301 674 q 199 515 199 589 q 249 403 199 443 q 393 364 300 364 m 271 90 q 214 76 246 92 q 160 31 182 60 q 138 -33 138 1 q 206 -135 138 -100 q 407 -171 274 -171 q 642 -32 642 -171 q 609 44 642 17 q 503 76 576 72 l 271 90 z "},"ġ":{"ha":836,"x_min":33,"x_max":799,"o":"m 772 749 q 799 726 799 749 l 799 678 q 792 658 799 664 q 771 653 786 651 q 699 640 725 653 q 671 608 665 626 q 679 588 672 603 q 690 553 686 572 q 694 514 694 535 q 617 353 694 415 q 393 290 540 290 q 251 274 294 290 q 208 231 208 257 q 238 199 208 210 q 335 185 267 189 l 514 175 q 692 118 633 168 q 750 -18 750 68 q 658 -183 750 -124 q 394 -243 565 -243 q 126 -192 218 -243 q 33 -47 33 -142 q 164 110 33 46 q 164 125 179 117 q 100 207 100 153 q 128 265 100 238 q 210 311 157 293 q 217 318 217 313 q 210 328 217 325 q 119 405 149 360 q 90 514 90 450 q 172 685 90 622 q 404 747 254 747 q 613 685 536 747 q 626 678 622 678 q 642 685 632 678 q 703 730 668 711 q 772 749 739 749 m 393 364 q 537 403 489 364 q 585 515 585 442 q 536 632 585 590 q 393 674 488 674 q 250 631 301 674 q 199 515 199 589 q 249 403 199 443 q 393 364 300 364 m 271 90 q 214 76 246 92 q 160 31 182 60 q 138 -33 138 1 q 206 -135 138 -100 q 407 -171 274 -171 q 642 -32 642 -171 q 609 44 642 17 q 503 76 576 72 l 271 90 m 464 890 q 458 873 464 878 q 439 868 453 868 l 358 868 q 342 872 346 868 q 338 888 338 876 l 338 1011 q 341 1026 338 1022 q 354 1031 344 1031 l 449 1031 q 464 1013 464 1031 l 464 890 z "},"h":{"ha":811,"x_min":108,"x_max":713,"o":"m 126 0 q 108 18 108 0 l 108 1013 q 124 1031 108 1031 l 206 1031 q 221 1014 221 1031 l 221 643 q 233 639 221 628 q 368 725 313 700 q 490 750 424 750 q 655 693 597 750 q 713 539 713 636 l 713 22 q 692 0 713 0 l 614 0 q 596 18 596 0 l 596 514 q 560 621 596 583 q 451 658 525 658 q 345 633 393 658 q 225 546 297 607 l 225 21 q 203 0 225 0 l 126 0 z "},"ħ":{"ha":813,"x_min":21,"x_max":714,"o":"m 492 750 q 656 693 599 750 q 714 539 714 636 l 714 22 q 693 0 714 0 l 615 0 q 597 18 597 0 l 597 514 q 562 621 597 583 q 453 658 526 658 q 347 633 394 658 q 226 546 299 607 l 226 21 q 204 0 226 0 l 128 0 q 110 18 110 0 l 110 853 l 36 853 q 24 856 26 853 q 21 869 21 860 l 21 914 q 32 929 21 929 l 110 929 l 110 1013 q 125 1031 110 1031 l 207 1031 q 222 1014 222 1031 l 222 929 l 443 929 q 454 917 454 929 l 454 869 q 433 853 454 853 l 222 853 l 222 643 q 235 639 222 628 q 369 725 314 700 q 492 750 425 750 z "},"ĥ":{"ha":811,"x_min":108,"x_max":713,"o":"m 126 0 q 108 18 108 0 l 108 1013 q 124 1031 108 1031 l 206 1031 q 221 1014 221 1031 l 221 643 q 233 639 221 628 q 368 725 313 700 q 490 750 424 750 q 655 693 597 750 q 713 539 713 636 l 713 22 q 692 0 713 0 l 614 0 q 596 18 596 0 l 596 514 q 560 621 596 583 q 451 658 525 658 q 345 633 393 658 q 225 546 297 607 l 225 21 q 203 0 225 0 l 126 0 m 421 1258 q 413 1266 418 1261 q 406 1271 408 1271 q 389 1258 401 1271 l 308 1189 q 297 1182 301 1183 q 283 1181 292 1181 l 208 1181 q 199 1186 199 1181 q 206 1197 199 1190 l 347 1324 q 382 1339 363 1339 l 436 1339 q 452 1335 446 1339 q 464 1326 458 1331 l 604 1197 q 613 1185 613 1189 q 603 1181 613 1181 l 521 1181 q 496 1189 506 1181 l 421 1258 z "},"ḥ":{"ha":811,"x_min":108,"x_max":713,"o":"m 126 0 q 108 18 108 0 l 108 1013 q 124 1031 108 1031 l 206 1031 q 221 1014 221 1031 l 221 643 q 233 639 221 628 q 368 725 313 700 q 490 750 424 750 q 655 693 597 750 q 713 539 713 636 l 713 22 q 692 0 713 0 l 614 0 q 596 18 596 0 l 596 514 q 560 621 596 583 q 451 658 525 658 q 345 633 393 658 q 225 546 297 607 l 225 21 q 203 0 225 0 l 126 0 m 476 -208 q 472 -225 476 -221 q 456 -229 468 -229 l 386 -229 q 372 -226 376 -229 q 368 -212 368 -222 l 368 -94 q 382 -78 368 -78 l 463 -78 q 474 -81 471 -78 q 476 -93 476 -85 l 476 -208 z "},"i":{"ha":332,"x_min":103,"x_max":229,"o":"m 229 894 q 224 874 229 881 q 204 868 218 868 l 124 868 q 103 892 103 868 l 103 1008 q 122 1031 103 1031 l 210 1031 q 224 1025 218 1031 q 229 1010 229 1019 l 229 894 m 224 24 q 218 5 224 10 q 199 0 213 0 l 128 0 q 111 4 115 0 q 107 19 107 8 l 107 717 q 124 736 107 736 l 208 736 q 224 718 224 736 l 224 24 z "},"ı":{"ha":332,"x_min":107,"x_max":224,"o":"m 224 24 q 218 5 224 10 q 199 0 213 0 l 128 0 q 111 4 115 0 q 107 19 107 8 l 107 717 q 124 736 107 736 l 208 736 q 224 718 224 736 l 224 24 z "},"í":{"ha":332,"x_min":-18,"x_max":350,"o":"m 224 24 q 218 5 224 10 q 199 0 213 0 l 128 0 q 111 4 115 0 q 107 19 107 8 l 107 717 q 124 736 107 736 l 208 736 q 224 718 224 736 l 224 24 m 349 972 q 350 964 350 969 q 335 949 350 953 l 17 849 q 8 847 14 847 q -6 860 -1 847 l -17 890 q -18 897 -18 893 q -10 910 -18 908 l 311 1043 q 317 1044 313 1044 q 328 1036 325 1044 l 349 972 z "},"ĭ":{"ha":332,"x_min":-37,"x_max":374,"o":"m 224 24 q 218 5 224 10 q 199 0 213 0 l 128 0 q 111 4 115 0 q 107 19 107 8 l 107 717 q 124 736 107 736 l 208 736 q 224 718 224 736 l 224 24 m 360 1031 q 372 1027 369 1031 q 372 1015 375 1024 q 301 920 356 960 q 165 881 246 881 q 33 919 86 881 q -37 1017 -21 958 l -37 1022 q -29 1031 -37 1031 l 35 1031 q 47 1028 43 1031 q 57 1018 51 1025 q 99 974 75 992 q 165 957 124 957 q 233 975 204 957 q 278 1019 263 993 q 294 1031 285 1031 l 360 1031 z "},"î":{"ha":332,"x_min":-40,"x_max":374,"o":"m 224 24 q 218 5 224 10 q 199 0 213 0 l 128 0 q 111 4 115 0 q 107 19 107 8 l 107 717 q 124 736 107 736 l 208 736 q 224 718 224 736 l 224 24 m 182 954 q 174 962 179 957 q 167 967 169 967 q 150 954 163 967 l 69 885 q 58 878 63 879 q 44 876 53 876 l -31 876 q -40 882 -40 876 q -33 893 -40 886 l 108 1019 q 143 1035 124 1035 l 197 1035 q 213 1031 207 1035 q 225 1022 219 1026 l 365 893 q 374 881 374 885 q 364 876 374 876 l 282 876 q 257 885 267 876 l 182 954 z "},"ȉ":{"ha":332,"x_min":-125,"x_max":340,"o":"m 224 24 q 218 5 224 10 q 199 0 213 0 l 128 0 q 111 4 115 0 q 107 19 107 8 l 107 717 q 124 736 107 736 l 208 736 q 224 718 224 736 l 224 24 m -78 1040 q -60 1040 -69 1050 l 113 857 q 115 849 115 854 q 111 838 115 844 l 89 811 q 79 804 82 804 q 65 810 76 804 l -115 961 q -125 976 -125 969 q -119 989 -125 981 l -78 1040 m 147 1040 q 156 1044 150 1044 q 165 1040 161 1044 l 336 857 q 340 849 340 856 q 335 838 340 843 l 314 811 q 303 804 307 804 q 289 810 300 804 l 110 961 q 99 976 99 969 q 106 989 99 982 l 147 1040 z "},"ï":{"ha":332,"x_min":7,"x_max":326,"o":"m 224 24 q 218 5 224 10 q 199 0 213 0 l 128 0 q 111 4 115 0 q 107 19 107 8 l 107 717 q 124 736 107 736 l 208 736 q 224 718 224 736 l 224 24 m 122 899 q 117 882 122 886 q 100 878 113 878 l 26 878 q 11 881 15 878 q 7 896 7 885 l 7 1013 q 10 1026 7 1022 q 22 1031 14 1031 l 107 1031 q 119 1027 115 1031 q 122 1014 122 1024 l 122 899 m 326 899 q 322 882 326 886 q 303 878 317 878 l 231 878 q 214 881 218 878 q 210 896 210 885 l 210 1013 q 225 1031 210 1031 l 311 1031 q 323 1027 319 1031 q 326 1014 326 1024 l 326 899 z "},"ị":{"ha":332,"x_min":103,"x_max":229,"o":"m 229 894 q 224 874 229 881 q 204 868 218 868 l 124 868 q 103 892 103 868 l 103 1008 q 122 1031 103 1031 l 210 1031 q 224 1025 218 1031 q 229 1010 229 1019 l 229 894 m 224 24 q 218 5 224 10 q 199 0 213 0 l 128 0 q 111 4 115 0 q 107 19 107 8 l 107 717 q 124 736 107 736 l 208 736 q 224 718 224 736 l 224 24 m 222 -208 q 218 -225 222 -221 q 201 -229 214 -229 l 132 -229 q 118 -226 122 -229 q 114 -212 114 -222 l 114 -94 q 128 -78 114 -78 l 208 -78 q 219 -81 217 -78 q 222 -93 222 -85 l 222 -208 z "},"ì":{"ha":332,"x_min":-36,"x_max":332,"o":"m 224 24 q 218 5 224 10 q 199 0 213 0 l 128 0 q 111 4 115 0 q 107 19 107 8 l 107 717 q 124 736 107 736 l 208 736 q 224 718 224 736 l 224 24 m -12 1036 q -7 1044 -11 1042 q 3 1043 -3 1046 l 325 910 q 331 890 336 904 l 319 860 q 312 848 317 850 q 297 849 307 846 l -19 949 q -35 972 -42 954 l -12 1036 z "},"ȋ":{"ha":332,"x_min":-39,"x_max":372,"o":"m 224 24 q 218 5 224 10 q 199 0 213 0 l 128 0 q 111 4 115 0 q 107 19 107 8 l 107 717 q 124 736 107 736 l 208 736 q 224 718 224 736 l 224 24 m 293 889 q 276 900 283 889 q 232 944 261 926 q 164 963 203 963 q 98 945 122 963 q 56 901 74 928 q 46 892 50 894 q 33 889 42 889 l -31 889 q -39 903 -43 889 q 31 1000 -22 961 q 164 1039 85 1039 q 299 999 244 1039 q 371 904 354 960 q 372 897 372 901 q 358 889 372 889 l 293 889 z "},"ĳ":{"ha":664,"x_min":103,"x_max":561,"o":"m 229 894 q 224 874 229 881 q 204 868 218 868 l 124 868 q 103 892 103 868 l 103 1008 q 122 1031 103 1031 l 210 1031 q 224 1025 218 1031 q 229 1010 229 1019 l 229 894 m 224 24 q 218 5 224 10 q 199 0 213 0 l 128 0 q 111 4 115 0 q 107 19 107 8 l 107 717 q 124 736 107 736 l 208 736 q 224 718 224 736 l 224 24 m 561 894 q 538 868 561 868 l 456 868 q 435 892 435 868 l 435 1008 q 440 1024 435 1018 q 454 1031 446 1031 l 543 1031 q 556 1025 551 1031 q 561 1010 561 1019 l 561 894 m 557 -40 q 513 -190 557 -143 q 363 -236 469 -236 q 287 -233 303 -236 q 271 -218 271 -229 l 271 -157 q 285 -142 271 -142 l 356 -137 q 420 -112 400 -135 q 440 -32 440 -89 l 440 717 q 457 736 440 736 l 542 736 q 557 718 557 736 l 557 -40 z "},"ī":{"ha":332,"x_min":-39,"x_max":372,"o":"m 224 24 q 218 5 224 10 q 199 0 213 0 l 128 0 q 111 4 115 0 q 107 19 107 8 l 107 717 q 124 736 107 736 l 208 736 q 224 718 224 736 l 224 24 m 372 943 q 351 925 372 925 l -24 925 q -35 929 -32 925 q -39 942 -39 933 l -39 996 q -36 1007 -39 1003 q -28 1011 -33 1011 l 361 1011 q 369 1007 367 1011 q 372 997 372 1003 l 372 943 z "},"į":{"ha":332,"x_min":-15,"x_max":253,"o":"m 124 868 q 107 872 111 868 q 103 888 103 876 l 103 1011 q 106 1026 103 1022 q 119 1031 110 1031 l 214 1031 q 229 1013 229 1031 l 229 890 q 224 873 229 878 q 204 868 218 868 l 124 868 m 238 -149 q 247 -146 246 -146 q 253 -156 253 -146 l 253 -196 q 244 -211 253 -206 q 192 -228 226 -221 q 124 -235 158 -235 q 20 -205 56 -235 q -15 -122 -15 -175 q 13 -49 -15 -81 q 108 8 40 -17 q 107 19 107 11 l 107 717 q 124 736 107 736 l 208 736 q 224 718 224 736 l 224 24 q 219 7 224 13 q 206 0 215 1 q 110 -55 139 -29 q 82 -114 82 -81 q 99 -154 82 -142 q 151 -167 115 -167 q 201 -161 178 -167 q 238 -149 224 -156 z "},"ĩ":{"ha":332,"x_min":-37,"x_max":375,"o":"m 224 24 q 218 5 224 10 q 199 0 213 0 l 128 0 q 111 4 115 0 q 107 19 107 8 l 107 717 q 124 736 107 736 l 208 736 q 224 718 224 736 l 224 24 m 363 940 q 316 918 340 926 q 257 910 292 910 q 161 929 217 910 q 81 946 111 946 q 42 940 57 946 q 14 926 26 933 q -3 917 1 919 q -12 913 -10 913 q -22 924 -18 913 l -36 961 q -37 969 -37 964 q -31 981 -37 975 q 19 1012 -3 1001 q 75 1022 42 1022 q 119 1017 99 1022 q 171 1003 140 1013 q 215 990 193 996 q 258 983 238 983 q 299 990 282 983 q 338 1011 315 997 q 349 1015 344 1015 q 360 1004 356 1015 l 374 961 q 375 954 375 958 q 363 940 375 947 z "},"j":{"ha":332,"x_min":-61,"x_max":229,"o":"m 229 894 q 206 868 229 868 l 124 868 q 103 892 103 868 l 103 1008 q 108 1024 103 1018 q 122 1031 114 1031 l 211 1031 q 224 1025 219 1031 q 229 1010 229 1019 l 229 894 m 225 -40 q 181 -190 225 -143 q 31 -236 138 -236 q -45 -233 -29 -236 q -61 -218 -61 -229 l -61 -157 q -47 -142 -61 -142 l 24 -137 q 88 -112 68 -135 q 108 -32 108 -89 l 108 717 q 125 736 108 736 l 210 736 q 225 718 225 736 l 225 -40 z "},"ȷ":{"ha":332,"x_min":-61,"x_max":225,"o":"m 225 -40 q 181 -190 225 -143 q 31 -236 138 -236 q -45 -233 -29 -236 q -61 -218 -61 -229 l -61 -157 q -47 -142 -61 -142 l 24 -137 q 88 -112 68 -135 q 108 -32 108 -89 l 108 717 q 125 736 108 736 l 210 736 q 225 718 225 736 l 225 -40 z "},"ĵ":{"ha":332,"x_min":-61,"x_max":374,"o":"m 225 -40 q 181 -190 225 -143 q 31 -236 138 -236 q -45 -233 -29 -236 q -61 -218 -61 -229 l -61 -157 q -47 -142 -61 -142 l 24 -137 q 88 -112 68 -135 q 108 -32 108 -89 l 108 717 q 125 736 108 736 l 210 736 q 225 718 225 736 l 225 -40 m 182 954 q 174 962 179 957 q 167 967 169 967 q 150 954 163 967 l 69 885 q 58 878 63 879 q 44 876 53 876 l -31 876 q -40 882 -40 876 q -33 893 -40 886 l 108 1019 q 143 1035 124 1035 l 197 1035 q 213 1031 207 1035 q 225 1022 219 1026 l 365 893 q 374 881 374 885 q 364 876 374 876 l 282 876 q 257 885 267 876 l 182 954 z "},"k":{"ha":783,"x_min":108,"x_max":746,"o":"m 743 22 q 746 13 746 19 q 731 0 746 0 l 633 0 q 619 3 625 0 q 608 17 614 7 l 399 376 q 392 384 396 383 q 382 379 388 385 l 235 231 q 225 203 225 221 l 225 24 q 219 5 225 10 q 200 0 214 0 l 129 0 q 113 4 117 0 q 108 19 108 8 l 108 1011 q 124 1031 108 1031 l 208 1031 q 225 1013 225 1031 l 225 368 q 229 354 225 354 q 239 363 233 354 l 582 719 q 611 736 597 736 l 696 736 q 713 726 713 736 q 703 710 713 722 l 483 486 q 478 474 478 478 q 482 463 478 469 l 743 22 z "},"ķ":{"ha":783,"x_min":108,"x_max":746,"o":"m 743 22 q 746 13 746 19 q 731 0 746 0 l 633 0 q 619 3 625 0 q 608 17 614 7 l 399 376 q 392 384 396 383 q 382 379 388 385 l 235 231 q 225 203 225 221 l 225 24 q 219 5 225 10 q 200 0 214 0 l 129 0 q 113 4 117 0 q 108 19 108 8 l 108 1011 q 124 1031 108 1031 l 208 1031 q 225 1013 225 1031 l 225 368 q 229 354 225 354 q 239 363 233 354 l 582 719 q 611 736 597 736 l 696 736 q 713 726 713 736 q 703 710 713 722 l 483 486 q 478 474 478 478 q 482 463 478 469 l 743 22 m 346 -332 q 337 -327 339 -332 q 338 -315 335 -322 l 375 -244 q 378 -233 378 -240 q 368 -224 378 -224 l 356 -224 q 342 -220 346 -224 q 339 -207 339 -217 l 339 -117 q 353 -101 339 -101 l 435 -101 q 447 -114 447 -101 l 447 -224 q 446 -231 447 -228 q 444 -235 444 -233 l 393 -321 q 382 -330 388 -328 q 367 -332 376 -332 l 346 -332 z "},"ĸ":{"ha":783,"x_min":108,"x_max":746,"o":"m 743 22 q 746 13 746 19 q 731 0 746 0 l 633 0 q 619 3 625 0 q 608 17 614 7 l 399 376 q 392 384 396 383 q 382 379 388 385 l 235 231 q 225 203 225 221 l 225 24 q 219 5 225 10 q 200 0 214 0 l 129 0 q 113 4 117 0 q 108 19 108 8 l 108 717 q 124 736 108 736 l 208 736 q 225 718 225 736 l 225 368 q 229 354 225 354 q 239 363 233 354 l 582 719 q 611 736 597 736 l 696 736 q 713 726 713 736 q 703 710 713 722 l 483 486 q 478 474 478 478 q 482 463 478 469 l 743 22 z "},"l":{"ha":332,"x_min":107,"x_max":225,"o":"m 225 24 q 219 5 225 10 q 200 0 214 0 l 128 0 q 111 4 115 0 q 107 19 107 8 l 108 1011 q 125 1031 108 1031 l 208 1031 q 225 1013 225 1031 l 225 24 z "},"ĺ":{"ha":332,"x_min":-17,"x_max":351,"o":"m 225 24 q 219 5 225 10 q 200 0 214 0 l 128 0 q 111 4 115 0 q 107 19 107 8 l 108 1011 q 125 1031 108 1031 l 208 1031 q 225 1013 225 1031 l 225 24 m 350 1267 q 351 1258 351 1264 q 336 1243 351 1247 l 18 1143 q 10 1142 15 1142 q -4 1154 0 1142 l -15 1185 q -17 1192 -17 1188 q -8 1204 -17 1203 l 313 1338 q 318 1339 314 1339 q 329 1331 326 1339 l 350 1267 z "},"ľ":{"ha":447,"x_min":107,"x_max":424,"o":"m 225 24 q 219 5 225 10 q 200 0 214 0 l 128 0 q 111 4 115 0 q 107 19 107 8 l 108 1011 q 125 1031 108 1031 l 208 1031 q 225 1013 225 1031 l 225 24 m 319 760 q 311 765 314 760 q 310 774 308 769 l 351 874 q 353 885 354 882 q 346 890 353 889 l 336 892 q 325 896 328 893 q 322 907 322 899 l 322 1018 q 333 1031 322 1031 l 414 1031 q 424 1019 424 1031 l 424 892 q 421 885 424 888 l 374 774 q 365 763 371 767 q 349 760 360 760 l 319 760 z "},"ļ":{"ha":332,"x_min":107,"x_max":225,"o":"m 225 24 q 219 5 225 10 q 200 0 214 0 l 128 0 q 111 4 115 0 q 107 19 107 8 l 108 1011 q 125 1031 108 1031 l 208 1031 q 225 1013 225 1031 l 225 24 m 124 -332 q 115 -327 117 -332 q 115 -315 113 -322 l 153 -244 q 156 -233 156 -240 q 146 -224 156 -224 l 133 -224 q 120 -220 124 -224 q 117 -207 117 -217 l 117 -117 q 131 -101 117 -101 l 213 -101 q 225 -114 225 -101 l 225 -224 q 224 -231 225 -228 q 222 -235 222 -233 l 171 -321 q 160 -330 165 -328 q 144 -332 154 -332 l 124 -332 z "},"ŀ":{"ha":465,"x_min":107,"x_max":475,"o":"m 225 24 q 219 5 225 10 q 200 0 214 0 l 128 0 q 111 4 115 0 q 107 19 107 8 l 108 1011 q 125 1031 108 1031 l 208 1031 q 225 1013 225 1031 l 225 24 m 475 357 q 470 341 475 346 q 451 336 465 336 l 342 336 q 326 340 331 336 q 322 356 322 344 l 322 468 q 335 485 322 485 l 463 485 q 472 481 469 485 q 475 469 475 478 l 475 357 z "},"ǉ":{"ha":664,"x_min":107,"x_max":561,"o":"m 225 24 q 219 5 225 10 q 200 0 214 0 l 128 0 q 111 4 115 0 q 107 19 107 8 l 108 1011 q 125 1031 108 1031 l 208 1031 q 225 1013 225 1031 l 225 24 m 561 894 q 538 868 561 868 l 456 868 q 435 892 435 868 l 435 1008 q 440 1024 435 1018 q 454 1031 446 1031 l 543 1031 q 556 1025 551 1031 q 561 1010 561 1019 l 561 894 m 557 -40 q 513 -190 557 -143 q 363 -236 469 -236 q 287 -233 303 -236 q 271 -218 271 -229 l 271 -157 q 285 -142 271 -142 l 356 -137 q 420 -112 400 -135 q 440 -32 440 -89 l 440 717 q 457 736 440 736 l 542 736 q 557 718 557 736 l 557 -40 z "},"ł":{"ha":383,"x_min":11,"x_max":374,"o":"m 357 629 q 367 633 364 633 q 374 624 374 633 l 374 550 q 360 526 374 538 l 250 433 l 250 24 q 244 5 250 10 q 225 0 239 0 l 153 0 q 136 4 140 0 q 132 19 132 8 l 132 333 l 28 244 q 18 240 22 240 q 11 253 11 240 l 11 328 q 24 350 11 342 l 132 442 l 133 1011 q 150 1031 133 1031 l 233 1031 q 250 1013 250 1031 l 250 540 l 357 629 z "},"m":{"ha":1258,"x_min":107,"x_max":1160,"o":"m 126 0 q 107 18 107 0 l 107 718 q 122 736 107 736 l 206 736 q 219 721 219 736 l 219 640 q 233 636 219 624 q 361 724 308 697 q 479 750 414 750 q 608 715 557 750 q 676 628 658 681 q 682 624 679 624 q 696 631 686 624 q 826 721 768 692 q 947 750 883 750 q 1103 693 1047 750 q 1160 539 1160 636 l 1160 22 q 1139 0 1160 0 l 1061 0 q 1043 18 1043 0 l 1043 514 q 1010 621 1043 583 q 910 658 976 658 q 806 631 854 658 q 711 564 757 604 q 696 544 700 553 q 692 524 692 536 l 692 22 q 671 0 692 0 l 593 0 q 575 18 575 0 l 575 514 q 442 658 575 658 q 340 633 386 658 q 224 546 293 607 l 224 21 q 219 5 224 10 q 203 0 214 0 l 126 0 z "},"n":{"ha":811,"x_min":107,"x_max":713,"o":"m 126 0 q 107 18 107 0 l 107 718 q 122 736 107 736 l 206 736 q 221 721 221 736 l 221 640 q 233 636 221 625 q 366 724 311 697 q 489 750 421 750 q 653 693 594 750 q 713 540 713 636 l 713 22 q 692 0 713 0 l 614 0 q 596 18 596 0 l 596 514 q 560 621 596 583 q 451 658 525 658 q 344 633 393 658 q 224 546 294 607 l 224 21 q 219 5 224 10 q 203 0 214 0 l 126 0 z "},"ń":{"ha":811,"x_min":107,"x_max":713,"o":"m 126 0 q 107 18 107 0 l 107 718 q 122 736 107 736 l 206 736 q 221 721 221 736 l 221 640 q 233 636 221 625 q 366 724 311 697 q 489 750 421 750 q 653 693 594 750 q 713 540 713 636 l 713 22 q 692 0 713 0 l 614 0 q 596 18 596 0 l 596 514 q 560 621 596 583 q 451 658 525 658 q 344 633 393 658 q 224 546 294 607 l 224 21 q 219 5 224 10 q 203 0 214 0 l 126 0 m 603 972 q 604 964 604 969 q 589 949 604 953 l 271 849 q 263 847 268 847 q 249 860 253 847 l 238 890 q 236 897 236 893 q 244 910 236 908 l 565 1043 q 571 1044 567 1044 q 582 1036 579 1044 l 603 972 z "},"ŉ":{"ha":883,"x_min":44,"x_max":785,"o":"m 54 650 q 46 655 49 650 q 46 664 43 660 l 89 825 q 83 843 93 843 l 74 844 q 58 858 58 844 l 58 1018 q 69 1031 58 1031 l 151 1031 q 161 1019 161 1031 l 161 844 q 158 836 161 839 l 110 664 q 85 650 106 650 l 54 650 m 199 0 q 179 18 179 0 l 179 718 q 194 736 179 736 l 278 736 q 293 721 293 736 l 293 640 q 306 636 293 625 q 438 724 383 697 q 561 750 493 750 q 726 693 667 750 q 785 540 785 636 l 785 22 q 764 0 785 0 l 686 0 q 668 18 668 0 l 668 514 q 633 621 668 583 q 524 658 597 658 q 416 633 465 658 q 296 546 367 607 l 296 21 q 291 5 296 10 q 275 0 286 0 l 199 0 z "},"ň":{"ha":811,"x_min":107,"x_max":713,"o":"m 126 0 q 107 18 107 0 l 107 718 q 122 736 107 736 l 206 736 q 221 721 221 736 l 221 640 q 233 636 221 625 q 366 724 311 697 q 489 750 421 750 q 653 693 594 750 q 713 540 713 636 l 713 22 q 692 0 713 0 l 614 0 q 596 18 596 0 l 596 514 q 560 621 596 583 q 451 658 525 658 q 344 633 393 658 q 224 546 294 607 l 224 21 q 219 5 224 10 q 203 0 214 0 l 126 0 m 511 1021 q 536 1031 521 1031 l 618 1031 q 628 1026 628 1031 q 619 1014 628 1022 l 479 885 q 467 876 474 881 q 451 872 461 872 l 397 872 q 363 886 379 872 l 221 1014 q 215 1026 214 1021 q 224 1031 215 1031 l 299 1031 q 313 1029 308 1031 q 324 1021 317 1028 l 404 953 q 421 940 417 940 q 428 945 424 940 q 436 953 433 950 l 511 1021 z "},"ņ":{"ha":811,"x_min":107,"x_max":713,"o":"m 126 0 q 107 18 107 0 l 107 718 q 122 736 107 736 l 206 736 q 221 721 221 736 l 221 640 q 233 636 221 625 q 366 724 311 697 q 489 750 421 750 q 653 693 594 750 q 713 540 713 636 l 713 22 q 692 0 713 0 l 614 0 q 596 18 596 0 l 596 514 q 560 621 596 583 q 451 658 525 658 q 344 633 393 658 q 224 546 294 607 l 224 21 q 219 5 224 10 q 203 0 214 0 l 126 0 m 367 -332 q 358 -327 360 -332 q 358 -315 356 -322 l 396 -244 q 399 -233 399 -240 q 389 -224 399 -224 l 376 -224 q 363 -220 367 -224 q 360 -207 360 -217 l 360 -117 q 374 -101 360 -101 l 456 -101 q 468 -114 468 -101 l 468 -224 q 467 -231 468 -228 q 465 -235 465 -233 l 414 -321 q 403 -330 408 -328 q 388 -332 397 -332 l 367 -332 z "},"ṅ":{"ha":811,"x_min":107,"x_max":713,"o":"m 126 0 q 107 18 107 0 l 107 718 q 122 736 107 736 l 206 736 q 221 721 221 736 l 221 640 q 233 636 221 625 q 366 724 311 697 q 489 750 421 750 q 653 693 594 750 q 713 540 713 636 l 713 22 q 692 0 713 0 l 614 0 q 596 18 596 0 l 596 514 q 560 621 596 583 q 451 658 525 658 q 344 633 393 658 q 224 546 294 607 l 224 21 q 219 5 224 10 q 203 0 214 0 l 126 0 m 483 890 q 478 873 483 878 q 458 868 472 868 l 378 868 q 361 872 365 868 q 357 888 357 876 l 357 1011 q 360 1026 357 1022 q 374 1031 364 1031 l 468 1031 q 483 1013 483 1031 l 483 890 z "},"ŋ":{"ha":815,"x_min":107,"x_max":713,"o":"m 490 750 q 653 692 593 750 q 713 540 713 635 l 713 -31 q 663 -183 713 -131 q 519 -236 614 -236 q 453 -233 467 -236 q 439 -218 439 -229 l 438 -160 q 442 -149 438 -153 q 451 -143 446 -144 l 513 -140 q 576 -113 557 -137 q 596 -32 596 -89 l 596 508 q 449 658 596 658 q 225 544 342 658 l 225 21 q 203 0 225 0 l 126 0 q 107 18 107 0 l 108 718 q 124 736 108 736 l 206 736 q 221 721 221 736 l 221 640 q 233 635 221 625 q 368 724 311 699 q 490 750 425 750 z "},"ǌ":{"ha":1143,"x_min":107,"x_max":1040,"o":"m 126 0 q 107 18 107 0 l 107 718 q 122 736 107 736 l 206 736 q 221 721 221 736 l 221 640 q 233 636 221 625 q 366 724 311 697 q 489 750 421 750 q 653 693 594 750 q 713 540 713 636 l 713 22 q 692 0 713 0 l 614 0 q 596 18 596 0 l 596 514 q 560 621 596 583 q 451 658 525 658 q 344 633 393 658 q 224 546 294 607 l 224 21 q 219 5 224 10 q 203 0 214 0 l 126 0 m 1040 894 q 1017 868 1040 868 l 935 868 q 914 892 914 868 l 914 1008 q 919 1024 914 1018 q 933 1031 925 1031 l 1022 1031 q 1035 1025 1031 1031 q 1040 1010 1040 1019 l 1040 894 m 1036 -40 q 992 -190 1036 -143 q 842 -236 949 -236 q 766 -233 782 -236 q 750 -218 750 -229 l 750 -157 q 764 -142 750 -142 l 835 -137 q 899 -112 879 -135 q 919 -32 919 -89 l 919 717 q 936 736 919 736 l 1021 736 q 1036 718 1036 736 l 1036 -40 z "},"ñ":{"ha":811,"x_min":107,"x_max":713,"o":"m 126 0 q 107 18 107 0 l 107 718 q 122 736 107 736 l 206 736 q 221 721 221 736 l 221 640 q 233 636 221 625 q 366 724 311 697 q 489 750 421 750 q 653 693 594 750 q 713 540 713 636 l 713 22 q 692 0 713 0 l 614 0 q 596 18 596 0 l 596 514 q 560 621 596 583 q 451 658 525 658 q 344 633 393 658 q 224 546 294 607 l 224 21 q 219 5 224 10 q 203 0 214 0 l 126 0 m 617 940 q 570 918 594 926 q 511 910 546 910 q 415 929 471 910 q 335 946 365 946 q 296 940 311 946 q 268 926 281 933 q 251 917 256 919 q 242 913 244 913 q 232 924 236 913 l 218 961 q 217 969 217 964 q 224 981 217 975 q 274 1012 251 1001 q 329 1022 296 1022 q 374 1017 353 1022 q 425 1003 394 1013 q 469 990 447 996 q 513 983 492 983 q 553 990 536 983 q 592 1011 569 997 q 603 1015 599 1015 q 614 1004 610 1015 l 628 961 q 629 954 629 958 q 617 940 629 947 z "},"o":{"ha":832,"x_min":64,"x_max":767,"o":"m 415 -14 q 231 34 311 -14 q 108 168 151 82 q 64 364 64 254 q 109 564 64 476 q 234 701 154 651 q 417 750 314 750 q 599 701 519 750 q 723 564 679 651 q 767 365 767 476 q 722 169 767 256 q 598 35 678 83 q 415 -14 518 -14 m 418 74 q 587 152 526 74 q 647 368 647 231 q 585 584 647 504 q 417 664 524 664 q 246 584 308 664 q 183 368 183 504 q 246 153 183 232 q 418 74 308 74 z "},"ó":{"ha":832,"x_min":64,"x_max":767,"o":"m 415 -14 q 231 34 311 -14 q 108 168 151 82 q 64 364 64 254 q 109 564 64 476 q 234 701 154 651 q 417 750 314 750 q 599 701 519 750 q 723 564 679 651 q 767 365 767 476 q 722 169 767 256 q 598 35 678 83 q 415 -14 518 -14 m 418 74 q 587 152 526 74 q 647 368 647 231 q 585 584 647 504 q 417 664 524 664 q 246 584 308 664 q 183 368 183 504 q 246 153 183 232 q 418 74 308 74 m 600 972 q 601 964 601 969 q 586 949 601 953 l 268 849 q 260 847 265 847 q 246 860 250 847 l 235 890 q 233 897 233 893 q 242 910 233 908 l 563 1043 q 568 1044 564 1044 q 579 1036 576 1044 l 600 972 z "},"ŏ":{"ha":832,"x_min":64,"x_max":767,"o":"m 415 -14 q 231 34 311 -14 q 108 168 151 82 q 64 364 64 254 q 109 564 64 476 q 234 701 154 651 q 417 750 314 750 q 599 701 519 750 q 723 564 679 651 q 767 365 767 476 q 722 169 767 256 q 598 35 678 83 q 415 -14 518 -14 m 418 74 q 587 152 526 74 q 647 368 647 231 q 585 584 647 504 q 417 664 524 664 q 246 584 308 664 q 183 368 183 504 q 246 153 183 232 q 418 74 308 74 m 611 1031 q 624 1027 621 1031 q 624 1015 626 1024 q 552 920 607 960 q 417 881 497 881 q 284 919 338 881 q 214 1017 231 958 l 214 1022 q 222 1031 214 1031 l 286 1031 q 299 1028 294 1031 q 308 1018 303 1025 q 351 974 326 992 q 417 957 375 957 q 485 975 456 957 q 529 1019 514 993 q 546 1031 536 1031 l 611 1031 z "},"ô":{"ha":832,"x_min":64,"x_max":767,"o":"m 415 -14 q 231 34 311 -14 q 108 168 151 82 q 64 364 64 254 q 109 564 64 476 q 234 701 154 651 q 417 750 314 750 q 599 701 519 750 q 723 564 679 651 q 767 365 767 476 q 722 169 767 256 q 598 35 678 83 q 415 -14 518 -14 m 418 74 q 587 152 526 74 q 647 368 647 231 q 585 584 647 504 q 417 664 524 664 q 246 584 308 664 q 183 368 183 504 q 246 153 183 232 q 418 74 308 74 m 433 954 q 426 962 431 957 q 418 967 421 967 q 401 954 414 967 l 321 885 q 309 878 314 879 q 296 876 304 876 l 221 876 q 211 882 211 876 q 218 893 211 886 l 360 1019 q 394 1035 375 1035 l 449 1035 q 465 1031 458 1035 q 476 1022 471 1026 l 617 893 q 625 881 625 885 q 615 876 625 876 l 533 876 q 508 885 518 876 l 433 954 z "},"ȍ":{"ha":832,"x_min":64,"x_max":767,"o":"m 415 -14 q 231 34 311 -14 q 108 168 151 82 q 64 364 64 254 q 109 564 64 476 q 234 701 154 651 q 417 750 314 750 q 599 701 519 750 q 723 564 679 651 q 767 365 767 476 q 722 169 767 256 q 598 35 678 83 q 415 -14 518 -14 m 418 74 q 587 152 526 74 q 647 368 647 231 q 585 584 647 504 q 417 664 524 664 q 246 584 308 664 q 183 368 183 504 q 246 153 183 232 q 418 74 308 74 m 174 1040 q 192 1040 182 1050 l 364 857 q 367 849 367 854 q 363 838 367 844 l 340 811 q 331 804 333 804 q 317 810 328 804 l 136 961 q 126 976 126 969 q 132 989 126 981 l 174 1040 m 399 1040 q 407 1044 401 1044 q 417 1040 413 1044 l 588 857 q 592 849 592 856 q 586 838 592 843 l 565 811 q 554 804 558 804 q 540 810 551 804 l 361 961 q 350 976 350 969 q 357 989 350 982 l 399 1040 z "},"ö":{"ha":832,"x_min":64,"x_max":767,"o":"m 415 -14 q 231 34 311 -14 q 108 168 151 82 q 64 364 64 254 q 109 564 64 476 q 234 701 154 651 q 417 750 314 750 q 599 701 519 750 q 723 564 679 651 q 767 365 767 476 q 722 169 767 256 q 598 35 678 83 q 415 -14 518 -14 m 418 74 q 587 152 526 74 q 647 368 647 231 q 585 584 647 504 q 417 664 524 664 q 246 584 308 664 q 183 368 183 504 q 246 153 183 232 q 418 74 308 74 m 374 899 q 369 882 374 886 q 351 878 364 878 l 278 878 q 263 881 267 878 q 258 896 258 885 l 258 1013 q 262 1026 258 1022 q 274 1031 265 1031 l 358 1031 q 370 1027 367 1031 q 374 1014 374 1024 l 374 899 m 578 899 q 573 882 578 886 q 554 878 568 878 l 482 878 q 465 881 469 878 q 461 896 461 885 l 461 1013 q 476 1031 461 1031 l 563 1031 q 574 1027 571 1031 q 578 1014 578 1024 l 578 899 z "},"ọ":{"ha":832,"x_min":64,"x_max":767,"o":"m 415 -14 q 231 34 311 -14 q 108 168 151 82 q 64 364 64 254 q 109 564 64 476 q 234 701 154 651 q 417 750 314 750 q 599 701 519 750 q 723 564 679 651 q 767 365 767 476 q 722 169 767 256 q 598 35 678 83 q 415 -14 518 -14 m 418 74 q 587 152 526 74 q 647 368 647 231 q 585 584 647 504 q 417 664 524 664 q 246 584 308 664 q 183 368 183 504 q 246 153 183 232 q 418 74 308 74 m 468 -208 q 464 -225 468 -221 q 447 -229 460 -229 l 378 -229 q 364 -226 368 -229 q 360 -212 360 -222 l 360 -94 q 374 -78 360 -78 l 454 -78 q 465 -81 463 -78 q 468 -93 468 -85 l 468 -208 z "},"ò":{"ha":832,"x_min":64,"x_max":767,"o":"m 415 -14 q 231 34 311 -14 q 108 168 151 82 q 64 364 64 254 q 109 564 64 476 q 234 701 154 651 q 417 750 314 750 q 599 701 519 750 q 723 564 679 651 q 767 365 767 476 q 722 169 767 256 q 598 35 678 83 q 415 -14 518 -14 m 418 74 q 587 152 526 74 q 647 368 647 231 q 585 584 647 504 q 417 664 524 664 q 246 584 308 664 q 183 368 183 504 q 246 153 183 232 q 418 74 308 74 m 239 1036 q 244 1044 240 1042 q 254 1043 249 1046 l 576 910 q 582 890 588 904 l 571 860 q 563 848 568 850 q 549 849 558 846 l 232 949 q 217 972 210 954 l 239 1036 z "},"ő":{"ha":832,"x_min":64,"x_max":767,"o":"m 415 -14 q 231 34 311 -14 q 108 168 151 82 q 64 364 64 254 q 109 564 64 476 q 234 701 154 651 q 417 750 314 750 q 599 701 519 750 q 723 564 679 651 q 767 365 767 476 q 722 169 767 256 q 598 35 678 83 q 415 -14 518 -14 m 418 74 q 587 152 526 74 q 647 368 647 231 q 585 584 647 504 q 417 664 524 664 q 246 584 308 664 q 183 368 183 504 q 246 153 183 232 q 418 74 308 74 m 468 989 q 475 976 475 982 q 464 961 475 969 l 285 810 q 271 804 274 804 q 260 811 264 804 l 239 838 q 238 857 229 849 l 408 1040 q 428 1040 419 1049 l 468 989 m 694 989 q 701 976 701 982 q 690 961 701 969 l 510 810 q 496 804 499 804 q 486 811 490 804 l 464 838 q 464 857 454 850 l 635 1040 q 644 1044 639 1044 q 653 1040 650 1044 l 694 989 z "},"ȏ":{"ha":832,"x_min":64,"x_max":767,"o":"m 415 -14 q 231 34 311 -14 q 108 168 151 82 q 64 364 64 254 q 109 564 64 476 q 234 701 154 651 q 417 750 314 750 q 599 701 519 750 q 723 564 679 651 q 767 365 767 476 q 722 169 767 256 q 598 35 678 83 q 415 -14 518 -14 m 418 74 q 587 152 526 74 q 647 368 647 231 q 585 584 647 504 q 417 664 524 664 q 246 584 308 664 q 183 368 183 504 q 246 153 183 232 q 418 74 308 74 m 544 889 q 528 900 535 889 q 483 944 513 926 q 415 963 454 963 q 349 945 374 963 q 307 901 325 928 q 297 892 301 894 q 285 889 293 889 l 221 889 q 213 903 208 889 q 283 1000 229 961 q 415 1039 336 1039 q 551 999 496 1039 q 622 904 606 960 q 624 897 624 901 q 610 889 624 889 l 544 889 z "},"ō":{"ha":832,"x_min":64,"x_max":767,"o":"m 415 -14 q 231 34 311 -14 q 108 168 151 82 q 64 364 64 254 q 109 564 64 476 q 234 701 154 651 q 417 750 314 750 q 599 701 519 750 q 723 564 679 651 q 767 365 767 476 q 722 169 767 256 q 598 35 678 83 q 415 -14 518 -14 m 418 74 q 587 152 526 74 q 647 368 647 231 q 585 584 647 504 q 417 664 524 664 q 246 584 308 664 q 183 368 183 504 q 246 153 183 232 q 418 74 308 74 m 624 943 q 603 925 624 925 l 228 925 q 216 929 219 925 q 213 942 213 933 l 213 996 q 215 1007 213 1003 q 224 1011 218 1011 l 613 1011 q 621 1007 618 1011 q 624 997 624 1003 l 624 943 z "},"ǫ":{"ha":832,"x_min":64,"x_max":767,"o":"m 511 -3 q 415 -58 444 -32 q 386 -117 386 -83 q 403 -157 386 -144 q 456 -169 419 -169 q 505 -164 482 -169 q 542 -151 528 -158 q 551 -149 550 -149 q 557 -158 557 -149 l 557 -199 q 549 -214 557 -208 q 497 -231 531 -224 q 428 -237 463 -237 q 324 -208 360 -237 q 289 -125 289 -178 q 308 -62 289 -90 q 372 -11 328 -35 q 210 49 281 -1 q 102 180 140 99 q 64 364 64 261 q 109 564 64 476 q 234 701 154 651 q 417 750 314 750 q 599 701 519 750 q 723 564 679 651 q 767 365 767 476 q 697 127 767 226 q 511 -3 628 28 m 183 368 q 246 153 183 232 q 418 74 308 74 q 587 152 526 74 q 647 368 647 231 q 585 584 647 504 q 417 664 524 664 q 246 584 308 664 q 183 368 183 504 z "},"ø":{"ha":810,"x_min":28,"x_max":782,"o":"m 776 701 q 782 689 782 696 q 776 676 782 682 l 700 601 q 765 365 765 504 q 721 169 765 256 q 597 35 676 83 q 414 -14 517 -14 q 275 12 339 -14 q 165 85 211 38 l 88 8 q 71 0 79 0 q 54 8 63 0 l 36 28 q 28 46 28 39 q 36 61 28 53 l 121 143 q 63 364 63 236 q 108 564 63 476 q 233 701 153 651 q 415 750 313 750 q 547 726 486 750 q 653 658 607 703 l 722 726 q 738 735 731 735 q 750 728 744 735 l 776 701 m 182 368 q 206 225 182 288 l 581 589 q 415 664 518 664 q 244 584 307 664 q 182 368 182 504 m 646 368 q 618 524 646 457 l 242 157 q 417 74 304 74 q 585 152 525 74 q 646 368 646 231 z "},"ǿ":{"ha":810,"x_min":28,"x_max":782,"o":"m 776 701 q 782 689 782 696 q 776 676 782 682 l 700 601 q 765 365 765 504 q 721 169 765 256 q 597 35 676 83 q 414 -14 517 -14 q 275 12 339 -14 q 165 85 211 38 l 88 8 q 71 0 79 0 q 54 8 63 0 l 36 28 q 28 46 28 39 q 36 61 28 53 l 121 143 q 63 364 63 236 q 108 564 63 476 q 233 701 153 651 q 415 750 313 750 q 547 726 486 750 q 653 658 607 703 l 722 726 q 738 735 731 735 q 750 728 744 735 l 776 701 m 182 368 q 206 225 182 288 l 581 589 q 415 664 518 664 q 244 584 307 664 q 182 368 182 504 m 646 368 q 618 524 646 457 l 242 157 q 417 74 304 74 q 585 152 525 74 q 646 368 646 231 m 588 972 q 589 964 589 969 q 574 949 589 953 l 256 849 q 247 847 253 847 q 233 860 238 847 l 222 890 q 221 897 221 893 q 229 910 221 908 l 550 1043 q 556 1044 551 1044 q 567 1036 564 1044 l 588 972 z "},"õ":{"ha":832,"x_min":64,"x_max":767,"o":"m 415 -14 q 231 34 311 -14 q 108 168 151 82 q 64 364 64 254 q 109 564 64 476 q 234 701 154 651 q 417 750 314 750 q 599 701 519 750 q 723 564 679 651 q 767 365 767 476 q 722 169 767 256 q 598 35 678 83 q 415 -14 518 -14 m 418 74 q 587 152 526 74 q 647 368 647 231 q 585 584 647 504 q 417 664 524 664 q 246 584 308 664 q 183 368 183 504 q 246 153 183 232 q 418 74 308 74 m 614 940 q 567 918 592 926 q 508 910 543 910 q 413 929 468 910 q 332 946 363 946 q 293 940 308 946 q 265 926 278 933 q 249 917 253 919 q 239 913 242 913 q 229 924 233 913 l 215 961 q 214 969 214 964 q 221 981 214 975 q 271 1012 249 1001 q 326 1022 293 1022 q 371 1017 350 1022 q 422 1003 392 1013 q 467 990 444 996 q 510 983 489 983 q 550 990 533 983 q 589 1011 567 997 q 600 1015 596 1015 q 611 1004 607 1015 l 625 961 q 626 954 626 958 q 614 940 626 947 z "},"œ":{"ha":1385,"x_min":64,"x_max":1329,"o":"m 415 -14 q 231 33 311 -14 q 108 166 151 81 q 64 364 64 251 q 109 565 64 478 q 234 701 154 653 q 417 750 314 750 q 582 708 510 750 q 696 592 654 667 q 707 583 703 583 q 718 592 714 583 q 831 708 760 667 q 992 750 903 750 q 1238 649 1147 750 q 1329 369 1329 547 q 1304 343 1329 343 l 786 343 q 765 318 765 343 q 798 196 765 251 q 885 108 831 140 q 1006 76 940 76 q 1224 190 1146 76 q 1232 197 1228 196 q 1243 194 1236 197 l 1301 165 q 1303 146 1313 157 q 1174 24 1249 63 q 996 -14 1100 -14 q 833 25 906 -14 q 717 136 761 64 q 707 146 713 146 q 692 133 700 146 q 577 24 649 63 q 415 -14 506 -14 m 996 667 q 880 635 932 667 q 799 548 828 604 q 769 421 769 492 l 1189 419 q 1208 423 1204 419 q 1213 439 1213 426 q 1185 551 1213 499 q 1109 635 1158 604 q 996 667 1060 667 m 418 74 q 586 152 525 74 q 647 368 647 231 q 585 584 647 504 q 417 664 522 664 q 247 584 310 664 q 183 368 183 504 q 247 153 183 232 q 418 74 310 74 z "},"p":{"ha":829,"x_min":107,"x_max":763,"o":"m 203 736 q 222 715 222 736 l 222 657 q 229 644 222 644 q 240 651 233 644 q 292 699 269 681 q 357 733 314 717 q 458 750 400 750 q 615 708 546 750 q 723 583 683 667 q 763 379 763 500 q 723 168 763 257 q 611 33 683 79 q 443 -14 539 -14 q 246 56 328 -14 q 231 65 236 65 q 224 47 224 65 l 224 -211 q 208 -229 224 -229 l 122 -229 q 107 -211 107 -229 l 107 714 q 112 731 107 725 q 129 736 117 736 l 203 736 m 224 163 q 313 94 268 117 q 413 71 358 71 q 580 150 517 71 q 643 378 643 229 q 581 594 643 522 q 419 665 518 665 q 319 641 364 665 q 249 579 275 617 q 224 506 224 542 l 224 163 z "},"þ":{"ha":826,"x_min":107,"x_max":763,"o":"m 203 1031 q 222 1010 222 1031 l 222 657 q 229 644 222 644 q 240 651 233 644 q 292 699 269 681 q 357 733 314 717 q 458 750 400 750 q 615 708 546 750 q 723 583 683 667 q 763 379 763 500 q 723 168 763 257 q 611 33 683 79 q 443 -14 539 -14 q 246 56 328 -14 q 231 65 236 65 q 224 47 224 65 l 224 -211 q 208 -229 224 -229 l 122 -229 q 107 -211 107 -229 l 107 1008 q 112 1025 107 1019 q 129 1031 117 1031 l 203 1031 m 224 163 q 313 94 268 117 q 413 71 358 71 q 580 150 517 71 q 643 378 643 229 q 581 594 643 522 q 419 665 518 665 q 319 641 364 665 q 249 579 275 617 q 224 506 224 542 l 224 163 z "}}}
